<?xml version="1.0" encoding="UTF-8" standalone="no"?><svg xmlns="http://www.w3.org/2000/svg" xmlns:xlink="http://www.w3.org/1999/xlink" clip-rule="evenodd" stroke-miterlimit="4.00" viewBox="0 0 1024 768"><desc>SVG generated by Keynote</desc><defs></defs><g transform="matrix(1.00, 0.00, -0.00, -1.00, 0.0, 768.0)"><path d="M 0.0 768.0 L 1024.0 768.0 L 1024.0 0.0 L 0.0 0.0 Z M 0.0 768.0 " fill="#FEFFFF"></path><text xml:space="preserve" font-family="AvenirNext-DemiBold" font-weight="bold" font-size="80.0" fill="#000000" transform="matrix(1.00, 0.00, -0.00, -1.00, 389.0, 622.0)">S</text><text xml:space="preserve" font-family="AvenirNext-DemiBold" font-weight="bold" font-size="80.0" fill="#000000" transform="matrix(1.00, 0.00, -0.00, -1.00, 434.0, 622.0)">y</text><text xml:space="preserve" font-family="AvenirNext-DemiBold" font-weight="bold" font-size="80.0" fill="#000000" transform="matrix(1.00, 0.00, -0.00, -1.00, 475.0, 622.0)">n</text><text xml:space="preserve" font-family="AvenirNext-DemiBold" font-weight="bold" font-size="80.0" fill="#000000" transform="matrix(1.00, 0.00, -0.00, -1.00, 521.6, 622.0)">t</text><text xml:space="preserve" font-family="AvenirNext-DemiBold" font-weight="bold" font-size="80.0" fill="#000000" transform="matrix(1.00, 0.00, -0.00, -1.00, 548.8, 622.0)">a</text><text xml:space="preserve" font-family="AvenirNext-DemiBold" font-weight="bold" font-size="80.0" fill="#000000" transform="matrix(1.00, 0.00, -0.00, -1.00, 592.8, 622.0)">x</text><text xml:space="preserve" font-family="FiraMono-Regular" font-size="36.0" fill="#0221B8" transform="matrix(1.00, 0.00, -0.00, -1.00, 79.0, 303.0)">d</text><text xml:space="preserve" font-family="FiraMono-Regular" font-size="36.0" fill="#0221B8" transform="matrix(1.00, 0.00, -0.00, -1.00, 100.6, 303.0)">o</text><text xml:space="preserve" font-family="FiraMono-Regular" font-size="36.0" fill="#0221B8" transform="matrix(1.00, 0.00, -0.00, -1.00, 122.2, 303.0)">S</text><text xml:space="preserve" font-family="FiraMono-Regular" font-size="36.0" fill="#0221B8" transform="matrix(1.00, 0.00, -0.00, -1.00, 143.8, 303.0)">o</text><text xml:space="preserve" font-family="FiraMono-Regular" font-size="36.0" fill="#0221B8" transform="matrix(1.00, 0.00, -0.00, -1.00, 165.4, 303.0)">m</text><text xml:space="preserve" font-family="FiraMono-Regular" font-size="36.0" fill="#0221B8" transform="matrix(1.00, 0.00, -0.00, -1.00, 187.0, 303.0)">e</text><text xml:space="preserve" font-family="FiraMono-Regular" font-size="36.0" fill="#0221B8" transform="matrix(1.00, 0.00, -0.00, -1.00, 208.6, 303.0)">t</text><text xml:space="preserve" font-family="FiraMono-Regular" font-size="36.0" fill="#0221B8" transform="matrix(1.00, 0.00, -0.00, -1.00, 230.2, 303.0)">h</text><text xml:space="preserve" font-family="FiraMono-Regular" font-size="36.0" fill="#0221B8" transform="matrix(1.00, 0.00, -0.00, -1.00, 251.8, 303.0)">i</text><text xml:space="preserve" font-family="FiraMono-Regular" font-size="36.0" fill="#0221B8" transform="matrix(1.00, 0.00, -0.00, -1.00, 273.4, 303.0)">n</text><text xml:space="preserve" font-family="FiraMono-Regular" font-size="36.0" fill="#0221B8" transform="matrix(1.00, 0.00, -0.00, -1.00, 295.0, 303.0)">g</text><text xml:space="preserve" font-family="FiraMono-Regular" font-size="36.0" fill="#0221B8" transform="matrix(1.00, 0.00, -0.00, -1.00, 316.6, 303.0)">(</text><text xml:space="preserve" font-family="FiraMono-Regular" font-size="36.0" fill="#0221B8" transform="matrix(1.00, 0.00, -0.00, -1.00, 338.2, 303.0)">)</text></g></svg>