<?xml version="1.0" encoding="UTF-8" standalone="no"?><svg xmlns="http://www.w3.org/2000/svg" xmlns:xlink="http://www.w3.org/1999/xlink" clip-rule="evenodd" stroke-miterlimit="4.00" viewBox="0 0 1024 768"><desc>SVG generated by Keynote</desc><defs></defs><g transform="matrix(1.00, 0.00, -0.00, -1.00, 0.0, 768.0)"><path d="M 0.0 768.0 L 1024.0 768.0 L 1024.0 0.0 L 0.0 0.0 Z M 0.0 768.0 " fill="#FEFFFF"></path><text xml:space="preserve" font-family="AvenirNext-DemiBold" font-weight="bold" font-size="80.0" fill="#000000" transform="matrix(1.00, 0.00, -0.00, -1.00, 377.0, 622.0)">I</text><text xml:space="preserve" font-family="AvenirNext-DemiBold" font-weight="bold" font-size="80.0" fill="#000000" transform="matrix(1.00, 0.00, -0.00, -1.00, 399.6, 622.0)">m</text><text xml:space="preserve" font-family="AvenirNext-DemiBold" font-weight="bold" font-size="80.0" fill="#000000" transform="matrix(1.00, 0.00, -0.00, -1.00, 470.8, 622.0)">a</text><text xml:space="preserve" font-family="AvenirNext-DemiBold" font-weight="bold" font-size="80.0" fill="#000000" transform="matrix(1.00, 0.00, -0.00, -1.00, 514.8, 622.0)">g</text><text xml:space="preserve" font-family="AvenirNext-DemiBold" font-weight="bold" font-size="80.0" fill="#000000" transform="matrix(1.00, 0.00, -0.00, -1.00, 565.3, 622.0)">e</text><text xml:space="preserve" font-family="AvenirNext-DemiBold" font-weight="bold" font-size="80.0" fill="#000000" transform="matrix(1.00, 0.00, -0.00, -1.00, 611.2, 622.0)">s</text><text xml:space="preserve" font-family="HelveticaNeueLTPro-Lt" font-size="27.0" fill="#000000" transform="matrix(1.00, 0.00, -0.00, -1.00, 79.0, 224.5)">•</text><text xml:space="preserve" font-family="HelveticaNeueLTPro-Lt" font-size="36.0" fill="#000000" transform="matrix(1.00, 0.00, -0.00, -1.00, 114.0, 222.0)">I</text><text xml:space="preserve" font-family="HelveticaNeueLTPro-Lt" font-size="36.0" fill="#000000" transform="matrix(1.00, 0.00, -0.00, -1.00, 122.0, 222.0)">m</text><text xml:space="preserve" font-family="HelveticaNeueLTPro-Lt" font-size="36.0" fill="#000000" transform="matrix(1.00, 0.00, -0.00, -1.00, 152.0, 222.0)">a</text><text xml:space="preserve" font-family="HelveticaNeueLTPro-Lt" font-size="36.0" fill="#000000" transform="matrix(1.00, 0.00, -0.00, -1.00, 170.7, 222.0)">g</text><text xml:space="preserve" font-family="HelveticaNeueLTPro-Lt" font-size="36.0" fill="#000000" transform="matrix(1.00, 0.00, -0.00, -1.00, 190.7, 222.0)">e</text><text xml:space="preserve" font-family="HelveticaNeueLTPro-Lt" font-size="36.0" fill="#000000" transform="matrix(1.00, 0.00, -0.00, -1.00, 209.4, 222.0)">s</text><text xml:space="preserve" font-family="HelveticaNeueLTPro-Lt" font-size="36.0" fill="#000000" transform="matrix(1.00, 0.00, -0.00, -1.00, 226.7, 222.0)"> </text><text xml:space="preserve" font-family="HelveticaNeueLTPro-Lt" font-size="36.0" fill="#000000" transform="matrix(1.00, 0.00, -0.00, -1.00, 236.7, 222.0)">u</text><text xml:space="preserve" font-family="HelveticaNeueLTPro-Lt" font-size="36.0" fill="#000000" transform="matrix(1.00, 0.00, -0.00, -1.00, 256.0, 222.0)">s</text><text xml:space="preserve" font-family="HelveticaNeueLTPro-Lt" font-size="36.0" fill="#000000" transform="matrix(1.00, 0.00, -0.00, -1.00, 273.3, 222.0)">e</text><text xml:space="preserve" font-family="HelveticaNeueLTPro-Lt" font-size="36.0" fill="#000000" transform="matrix(1.00, 0.00, -0.00, -1.00, 292.0, 222.0)"> </text><text xml:space="preserve" font-family="HelveticaNeueLTPro-Lt" font-size="36.0" fill="#000000" transform="matrix(1.00, 0.00, -0.00, -1.00, 302.0, 222.0)">t</text><text xml:space="preserve" font-family="HelveticaNeueLTPro-Lt" font-size="36.0" fill="#000000" transform="matrix(1.00, 0.00, -0.00, -1.00, 312.7, 222.0)">h</text><text xml:space="preserve" font-family="HelveticaNeueLTPro-Lt" font-size="36.0" fill="#000000" transform="matrix(1.00, 0.00, -0.00, -1.00, 332.0, 222.0)">e</text><text xml:space="preserve" font-family="HelveticaNeueLTPro-Lt" font-size="36.0" fill="#000000" transform="matrix(1.00, 0.00, -0.00, -1.00, 350.7, 222.0)"> </text><text xml:space="preserve" font-family="HelveticaNeueLTPro-Bd" font-weight="bold" font-size="36.0" fill="#000000" transform="matrix(1.00, 0.00, -0.00, -1.00, 360.7, 222.0)">i</text><text xml:space="preserve" font-family="HelveticaNeueLTPro-Bd" font-weight="bold" font-size="36.0" fill="#000000" transform="matrix(1.00, 0.00, -0.00, -1.00, 370.0, 222.0)">m</text><text xml:space="preserve" font-family="HelveticaNeueLTPro-Bd" font-weight="bold" font-size="36.0" fill="#000000" transform="matrix(1.00, 0.00, -0.00, -1.00, 402.6, 222.0)">g</text><text xml:space="preserve" font-family="HelveticaNeueLTPro-Bd" font-weight="bold" font-size="36.0" fill="#000000" transform="matrix(1.00, 0.00, -0.00, -1.00, 424.6, 222.0)"> </text><text xml:space="preserve" font-family="HelveticaNeueLTPro-Lt" font-size="36.0" fill="#000000" transform="matrix(1.00, 0.00, -0.00, -1.00, 434.6, 222.0)">t</text><text xml:space="preserve" font-family="HelveticaNeueLTPro-Lt" font-size="36.0" fill="#000000" transform="matrix(1.00, 0.00, -0.00, -1.00, 445.3, 222.0)">a</text><text xml:space="preserve" font-family="HelveticaNeueLTPro-Lt" font-size="36.0" fill="#000000" transform="matrix(1.00, 0.00, -0.00, -1.00, 464.0, 222.0)">g</text><text xml:space="preserve" font-family="HelveticaNeueLTPro-Lt" font-size="36.0" fill="#000000" transform="matrix(1.00, 0.00, -0.00, -1.00, 484.0, 222.0)"> </text><text xml:space="preserve" font-family="HelveticaNeueLTPro-Lt" font-size="36.0" fill="#000000" transform="matrix(1.00, 0.00, -0.00, -1.00, 494.0, 222.0)">(</text><text xml:space="preserve" font-family="HelveticaNeueLTPro-Lt" font-size="36.0" fill="#000000" transform="matrix(1.00, 0.00, -0.00, -1.00, 502.7, 222.0)">e</text><text xml:space="preserve" font-family="HelveticaNeueLTPro-Lt" font-size="36.0" fill="#000000" transform="matrix(1.00, 0.00, -0.00, -1.00, 521.3, 222.0)">m</text><text xml:space="preserve" font-family="HelveticaNeueLTPro-Lt" font-size="36.0" fill="#000000" transform="matrix(1.00, 0.00, -0.00, -1.00, 551.3, 222.0)">p</text><text xml:space="preserve" font-family="HelveticaNeueLTPro-Lt" font-size="36.0" fill="#000000" transform="matrix(1.00, 0.00, -0.00, -1.00, 572.0, 222.0)">t</text><text xml:space="preserve" font-family="HelveticaNeueLTPro-Lt" font-size="36.0" fill="#000000" transform="matrix(1.00, 0.00, -0.00, -1.00, 582.6, 222.0)">y</text><text xml:space="preserve" font-family="HelveticaNeueLTPro-Lt" font-size="36.0" fill="#000000" transform="matrix(1.00, 0.00, -0.00, -1.00, 599.3, 222.0)"> </text><text xml:space="preserve" font-family="HelveticaNeueLTPro-Lt" font-size="36.0" fill="#000000" transform="matrix(1.00, 0.00, -0.00, -1.00, 609.3, 222.0)">e</text><text xml:space="preserve" font-family="HelveticaNeueLTPro-Lt" font-size="36.0" fill="#000000" transform="matrix(1.00, 0.00, -0.00, -1.00, 628.0, 222.0)">l</text><text xml:space="preserve" font-family="HelveticaNeueLTPro-Lt" font-size="36.0" fill="#000000" transform="matrix(1.00, 0.00, -0.00, -1.00, 634.7, 222.0)">e</text><text xml:space="preserve" font-family="HelveticaNeueLTPro-Lt" font-size="36.0" fill="#000000" transform="matrix(1.00, 0.00, -0.00, -1.00, 653.4, 222.0)">m</text><text xml:space="preserve" font-family="HelveticaNeueLTPro-Lt" font-size="36.0" fill="#000000" transform="matrix(1.00, 0.00, -0.00, -1.00, 683.3, 222.0)">e</text><text xml:space="preserve" font-family="HelveticaNeueLTPro-Lt" font-size="36.0" fill="#000000" transform="matrix(1.00, 0.00, -0.00, -1.00, 702.0, 222.0)">n</text><text xml:space="preserve" font-family="HelveticaNeueLTPro-Lt" font-size="36.0" fill="#000000" transform="matrix(1.00, 0.00, -0.00, -1.00, 721.4, 222.0)">t</text><text xml:space="preserve" font-family="HelveticaNeueLTPro-Lt" font-size="36.0" fill="#000000" transform="matrix(1.00, 0.00, -0.00, -1.00, 732.0, 222.0)">!</text><text xml:space="preserve" font-family="HelveticaNeueLTPro-Lt" font-size="36.0" fill="#000000" transform="matrix(1.00, 0.00, -0.00, -1.00, 740.7, 222.0)">)</text><text xml:space="preserve" font-family="FiraMono-Regular" font-size="36.0" fill="#000000" transform="matrix(1.00, 0.00, -0.00, -1.00, 296.0, 416.0)">&lt;</text><text xml:space="preserve" font-family="FiraMono-Bold" font-weight="bold" font-size="36.0" fill="#1EA4FF" transform="matrix(1.00, 0.00, -0.00, -1.00, 317.6, 416.0)">i</text><text xml:space="preserve" font-family="FiraMono-Bold" font-weight="bold" font-size="36.0" fill="#1EA4FF" transform="matrix(1.00, 0.00, -0.00, -1.00, 339.2, 416.0)">m</text><text xml:space="preserve" font-family="FiraMono-Bold" font-weight="bold" font-size="36.0" fill="#1EA4FF" transform="matrix(1.00, 0.00, -0.00, -1.00, 360.8, 416.0)">g</text><text xml:space="preserve" font-family="FiraMono-Regular" font-size="36.0" fill="#000000" transform="matrix(1.00, 0.00, -0.00, -1.00, 382.4, 416.0)"> </text><text xml:space="preserve" font-family="FiraMono-Regular" font-size="36.0" fill="#1EA4FF" transform="matrix(1.00, 0.00, -0.00, -1.00, 404.0, 416.0)">s</text><text xml:space="preserve" font-family="FiraMono-Regular" font-size="36.0" fill="#1EA4FF" transform="matrix(1.00, 0.00, -0.00, -1.00, 425.6, 416.0)">r</text><text xml:space="preserve" font-family="FiraMono-Regular" font-size="36.0" fill="#1EA4FF" transform="matrix(1.00, 0.00, -0.00, -1.00, 447.2, 416.0)">c</text><text xml:space="preserve" font-family="FiraMono-Regular" font-size="36.0" fill="#000000" transform="matrix(1.00, 0.00, -0.00, -1.00, 468.8, 416.0)">=</text><text xml:space="preserve" font-family="FiraMono-Regular" font-size="36.0" fill="#B96800" transform="matrix(1.00, 0.00, -0.00, -1.00, 490.4, 416.0)">"</text><text xml:space="preserve" font-family="FiraMono-Regular" font-size="36.0" fill="#B96800" transform="matrix(1.00, 0.00, -0.00, -1.00, 512.0, 416.0)">c</text><text xml:space="preserve" font-family="FiraMono-Regular" font-size="36.0" fill="#B96800" transform="matrix(1.00, 0.00, -0.00, -1.00, 533.6, 416.0)">a</text><text xml:space="preserve" font-family="FiraMono-Regular" font-size="36.0" fill="#B96800" transform="matrix(1.00, 0.00, -0.00, -1.00, 555.2, 416.0)">t</text><text xml:space="preserve" font-family="FiraMono-Regular" font-size="36.0" fill="#B96800" transform="matrix(1.00, 0.00, -0.00, -1.00, 576.8, 416.0)">.</text><text xml:space="preserve" font-family="FiraMono-Regular" font-size="36.0" fill="#B96800" transform="matrix(1.00, 0.00, -0.00, -1.00, 598.4, 416.0)">p</text><text xml:space="preserve" font-family="FiraMono-Regular" font-size="36.0" fill="#B96800" transform="matrix(1.00, 0.00, -0.00, -1.00, 620.0, 416.0)">n</text><text xml:space="preserve" font-family="FiraMono-Regular" font-size="36.0" fill="#B96800" transform="matrix(1.00, 0.00, -0.00, -1.00, 641.6, 416.0)">g</text><text xml:space="preserve" font-family="FiraMono-Regular" font-size="36.0" fill="#B96800" transform="matrix(1.00, 0.00, -0.00, -1.00, 663.2, 416.0)">"</text><text xml:space="preserve" font-family="FiraMono-Regular" font-size="36.0" fill="#000000" transform="matrix(1.00, 0.00, -0.00, -1.00, 684.8, 416.0)">&gt;</text><text xml:space="preserve" font-family="FiraMono-Regular" font-size="36.0" fill="#000000" transform="matrix(1.00, 0.00, -0.00, -1.00, 706.4, 416.0)"> </text></g></svg>