<?xml version="1.0" encoding="UTF-8" standalone="no"?><svg xmlns="http://www.w3.org/2000/svg" xmlns:xlink="http://www.w3.org/1999/xlink" clip-rule="evenodd" stroke-miterlimit="4.00" viewBox="0 0 1024 768"><desc>SVG generated by Keynote</desc><defs></defs><g transform="matrix(1.00, 0.00, -0.00, -1.00, 0.0, 768.0)"><path d="M 0.0 768.0 L 1024.0 768.0 L 1024.0 0.0 L 0.0 0.0 Z M 0.0 768.0 " fill="#FEFFFF"></path><text xml:space="preserve" font-family="AvenirNext-DemiBold" font-weight="bold" font-size="80.0" fill="#000000" transform="matrix(1.00, 0.00, -0.00, -1.00, 379.0, 622.0)">G</text><text xml:space="preserve" font-family="AvenirNext-DemiBold" font-weight="bold" font-size="80.0" fill="#000000" transform="matrix(1.00, 0.00, -0.00, -1.00, 440.8, 622.0)">i</text><text xml:space="preserve" font-family="AvenirNext-DemiBold" font-weight="bold" font-size="80.0" fill="#000000" transform="matrix(1.00, 0.00, -0.00, -1.00, 462.3, 622.0)">t</text><text xml:space="preserve" font-family="AvenirNext-DemiBold" font-weight="bold" font-size="80.0" fill="#000000" transform="matrix(1.00, 0.00, -0.00, -1.00, 489.5, 622.0)">H</text><text xml:space="preserve" font-family="AvenirNext-DemiBold" font-weight="bold" font-size="80.0" fill="#000000" transform="matrix(1.00, 0.00, -0.00, -1.00, 548.6, 622.0)">u</text><text xml:space="preserve" font-family="AvenirNext-DemiBold" font-weight="bold" font-size="80.0" fill="#000000" transform="matrix(1.00, 0.00, -0.00, -1.00, 595.2, 622.0)">b</text><text xml:space="preserve" font-family="HelveticaNeueLTPro-Lt" font-size="27.0" fill="#000000" transform="matrix(1.00, 0.00, -0.00, -1.00, 79.0, 522.5)">•</text><text xml:space="preserve" font-family="HelveticaNeueLTPro-Lt" font-size="36.0" fill="#000000" transform="matrix(1.00, 0.00, -0.00, -1.00, 114.0, 520.0)">I</text><text xml:space="preserve" font-family="HelveticaNeueLTPro-Lt" font-size="36.0" fill="#000000" transform="matrix(1.00, 0.00, -0.00, -1.00, 122.0, 520.0)">n</text><text xml:space="preserve" font-family="HelveticaNeueLTPro-Lt" font-size="36.0" fill="#000000" transform="matrix(1.00, 0.00, -0.00, -1.00, 141.3, 520.0)">c</text><text xml:space="preserve" font-family="HelveticaNeueLTPro-Lt" font-size="36.0" fill="#000000" transform="matrix(1.00, 0.00, -0.00, -1.00, 160.0, 520.0)">l</text><text xml:space="preserve" font-family="HelveticaNeueLTPro-Lt" font-size="36.0" fill="#000000" transform="matrix(1.00, 0.00, -0.00, -1.00, 166.7, 520.0)">u</text><text xml:space="preserve" font-family="HelveticaNeueLTPro-Lt" font-size="36.0" fill="#000000" transform="matrix(1.00, 0.00, -0.00, -1.00, 186.0, 520.0)">d</text><text xml:space="preserve" font-family="HelveticaNeueLTPro-Lt" font-size="36.0" fill="#000000" transform="matrix(1.00, 0.00, -0.00, -1.00, 206.7, 520.0)">e</text><text xml:space="preserve" font-family="HelveticaNeueLTPro-Lt" font-size="36.0" fill="#000000" transform="matrix(1.00, 0.00, -0.00, -1.00, 225.3, 520.0)">s</text><text xml:space="preserve" font-family="HelveticaNeueLTPro-Lt" font-size="36.0" fill="#000000" transform="matrix(1.00, 0.00, -0.00, -1.00, 242.7, 520.0)"> </text><text xml:space="preserve" font-family="HelveticaNeueLTPro-Lt" font-size="36.0" fill="#000000" transform="matrix(1.00, 0.00, -0.00, -1.00, 252.7, 520.0)">f</text><text xml:space="preserve" font-family="HelveticaNeueLTPro-Lt" font-size="36.0" fill="#000000" transform="matrix(1.00, 0.00, -0.00, -1.00, 262.0, 520.0)">e</text><text xml:space="preserve" font-family="HelveticaNeueLTPro-Lt" font-size="36.0" fill="#000000" transform="matrix(1.00, 0.00, -0.00, -1.00, 280.7, 520.0)">a</text><text xml:space="preserve" font-family="HelveticaNeueLTPro-Lt" font-size="36.0" fill="#000000" transform="matrix(1.00, 0.00, -0.00, -1.00, 299.4, 520.0)">t</text><text xml:space="preserve" font-family="HelveticaNeueLTPro-Lt" font-size="36.0" fill="#000000" transform="matrix(1.00, 0.00, -0.00, -1.00, 310.0, 520.0)">u</text><text xml:space="preserve" font-family="HelveticaNeueLTPro-Lt" font-size="36.0" fill="#000000" transform="matrix(1.00, 0.00, -0.00, -1.00, 329.4, 520.0)">r</text><text xml:space="preserve" font-family="HelveticaNeueLTPro-Lt" font-size="36.0" fill="#000000" transform="matrix(1.00, 0.00, -0.00, -1.00, 340.0, 520.0)">e</text><text xml:space="preserve" font-family="HelveticaNeueLTPro-Lt" font-size="36.0" fill="#000000" transform="matrix(1.00, 0.00, -0.00, -1.00, 358.7, 520.0)">s</text><text xml:space="preserve" font-family="HelveticaNeueLTPro-Lt" font-size="36.0" fill="#000000" transform="matrix(1.00, 0.00, -0.00, -1.00, 376.0, 520.0)"> </text><text xml:space="preserve" font-family="HelveticaNeueLTPro-Lt" font-size="36.0" fill="#000000" transform="matrix(1.00, 0.00, -0.00, -1.00, 386.1, 520.0)">o</text><text xml:space="preserve" font-family="HelveticaNeueLTPro-Lt" font-size="36.0" fill="#000000" transform="matrix(1.00, 0.00, -0.00, -1.00, 406.1, 520.0)">n</text><text xml:space="preserve" font-family="HelveticaNeueLTPro-Lt" font-size="36.0" fill="#000000" transform="matrix(1.00, 0.00, -0.00, -1.00, 425.4, 520.0)"> </text><text xml:space="preserve" font-family="HelveticaNeueLTPro-Lt" font-size="36.0" fill="#000000" transform="matrix(1.00, 0.00, -0.00, -1.00, 435.4, 520.0)">t</text><text xml:space="preserve" font-family="HelveticaNeueLTPro-Lt" font-size="36.0" fill="#000000" transform="matrix(1.00, 0.00, -0.00, -1.00, 446.1, 520.0)">o</text><text xml:space="preserve" font-family="HelveticaNeueLTPro-Lt" font-size="36.0" fill="#000000" transform="matrix(1.00, 0.00, -0.00, -1.00, 466.1, 520.0)">p</text><text xml:space="preserve" font-family="HelveticaNeueLTPro-Lt" font-size="36.0" fill="#000000" transform="matrix(1.00, 0.00, -0.00, -1.00, 486.7, 520.0)"> </text><text xml:space="preserve" font-family="HelveticaNeueLTPro-Lt" font-size="36.0" fill="#000000" transform="matrix(1.00, 0.00, -0.00, -1.00, 496.8, 520.0)">o</text><text xml:space="preserve" font-family="HelveticaNeueLTPro-Lt" font-size="36.0" fill="#000000" transform="matrix(1.00, 0.00, -0.00, -1.00, 516.8, 520.0)">f</text><text xml:space="preserve" font-family="HelveticaNeueLTPro-Lt" font-size="36.0" fill="#000000" transform="matrix(1.00, 0.00, -0.00, -1.00, 526.1, 520.0)"> </text><text xml:space="preserve" font-family="HelveticaNeueLTPro-Lt" font-size="36.0" fill="#000000" transform="matrix(1.00, 0.00, -0.00, -1.00, 536.1, 520.0)">g</text><text xml:space="preserve" font-family="HelveticaNeueLTPro-Lt" font-size="36.0" fill="#000000" transform="matrix(1.00, 0.00, -0.00, -1.00, 556.1, 520.0)">i</text><text xml:space="preserve" font-family="HelveticaNeueLTPro-Lt" font-size="36.0" fill="#000000" transform="matrix(1.00, 0.00, -0.00, -1.00, 562.8, 520.0)">t</text><text xml:space="preserve" font-family="HelveticaNeueLTPro-Lt" font-size="36.0" fill="#000000" transform="matrix(1.00, 0.00, -0.00, -1.00, 573.4, 520.0)">:</text><text xml:space="preserve" font-family="HelveticaNeueLTPro-Lt" font-size="36.0" fill="#000000" transform="matrix(1.00, 0.00, -0.00, -1.00, 583.4, 520.0)"> </text><text xml:space="preserve" font-family="HelveticaNeueLTPro-Lt" font-size="27.0" fill="#000000" transform="matrix(1.00, 0.00, -0.00, -1.00, 114.0, 437.5)">•</text><text xml:space="preserve" font-family="HelveticaNeueLTPro-Lt" font-size="36.0" fill="#000000" transform="matrix(1.00, 0.00, -0.00, -1.00, 149.0, 435.0)">P</text><text xml:space="preserve" font-family="HelveticaNeueLTPro-Lt" font-size="36.0" fill="#000000" transform="matrix(1.00, 0.00, -0.00, -1.00, 171.7, 435.0)">u</text><text xml:space="preserve" font-family="HelveticaNeueLTPro-Lt" font-size="36.0" fill="#000000" transform="matrix(1.00, 0.00, -0.00, -1.00, 191.0, 435.0)">l</text><text xml:space="preserve" font-family="HelveticaNeueLTPro-Lt" font-size="36.0" fill="#000000" transform="matrix(1.00, 0.00, -0.00, -1.00, 197.7, 435.0)">l</text><text xml:space="preserve" font-family="HelveticaNeueLTPro-Lt" font-size="36.0" fill="#000000" transform="matrix(1.00, 0.00, -0.00, -1.00, 204.3, 435.0)"> </text><text xml:space="preserve" font-family="HelveticaNeueLTPro-Lt" font-size="36.0" fill="#000000" transform="matrix(1.00, 0.00, -0.00, -1.00, 214.3, 435.0)">r</text><text xml:space="preserve" font-family="HelveticaNeueLTPro-Lt" font-size="36.0" fill="#000000" transform="matrix(1.00, 0.00, -0.00, -1.00, 225.0, 435.0)">e</text><text xml:space="preserve" font-family="HelveticaNeueLTPro-Lt" font-size="36.0" fill="#000000" transform="matrix(1.00, 0.00, -0.00, -1.00, 243.7, 435.0)">q</text><text xml:space="preserve" font-family="HelveticaNeueLTPro-Lt" font-size="36.0" fill="#000000" transform="matrix(1.00, 0.00, -0.00, -1.00, 264.4, 435.0)">u</text><text xml:space="preserve" font-family="HelveticaNeueLTPro-Lt" font-size="36.0" fill="#000000" transform="matrix(1.00, 0.00, -0.00, -1.00, 283.7, 435.0)">e</text><text xml:space="preserve" font-family="HelveticaNeueLTPro-Lt" font-size="36.0" fill="#000000" transform="matrix(1.00, 0.00, -0.00, -1.00, 302.4, 435.0)">s</text><text xml:space="preserve" font-family="HelveticaNeueLTPro-Lt" font-size="36.0" fill="#000000" transform="matrix(1.00, 0.00, -0.00, -1.00, 319.7, 435.0)">t</text><text xml:space="preserve" font-family="HelveticaNeueLTPro-Lt" font-size="36.0" fill="#000000" transform="matrix(1.00, 0.00, -0.00, -1.00, 330.4, 435.0)">s</text><text xml:space="preserve" font-family="HelveticaNeueLTPro-Lt" font-size="36.0" fill="#000000" transform="matrix(1.00, 0.00, -0.00, -1.00, 347.7, 435.0)"> </text><text xml:space="preserve" font-family="HelveticaNeueLTPro-Lt" font-size="27.0" fill="#000000" transform="matrix(1.00, 0.00, -0.00, -1.00, 114.0, 352.5)">•</text><text xml:space="preserve" font-family="HelveticaNeueLTPro-Lt" font-size="36.0" fill="#000000" transform="matrix(1.00, 0.00, -0.00, -1.00, 149.0, 350.0)">W</text><text xml:space="preserve" font-family="HelveticaNeueLTPro-Lt" font-size="36.0" fill="#000000" transform="matrix(1.00, 0.00, -0.00, -1.00, 182.5, 350.0)">i</text><text xml:space="preserve" font-family="HelveticaNeueLTPro-Lt" font-size="36.0" fill="#000000" transform="matrix(1.00, 0.00, -0.00, -1.00, 189.2, 350.0)">k</text><text xml:space="preserve" font-family="HelveticaNeueLTPro-Lt" font-size="36.0" fill="#000000" transform="matrix(1.00, 0.00, -0.00, -1.00, 207.2, 350.0)">i</text><text xml:space="preserve" font-family="HelveticaNeueLTPro-Lt" font-size="36.0" fill="#000000" transform="matrix(1.00, 0.00, -0.00, -1.00, 213.8, 350.0)"> </text><text xml:space="preserve" font-family="HelveticaNeueLTPro-Lt" font-size="27.0" fill="#000000" transform="matrix(1.00, 0.00, -0.00, -1.00, 114.0, 267.5)">•</text><text xml:space="preserve" font-family="HelveticaNeueLTPro-Lt" font-size="36.0" fill="#000000" transform="matrix(1.00, 0.00, -0.00, -1.00, 149.0, 265.0)">F</text><text xml:space="preserve" font-family="HelveticaNeueLTPro-Lt" font-size="36.0" fill="#000000" transform="matrix(1.00, 0.00, -0.00, -1.00, 168.3, 265.0)">o</text><text xml:space="preserve" font-family="HelveticaNeueLTPro-Lt" font-size="36.0" fill="#000000" transform="matrix(1.00, 0.00, -0.00, -1.00, 188.3, 265.0)">r</text><text xml:space="preserve" font-family="HelveticaNeueLTPro-Lt" font-size="36.0" fill="#000000" transform="matrix(1.00, 0.00, -0.00, -1.00, 199.7, 265.0)">k</text><text xml:space="preserve" font-family="HelveticaNeueLTPro-Lt" font-size="36.0" fill="#000000" transform="matrix(1.00, 0.00, -0.00, -1.00, 217.7, 265.0)">s</text><text xml:space="preserve" font-family="HelveticaNeueLTPro-Lt" font-size="36.0" fill="#000000" transform="matrix(1.00, 0.00, -0.00, -1.00, 235.0, 265.0)"> </text><text xml:space="preserve" font-family="HelveticaNeueLTPro-Lt" font-size="27.0" fill="#000000" transform="matrix(1.00, 0.00, -0.00, -1.00, 114.0, 182.5)">•</text><text xml:space="preserve" font-family="HelveticaNeueLTPro-Lt" font-size="36.0" fill="#000000" transform="matrix(1.00, 0.00, -0.00, -1.00, 149.0, 180.0)">“</text><text xml:space="preserve" font-family="HelveticaNeueLTPro-Lt" font-size="36.0" fill="#000000" transform="matrix(1.00, 0.00, -0.00, -1.00, 162.3, 180.0)">s</text><text xml:space="preserve" font-family="HelveticaNeueLTPro-Lt" font-size="36.0" fill="#000000" transform="matrix(1.00, 0.00, -0.00, -1.00, 179.6, 180.0)">o</text><text xml:space="preserve" font-family="HelveticaNeueLTPro-Lt" font-size="36.0" fill="#000000" transform="matrix(1.00, 0.00, -0.00, -1.00, 199.7, 180.0)">c</text><text xml:space="preserve" font-family="HelveticaNeueLTPro-Lt" font-size="36.0" fill="#000000" transform="matrix(1.00, 0.00, -0.00, -1.00, 218.3, 180.0)">i</text><text xml:space="preserve" font-family="HelveticaNeueLTPro-Lt" font-size="36.0" fill="#000000" transform="matrix(1.00, 0.00, -0.00, -1.00, 225.0, 180.0)">a</text><text xml:space="preserve" font-family="HelveticaNeueLTPro-Lt" font-size="36.0" fill="#000000" transform="matrix(1.00, 0.00, -0.00, -1.00, 243.7, 180.0)">l</text><text xml:space="preserve" font-family="HelveticaNeueLTPro-Lt" font-size="36.0" fill="#000000" transform="matrix(1.00, 0.00, -0.00, -1.00, 250.3, 180.0)"> </text><text xml:space="preserve" font-family="HelveticaNeueLTPro-Lt" font-size="36.0" fill="#000000" transform="matrix(1.00, 0.00, -0.00, -1.00, 260.3, 180.0)">a</text><text xml:space="preserve" font-family="HelveticaNeueLTPro-Lt" font-size="36.0" fill="#000000" transform="matrix(1.00, 0.00, -0.00, -1.00, 279.0, 180.0)">s</text><text xml:space="preserve" font-family="HelveticaNeueLTPro-Lt" font-size="36.0" fill="#000000" transform="matrix(1.00, 0.00, -0.00, -1.00, 296.3, 180.0)">p</text><text xml:space="preserve" font-family="HelveticaNeueLTPro-Lt" font-size="36.0" fill="#000000" transform="matrix(1.00, 0.00, -0.00, -1.00, 317.0, 180.0)">e</text><text xml:space="preserve" font-family="HelveticaNeueLTPro-Lt" font-size="36.0" fill="#000000" transform="matrix(1.00, 0.00, -0.00, -1.00, 335.7, 180.0)">c</text><text xml:space="preserve" font-family="HelveticaNeueLTPro-Lt" font-size="36.0" fill="#000000" transform="matrix(1.00, 0.00, -0.00, -1.00, 354.4, 180.0)">t</text><text xml:space="preserve" font-family="HelveticaNeueLTPro-Lt" font-size="36.0" fill="#000000" transform="matrix(1.00, 0.00, -0.00, -1.00, 365.0, 180.0)">”</text><text xml:space="preserve" font-family="HelveticaNeueLTPro-Lt" font-size="36.0" fill="#000000" transform="matrix(1.00, 0.00, -0.00, -1.00, 378.4, 180.0)"> </text><text xml:space="preserve" font-family="HelveticaNeueLTPro-Lt" font-size="27.0" fill="#000000" transform="matrix(1.00, 0.00, -0.00, -1.00, 79.0, 97.5)">•</text><text xml:space="preserve" font-family="HelveticaNeueLTPro-Lt" font-size="36.0" fill="#000000" transform="matrix(1.00, 0.00, -0.00, -1.00, 114.0, 95.0)">W</text><text xml:space="preserve" font-family="HelveticaNeueLTPro-Lt" font-size="36.0" fill="#000000" transform="matrix(1.00, 0.00, -0.00, -1.00, 146.0, 95.0)">e</text><text xml:space="preserve" font-family="HelveticaNeueLTPro-Lt" font-size="36.0" fill="#000000" transform="matrix(1.00, 0.00, -0.00, -1.00, 164.7, 95.0)">b</text><text xml:space="preserve" font-family="HelveticaNeueLTPro-Lt" font-size="36.0" fill="#000000" transform="matrix(1.00, 0.00, -0.00, -1.00, 185.4, 95.0)">-</text><text xml:space="preserve" font-family="HelveticaNeueLTPro-Lt" font-size="36.0" fill="#000000" transform="matrix(1.00, 0.00, -0.00, -1.00, 198.7, 95.0)">b</text><text xml:space="preserve" font-family="HelveticaNeueLTPro-Lt" font-size="36.0" fill="#000000" transform="matrix(1.00, 0.00, -0.00, -1.00, 219.3, 95.0)">a</text><text xml:space="preserve" font-family="HelveticaNeueLTPro-Lt" font-size="36.0" fill="#000000" transform="matrix(1.00, 0.00, -0.00, -1.00, 238.0, 95.0)">s</text><text xml:space="preserve" font-family="HelveticaNeueLTPro-Lt" font-size="36.0" fill="#000000" transform="matrix(1.00, 0.00, -0.00, -1.00, 255.3, 95.0)">e</text><text xml:space="preserve" font-family="HelveticaNeueLTPro-Lt" font-size="36.0" fill="#000000" transform="matrix(1.00, 0.00, -0.00, -1.00, 274.0, 95.0)">d</text><text xml:space="preserve" font-family="HelveticaNeueLTPro-Lt" font-size="36.0" fill="#000000" transform="matrix(1.00, 0.00, -0.00, -1.00, 294.7, 95.0)"> </text><text xml:space="preserve" font-family="HelveticaNeueLTPro-Lt" font-size="36.0" fill="#000000" transform="matrix(1.00, 0.00, -0.00, -1.00, 304.7, 95.0)">+</text><text xml:space="preserve" font-family="HelveticaNeueLTPro-Lt" font-size="36.0" fill="#000000" transform="matrix(1.00, 0.00, -0.00, -1.00, 326.3, 95.0)"> </text><text xml:space="preserve" font-family="HelveticaNeueLTPro-Lt" font-size="36.0" fill="#000000" transform="matrix(1.00, 0.00, -0.00, -1.00, 336.3, 95.0)">G</text><text xml:space="preserve" font-family="HelveticaNeueLTPro-Lt" font-size="36.0" fill="#000000" transform="matrix(1.00, 0.00, -0.00, -1.00, 363.0, 95.0)">U</text><text xml:space="preserve" font-family="HelveticaNeueLTPro-Lt" font-size="36.0" fill="#000000" transform="matrix(1.00, 0.00, -0.00, -1.00, 387.6, 95.0)">I</text><text xml:space="preserve" font-family="HelveticaNeueLTPro-Lt" font-size="36.0" fill="#000000" transform="matrix(1.00, 0.00, -0.00, -1.00, 395.6, 95.0)"> </text><text xml:space="preserve" font-family="HelveticaNeueLTPro-Lt" font-size="36.0" fill="#000000" transform="matrix(1.00, 0.00, -0.00, -1.00, 405.6, 95.0)">d</text><text xml:space="preserve" font-family="HelveticaNeueLTPro-Lt" font-size="36.0" fill="#000000" transform="matrix(1.00, 0.00, -0.00, -1.00, 426.3, 95.0)">e</text><text xml:space="preserve" font-family="HelveticaNeueLTPro-Lt" font-size="36.0" fill="#000000" transform="matrix(1.00, 0.00, -0.00, -1.00, 445.0, 95.0)">s</text><text xml:space="preserve" font-family="HelveticaNeueLTPro-Lt" font-size="36.0" fill="#000000" transform="matrix(1.00, 0.00, -0.00, -1.00, 462.3, 95.0)">k</text><text xml:space="preserve" font-family="HelveticaNeueLTPro-Lt" font-size="36.0" fill="#000000" transform="matrix(1.00, 0.00, -0.00, -1.00, 480.3, 95.0)">t</text><text xml:space="preserve" font-family="HelveticaNeueLTPro-Lt" font-size="36.0" fill="#000000" transform="matrix(1.00, 0.00, -0.00, -1.00, 491.0, 95.0)">o</text><text xml:space="preserve" font-family="HelveticaNeueLTPro-Lt" font-size="36.0" fill="#000000" transform="matrix(1.00, 0.00, -0.00, -1.00, 511.0, 95.0)">p</text><text xml:space="preserve" font-family="HelveticaNeueLTPro-Lt" font-size="36.0" fill="#000000" transform="matrix(1.00, 0.00, -0.00, -1.00, 531.6, 95.0)"> </text><text xml:space="preserve" font-family="HelveticaNeueLTPro-Lt" font-size="36.0" fill="#000000" transform="matrix(1.00, 0.00, -0.00, -1.00, 541.6, 95.0)">s</text><text xml:space="preserve" font-family="HelveticaNeueLTPro-Lt" font-size="36.0" fill="#000000" transform="matrix(1.00, 0.00, -0.00, -1.00, 559.0, 95.0)">o</text><text xml:space="preserve" font-family="HelveticaNeueLTPro-Lt" font-size="36.0" fill="#000000" transform="matrix(1.00, 0.00, -0.00, -1.00, 579.0, 95.0)">f</text><text xml:space="preserve" font-family="HelveticaNeueLTPro-Lt" font-size="36.0" fill="#000000" transform="matrix(1.00, 0.00, -0.00, -1.00, 588.3, 95.0)">t</text><text xml:space="preserve" font-family="HelveticaNeueLTPro-Lt" font-size="36.0" fill="#000000" transform="matrix(1.00, 0.00, -0.00, -1.00, 599.0, 95.0)">w</text><text xml:space="preserve" font-family="HelveticaNeueLTPro-Lt" font-size="36.0" fill="#000000" transform="matrix(1.00, 0.00, -0.00, -1.00, 625.6, 95.0)">a</text><text xml:space="preserve" font-family="HelveticaNeueLTPro-Lt" font-size="36.0" fill="#000000" transform="matrix(1.00, 0.00, -0.00, -1.00, 644.3, 95.0)">r</text><text xml:space="preserve" font-family="HelveticaNeueLTPro-Lt" font-size="36.0" fill="#000000" transform="matrix(1.00, 0.00, -0.00, -1.00, 655.0, 95.0)">e</text></g></svg>