<?xml version="1.0" encoding="UTF-8" standalone="no"?><svg xmlns="http://www.w3.org/2000/svg" xmlns:xlink="http://www.w3.org/1999/xlink" clip-rule="evenodd" stroke-miterlimit="4.00" viewBox="0 0 1024 768"><desc>SVG generated by Keynote</desc><defs></defs><g transform="matrix(1.00, 0.00, -0.00, -1.00, 0.0, 768.0)"><path d="M 0.0 768.0 L 1024.0 768.0 L 1024.0 0.0 L 0.0 0.0 Z M 0.0 768.0 " fill="#FEFFFF"></path><text xml:space="preserve" font-family="AvenirNext-DemiBold" font-weight="bold" font-size="80.0" fill="#000000" transform="matrix(1.00, 0.00, -0.00, -1.00, 311.0, 622.0)">C</text><text xml:space="preserve" font-family="AvenirNext-DemiBold" font-weight="bold" font-size="80.0" fill="#000000" transform="matrix(1.00, 0.00, -0.00, -1.00, 365.7, 622.0)">o</text><text xml:space="preserve" font-family="AvenirNext-DemiBold" font-weight="bold" font-size="80.0" fill="#000000" transform="matrix(1.00, 0.00, -0.00, -1.00, 414.5, 622.0)">m</text><text xml:space="preserve" font-family="AvenirNext-DemiBold" font-weight="bold" font-size="80.0" fill="#000000" transform="matrix(1.00, 0.00, -0.00, -1.00, 485.7, 622.0)">m</text><text xml:space="preserve" font-family="AvenirNext-DemiBold" font-weight="bold" font-size="80.0" fill="#000000" transform="matrix(1.00, 0.00, -0.00, -1.00, 556.9, 622.0)">e</text><text xml:space="preserve" font-family="AvenirNext-DemiBold" font-weight="bold" font-size="80.0" fill="#000000" transform="matrix(1.00, 0.00, -0.00, -1.00, 602.8, 622.0)">n</text><text xml:space="preserve" font-family="AvenirNext-DemiBold" font-weight="bold" font-size="80.0" fill="#000000" transform="matrix(1.00, 0.00, -0.00, -1.00, 649.4, 622.0)">t</text><text xml:space="preserve" font-family="AvenirNext-DemiBold" font-weight="bold" font-size="80.0" fill="#000000" transform="matrix(1.00, 0.00, -0.00, -1.00, 676.6, 622.0)">s</text><text xml:space="preserve" font-family="HelveticaNeueLTPro-Lt" font-size="27.0" fill="#000000" transform="matrix(1.00, 0.00, -0.00, -1.00, 79.0, 535.5)">•</text><text xml:space="preserve" font-family="HelveticaNeueLTPro-Lt" font-size="36.0" fill="#000000" transform="matrix(1.00, 0.00, -0.00, -1.00, 114.0, 533.0)">H</text><text xml:space="preserve" font-family="HelveticaNeueLTPro-Lt" font-size="36.0" fill="#000000" transform="matrix(1.00, 0.00, -0.00, -1.00, 139.3, 533.0)">T</text><text xml:space="preserve" font-family="HelveticaNeueLTPro-Lt" font-size="36.0" fill="#000000" transform="matrix(1.00, 0.00, -0.00, -1.00, 159.4, 533.0)">M</text><text xml:space="preserve" font-family="HelveticaNeueLTPro-Lt" font-size="36.0" fill="#000000" transform="matrix(1.00, 0.00, -0.00, -1.00, 189.3, 533.0)">L</text><text xml:space="preserve" font-family="HelveticaNeueLTPro-Lt" font-size="36.0" fill="#000000" transform="matrix(1.00, 0.00, -0.00, -1.00, 208.7, 533.0)"> </text><text xml:space="preserve" font-family="HelveticaNeueLTPro-Lt" font-size="27.0" fill="#000000" transform="matrix(1.00, 0.00, -0.00, -1.00, 79.0, 280.5)">•</text><text xml:space="preserve" font-family="HelveticaNeueLTPro-Lt" font-size="36.0" fill="#000000" transform="matrix(1.00, 0.00, -0.00, -1.00, 114.0, 278.0)">C</text><text xml:space="preserve" font-family="HelveticaNeueLTPro-Lt" font-size="36.0" fill="#000000" transform="matrix(1.00, 0.00, -0.00, -1.00, 139.3, 278.0)">S</text><text xml:space="preserve" font-family="HelveticaNeueLTPro-Lt" font-size="36.0" fill="#000000" transform="matrix(1.00, 0.00, -0.00, -1.00, 162.0, 278.0)">S</text><text xml:space="preserve" font-family="FiraMono-Regular" font-size="36.0" fill="#B8B8B8" transform="matrix(1.00, 0.00, -0.00, -1.00, 134.0, 423.0)">&lt;</text><text xml:space="preserve" font-family="FiraMono-Regular" font-size="36.0" fill="#B8B8B8" transform="matrix(1.00, 0.00, -0.00, -1.00, 155.6, 423.0)">!</text><text xml:space="preserve" font-family="FiraMono-Regular" font-size="36.0" fill="#B8B8B8" transform="matrix(1.00, 0.00, -0.00, -1.00, 177.2, 423.0)">-</text><text xml:space="preserve" font-family="FiraMono-Regular" font-size="36.0" fill="#B8B8B8" transform="matrix(1.00, 0.00, -0.00, -1.00, 198.8, 423.0)">-</text><text xml:space="preserve" font-family="FiraMono-Regular" font-size="36.0" fill="#B8B8B8" transform="matrix(1.00, 0.00, -0.00, -1.00, 220.4, 423.0)"> </text><text xml:space="preserve" font-family="FiraMono-Regular" font-size="36.0" fill="#B8B8B8" transform="matrix(1.00, 0.00, -0.00, -1.00, 242.0, 423.0)">t</text><text xml:space="preserve" font-family="FiraMono-Regular" font-size="36.0" fill="#B8B8B8" transform="matrix(1.00, 0.00, -0.00, -1.00, 263.6, 423.0)">h</text><text xml:space="preserve" font-family="FiraMono-Regular" font-size="36.0" fill="#B8B8B8" transform="matrix(1.00, 0.00, -0.00, -1.00, 285.2, 423.0)">i</text><text xml:space="preserve" font-family="FiraMono-Regular" font-size="36.0" fill="#B8B8B8" transform="matrix(1.00, 0.00, -0.00, -1.00, 306.8, 423.0)">s</text><text xml:space="preserve" font-family="FiraMono-Regular" font-size="36.0" fill="#B8B8B8" transform="matrix(1.00, 0.00, -0.00, -1.00, 328.4, 423.0)"> </text><text xml:space="preserve" font-family="FiraMono-Regular" font-size="36.0" fill="#B8B8B8" transform="matrix(1.00, 0.00, -0.00, -1.00, 350.0, 423.0)">i</text><text xml:space="preserve" font-family="FiraMono-Regular" font-size="36.0" fill="#B8B8B8" transform="matrix(1.00, 0.00, -0.00, -1.00, 371.6, 423.0)">s</text><text xml:space="preserve" font-family="FiraMono-Regular" font-size="36.0" fill="#B8B8B8" transform="matrix(1.00, 0.00, -0.00, -1.00, 393.2, 423.0)"> </text><text xml:space="preserve" font-family="FiraMono-Regular" font-size="36.0" fill="#B8B8B8" transform="matrix(1.00, 0.00, -0.00, -1.00, 414.8, 423.0)">a</text><text xml:space="preserve" font-family="FiraMono-Regular" font-size="36.0" fill="#B8B8B8" transform="matrix(1.00, 0.00, -0.00, -1.00, 436.4, 423.0)"> </text><text xml:space="preserve" font-family="FiraMono-Regular" font-size="36.0" fill="#B8B8B8" transform="matrix(1.00, 0.00, -0.00, -1.00, 458.0, 423.0)">c</text><text xml:space="preserve" font-family="FiraMono-Regular" font-size="36.0" fill="#B8B8B8" transform="matrix(1.00, 0.00, -0.00, -1.00, 479.6, 423.0)">o</text><text xml:space="preserve" font-family="FiraMono-Regular" font-size="36.0" fill="#B8B8B8" transform="matrix(1.00, 0.00, -0.00, -1.00, 501.2, 423.0)">m</text><text xml:space="preserve" font-family="FiraMono-Regular" font-size="36.0" fill="#B8B8B8" transform="matrix(1.00, 0.00, -0.00, -1.00, 522.8, 423.0)">m</text><text xml:space="preserve" font-family="FiraMono-Regular" font-size="36.0" fill="#B8B8B8" transform="matrix(1.00, 0.00, -0.00, -1.00, 544.4, 423.0)">e</text><text xml:space="preserve" font-family="FiraMono-Regular" font-size="36.0" fill="#B8B8B8" transform="matrix(1.00, 0.00, -0.00, -1.00, 566.0, 423.0)">n</text><text xml:space="preserve" font-family="FiraMono-Regular" font-size="36.0" fill="#B8B8B8" transform="matrix(1.00, 0.00, -0.00, -1.00, 587.6, 423.0)">t</text><text xml:space="preserve" font-family="FiraMono-Regular" font-size="36.0" fill="#B8B8B8" transform="matrix(1.00, 0.00, -0.00, -1.00, 609.2, 423.0)"> </text><text xml:space="preserve" font-family="FiraMono-Regular" font-size="36.0" fill="#B8B8B8" transform="matrix(1.00, 0.00, -0.00, -1.00, 630.8, 423.0)">f</text><text xml:space="preserve" font-family="FiraMono-Regular" font-size="36.0" fill="#B8B8B8" transform="matrix(1.00, 0.00, -0.00, -1.00, 652.4, 423.0)">o</text><text xml:space="preserve" font-family="FiraMono-Regular" font-size="36.0" fill="#B8B8B8" transform="matrix(1.00, 0.00, -0.00, -1.00, 674.0, 423.0)">r</text><text xml:space="preserve" font-family="FiraMono-Regular" font-size="36.0" fill="#B8B8B8" transform="matrix(1.00, 0.00, -0.00, -1.00, 695.6, 423.0)"> </text><text xml:space="preserve" font-family="FiraMono-Regular" font-size="36.0" fill="#B8B8B8" transform="matrix(1.00, 0.00, -0.00, -1.00, 717.2, 423.0)">y</text><text xml:space="preserve" font-family="FiraMono-Regular" font-size="36.0" fill="#B8B8B8" transform="matrix(1.00, 0.00, -0.00, -1.00, 738.8, 423.0)">o</text><text xml:space="preserve" font-family="FiraMono-Regular" font-size="36.0" fill="#B8B8B8" transform="matrix(1.00, 0.00, -0.00, -1.00, 760.4, 423.0)">u</text><text xml:space="preserve" font-family="FiraMono-Regular" font-size="36.0" fill="#B8B8B8" transform="matrix(1.00, 0.00, -0.00, -1.00, 782.0, 423.0)"> </text><text xml:space="preserve" font-family="FiraMono-Regular" font-size="36.0" fill="#B8B8B8" transform="matrix(1.00, 0.00, -0.00, -1.00, 803.6, 423.0)">-</text><text xml:space="preserve" font-family="FiraMono-Regular" font-size="36.0" fill="#B8B8B8" transform="matrix(1.00, 0.00, -0.00, -1.00, 825.2, 423.0)">-</text><text xml:space="preserve" font-family="FiraMono-Regular" font-size="36.0" fill="#B8B8B8" transform="matrix(1.00, 0.00, -0.00, -1.00, 846.8, 423.0)">&gt;</text><text xml:space="preserve" font-family="FiraMono-Regular" font-size="36.0" fill="#000000" transform="matrix(1.00, 0.00, -0.00, -1.00, 868.4, 423.0)"> </text><text xml:space="preserve" font-family="FiraMono-Regular" font-size="36.0" fill="#B8B8B8" transform="matrix(1.00, 0.00, -0.00, -1.00, 187.0, 168.0)">/</text><text xml:space="preserve" font-family="FiraMono-Regular" font-size="36.0" fill="#B8B8B8" transform="matrix(1.00, 0.00, -0.00, -1.00, 208.6, 168.0)">*</text><text xml:space="preserve" font-family="FiraMono-Regular" font-size="36.0" fill="#B8B8B8" transform="matrix(1.00, 0.00, -0.00, -1.00, 230.2, 168.0)"> </text><text xml:space="preserve" font-family="FiraMono-Regular" font-size="36.0" fill="#B8B8B8" transform="matrix(1.00, 0.00, -0.00, -1.00, 251.8, 168.0)">S</text><text xml:space="preserve" font-family="FiraMono-Regular" font-size="36.0" fill="#B8B8B8" transform="matrix(1.00, 0.00, -0.00, -1.00, 273.4, 168.0)">o</text><text xml:space="preserve" font-family="FiraMono-Regular" font-size="36.0" fill="#B8B8B8" transform="matrix(1.00, 0.00, -0.00, -1.00, 295.0, 168.0)">m</text><text xml:space="preserve" font-family="FiraMono-Regular" font-size="36.0" fill="#B8B8B8" transform="matrix(1.00, 0.00, -0.00, -1.00, 316.6, 168.0)">e</text><text xml:space="preserve" font-family="FiraMono-Regular" font-size="36.0" fill="#B8B8B8" transform="matrix(1.00, 0.00, -0.00, -1.00, 338.2, 168.0)"> </text><text xml:space="preserve" font-family="FiraMono-Regular" font-size="36.0" fill="#B8B8B8" transform="matrix(1.00, 0.00, -0.00, -1.00, 359.8, 168.0)">f</text><text xml:space="preserve" font-family="FiraMono-Regular" font-size="36.0" fill="#B8B8B8" transform="matrix(1.00, 0.00, -0.00, -1.00, 381.4, 168.0)">i</text><text xml:space="preserve" font-family="FiraMono-Regular" font-size="36.0" fill="#B8B8B8" transform="matrix(1.00, 0.00, -0.00, -1.00, 403.0, 168.0)">n</text><text xml:space="preserve" font-family="FiraMono-Regular" font-size="36.0" fill="#B8B8B8" transform="matrix(1.00, 0.00, -0.00, -1.00, 424.6, 168.0)">e</text><text xml:space="preserve" font-family="FiraMono-Regular" font-size="36.0" fill="#B8B8B8" transform="matrix(1.00, 0.00, -0.00, -1.00, 446.2, 168.0)"> </text><text xml:space="preserve" font-family="FiraMono-Regular" font-size="36.0" fill="#B8B8B8" transform="matrix(1.00, 0.00, -0.00, -1.00, 467.8, 168.0)">s</text><text xml:space="preserve" font-family="FiraMono-Regular" font-size="36.0" fill="#B8B8B8" transform="matrix(1.00, 0.00, -0.00, -1.00, 489.4, 168.0)">t</text><text xml:space="preserve" font-family="FiraMono-Regular" font-size="36.0" fill="#B8B8B8" transform="matrix(1.00, 0.00, -0.00, -1.00, 511.0, 168.0)">y</text><text xml:space="preserve" font-family="FiraMono-Regular" font-size="36.0" fill="#B8B8B8" transform="matrix(1.00, 0.00, -0.00, -1.00, 532.6, 168.0)">l</text><text xml:space="preserve" font-family="FiraMono-Regular" font-size="36.0" fill="#B8B8B8" transform="matrix(1.00, 0.00, -0.00, -1.00, 554.2, 168.0)">e</text><text xml:space="preserve" font-family="FiraMono-Regular" font-size="36.0" fill="#B8B8B8" transform="matrix(1.00, 0.00, -0.00, -1.00, 575.8, 168.0)">s</text><text xml:space="preserve" font-family="FiraMono-Regular" font-size="36.0" fill="#B8B8B8" transform="matrix(1.00, 0.00, -0.00, -1.00, 597.4, 168.0)"> </text><text xml:space="preserve" font-family="FiraMono-Regular" font-size="36.0" fill="#B8B8B8" transform="matrix(1.00, 0.00, -0.00, -1.00, 619.0, 168.0)">f</text><text xml:space="preserve" font-family="FiraMono-Regular" font-size="36.0" fill="#B8B8B8" transform="matrix(1.00, 0.00, -0.00, -1.00, 640.6, 168.0)">o</text><text xml:space="preserve" font-family="FiraMono-Regular" font-size="36.0" fill="#B8B8B8" transform="matrix(1.00, 0.00, -0.00, -1.00, 662.2, 168.0)">l</text><text xml:space="preserve" font-family="FiraMono-Regular" font-size="36.0" fill="#B8B8B8" transform="matrix(1.00, 0.00, -0.00, -1.00, 683.8, 168.0)">l</text><text xml:space="preserve" font-family="FiraMono-Regular" font-size="36.0" fill="#B8B8B8" transform="matrix(1.00, 0.00, -0.00, -1.00, 705.4, 168.0)">o</text><text xml:space="preserve" font-family="FiraMono-Regular" font-size="36.0" fill="#B8B8B8" transform="matrix(1.00, 0.00, -0.00, -1.00, 727.0, 168.0)">w</text><text xml:space="preserve" font-family="FiraMono-Regular" font-size="36.0" fill="#B8B8B8" transform="matrix(1.00, 0.00, -0.00, -1.00, 748.6, 168.0)"> </text><text xml:space="preserve" font-family="FiraMono-Regular" font-size="36.0" fill="#B8B8B8" transform="matrix(1.00, 0.00, -0.00, -1.00, 770.2, 168.0)">*</text><text xml:space="preserve" font-family="FiraMono-Regular" font-size="36.0" fill="#B8B8B8" transform="matrix(1.00, 0.00, -0.00, -1.00, 791.8, 168.0)">/</text><text xml:space="preserve" font-family="FiraMono-Regular" font-size="36.0" fill="#000000" transform="matrix(1.00, 0.00, -0.00, -1.00, 813.4, 168.0)"> </text></g></svg>