<?xml version="1.0" encoding="UTF-8" standalone="no"?><svg xmlns="http://www.w3.org/2000/svg" xmlns:xlink="http://www.w3.org/1999/xlink" clip-rule="evenodd" stroke-miterlimit="4.00" viewBox="0 0 1024 768"><desc>SVG generated by Keynote</desc><defs></defs><g transform="matrix(1.00, 0.00, -0.00, -1.00, 0.0, 768.0)"><path d="M 0.0 768.0 L 1024.0 768.0 L 1024.0 0.0 L 0.0 0.0 Z M 0.0 768.0 " fill="#FEFFFF"></path><text xml:space="preserve" font-family="AvenirNext-DemiBold" font-weight="bold" font-size="80.0" fill="#000000" transform="matrix(1.00, 0.00, -0.00, -1.00, 400.0, 622.0)">L</text><text xml:space="preserve" font-family="AvenirNext-DemiBold" font-weight="bold" font-size="80.0" fill="#000000" transform="matrix(1.00, 0.00, -0.00, -1.00, 439.4, 622.0)">o</text><text xml:space="preserve" font-family="AvenirNext-DemiBold" font-weight="bold" font-size="80.0" fill="#000000" transform="matrix(1.00, 0.00, -0.00, -1.00, 488.2, 622.0)">o</text><text xml:space="preserve" font-family="AvenirNext-DemiBold" font-weight="bold" font-size="80.0" fill="#000000" transform="matrix(1.00, 0.00, -0.00, -1.00, 537.0, 622.0)">p</text><text xml:space="preserve" font-family="AvenirNext-DemiBold" font-weight="bold" font-size="80.0" fill="#000000" transform="matrix(1.00, 0.00, -0.00, -1.00, 587.7, 622.0)">s</text><text xml:space="preserve" font-family="FiraMono-Regular" font-size="44.0" fill="#000000" transform="matrix(1.00, 0.00, -0.00, -1.00, 287.0, 361.0)">r</text><text xml:space="preserve" font-family="FiraMono-Regular" font-size="44.0" fill="#000000" transform="matrix(1.00, 0.00, -0.00, -1.00, 313.4, 361.0)">e</text><text xml:space="preserve" font-family="FiraMono-Regular" font-size="44.0" fill="#000000" transform="matrix(1.00, 0.00, -0.00, -1.00, 339.8, 361.0)">p</text><text xml:space="preserve" font-family="FiraMono-Regular" font-size="44.0" fill="#000000" transform="matrix(1.00, 0.00, -0.00, -1.00, 366.2, 361.0)">e</text><text xml:space="preserve" font-family="FiraMono-Regular" font-size="44.0" fill="#000000" transform="matrix(1.00, 0.00, -0.00, -1.00, 392.6, 361.0)">a</text><text xml:space="preserve" font-family="FiraMono-Regular" font-size="44.0" fill="#000000" transform="matrix(1.00, 0.00, -0.00, -1.00, 419.0, 361.0)">t</text><text xml:space="preserve" font-family="FiraMono-Regular" font-size="44.0" fill="#000000" transform="matrix(1.00, 0.00, -0.00, -1.00, 445.4, 361.0)"> </text><text xml:space="preserve" font-family="FiraMono-Regular" font-size="44.0" fill="#00A7A9" transform="matrix(1.00, 0.00, -0.00, -1.00, 471.8, 361.0)">1</text><text xml:space="preserve" font-family="FiraMono-Regular" font-size="44.0" fill="#00A7A9" transform="matrix(1.00, 0.00, -0.00, -1.00, 498.2, 361.0)">0</text><text xml:space="preserve" font-family="FiraMono-Regular" font-size="44.0" fill="#000000" transform="matrix(1.00, 0.00, -0.00, -1.00, 524.6, 361.0)"> </text><text xml:space="preserve" font-family="FiraMono-Regular" font-size="44.0" fill="#000000" transform="matrix(1.00, 0.00, -0.00, -1.00, 551.0, 361.0)">t</text><text xml:space="preserve" font-family="FiraMono-Regular" font-size="44.0" fill="#000000" transform="matrix(1.00, 0.00, -0.00, -1.00, 577.4, 361.0)">i</text><text xml:space="preserve" font-family="FiraMono-Regular" font-size="44.0" fill="#000000" transform="matrix(1.00, 0.00, -0.00, -1.00, 603.8, 361.0)">m</text><text xml:space="preserve" font-family="FiraMono-Regular" font-size="44.0" fill="#000000" transform="matrix(1.00, 0.00, -0.00, -1.00, 630.2, 361.0)">e</text><text xml:space="preserve" font-family="FiraMono-Regular" font-size="44.0" fill="#000000" transform="matrix(1.00, 0.00, -0.00, -1.00, 656.6, 361.0)">s</text><text xml:space="preserve" font-family="FiraMono-Regular" font-size="44.0" fill="#000000" transform="matrix(1.00, 0.00, -0.00, -1.00, 683.0, 361.0)">:</text><text xml:space="preserve" font-family="FiraMono-Regular" font-size="44.0" fill="#000000" transform="matrix(1.00, 0.00, -0.00, -1.00, 709.4, 361.0)"> </text><text xml:space="preserve" font-family="FiraMono-Regular" font-size="44.0" fill="#B96800" transform="matrix(1.00, 0.00, -0.00, -1.00, 287.0, 300.0)"> </text><text xml:space="preserve" font-family="FiraMono-Regular" font-size="44.0" fill="#B96800" transform="matrix(1.00, 0.00, -0.00, -1.00, 313.4, 300.0)"> </text><text xml:space="preserve" font-family="FiraMono-Regular" font-size="44.0" fill="#000000" transform="matrix(1.00, 0.00, -0.00, -1.00, 339.8, 300.0)">s</text><text xml:space="preserve" font-family="FiraMono-Regular" font-size="44.0" fill="#000000" transform="matrix(1.00, 0.00, -0.00, -1.00, 366.2, 300.0)">a</text><text xml:space="preserve" font-family="FiraMono-Regular" font-size="44.0" fill="#000000" transform="matrix(1.00, 0.00, -0.00, -1.00, 392.6, 300.0)">y</text><text xml:space="preserve" font-family="FiraMono-Regular" font-size="44.0" fill="#000000" transform="matrix(1.00, 0.00, -0.00, -1.00, 419.0, 300.0)"> </text><text xml:space="preserve" font-family="FiraMono-Regular" font-size="44.0" fill="#B96800" transform="matrix(1.00, 0.00, -0.00, -1.00, 445.4, 300.0)">"</text><text xml:space="preserve" font-family="FiraMono-Regular" font-size="44.0" fill="#B96800" transform="matrix(1.00, 0.00, -0.00, -1.00, 471.8, 300.0)">H</text><text xml:space="preserve" font-family="FiraMono-Regular" font-size="44.0" fill="#B96800" transform="matrix(1.00, 0.00, -0.00, -1.00, 498.2, 300.0)">i</text><text xml:space="preserve" font-family="FiraMono-Regular" font-size="44.0" fill="#B96800" transform="matrix(1.00, 0.00, -0.00, -1.00, 524.6, 300.0)">!</text><text xml:space="preserve" font-family="FiraMono-Regular" font-size="44.0" fill="#B96800" transform="matrix(1.00, 0.00, -0.00, -1.00, 551.0, 300.0)">"</text><text xml:space="preserve" font-family="FiraMono-Regular" font-size="44.0" fill="#000000" transform="matrix(1.00, 0.00, -0.00, -1.00, 577.4, 300.0)"> </text></g></svg>