<?xml version="1.0" encoding="UTF-8" standalone="no"?><svg xmlns="http://www.w3.org/2000/svg" xmlns:xlink="http://www.w3.org/1999/xlink" clip-rule="evenodd" stroke-miterlimit="4.00" viewBox="0 0 1024 768"><desc>SVG generated by Keynote</desc><defs></defs><g transform="matrix(1.00, 0.00, -0.00, -1.00, 0.0, 768.0)"><path d="M 0.0 768.0 L 1024.0 768.0 L 1024.0 0.0 L 0.0 0.0 Z M 0.0 768.0 " fill="#FEFFFF"></path><text xml:space="preserve" font-family="FiraMono-Regular" font-size="32.0" fill="#000000" transform="matrix(1.00, 0.00, -0.00, -1.00, 38.0, 688.0)">&lt;</text><text xml:space="preserve" font-family="FiraMono-Regular" font-size="32.0" fill="#000000" transform="matrix(1.00, 0.00, -0.00, -1.00, 57.2, 688.0)">d</text><text xml:space="preserve" font-family="FiraMono-Regular" font-size="32.0" fill="#000000" transform="matrix(1.00, 0.00, -0.00, -1.00, 76.4, 688.0)">o</text><text xml:space="preserve" font-family="FiraMono-Regular" font-size="32.0" fill="#000000" transform="matrix(1.00, 0.00, -0.00, -1.00, 95.6, 688.0)">c</text><text xml:space="preserve" font-family="FiraMono-Regular" font-size="32.0" fill="#000000" transform="matrix(1.00, 0.00, -0.00, -1.00, 114.8, 688.0)">t</text><text xml:space="preserve" font-family="FiraMono-Regular" font-size="32.0" fill="#000000" transform="matrix(1.00, 0.00, -0.00, -1.00, 134.0, 688.0)">y</text><text xml:space="preserve" font-family="FiraMono-Regular" font-size="32.0" fill="#000000" transform="matrix(1.00, 0.00, -0.00, -1.00, 153.2, 688.0)">p</text><text xml:space="preserve" font-family="FiraMono-Regular" font-size="32.0" fill="#000000" transform="matrix(1.00, 0.00, -0.00, -1.00, 172.4, 688.0)">e</text><text xml:space="preserve" font-family="FiraMono-Regular" font-size="32.0" fill="#000000" transform="matrix(1.00, 0.00, -0.00, -1.00, 191.6, 688.0)"> </text><text xml:space="preserve" font-family="FiraMono-Regular" font-size="32.0" fill="#000000" transform="matrix(1.00, 0.00, -0.00, -1.00, 210.8, 688.0)">h</text><text xml:space="preserve" font-family="FiraMono-Regular" font-size="32.0" fill="#000000" transform="matrix(1.00, 0.00, -0.00, -1.00, 230.0, 688.0)">t</text><text xml:space="preserve" font-family="FiraMono-Regular" font-size="32.0" fill="#000000" transform="matrix(1.00, 0.00, -0.00, -1.00, 249.2, 688.0)">m</text><text xml:space="preserve" font-family="FiraMono-Regular" font-size="32.0" fill="#000000" transform="matrix(1.00, 0.00, -0.00, -1.00, 268.4, 688.0)">l</text><text xml:space="preserve" font-family="FiraMono-Regular" font-size="32.0" fill="#000000" transform="matrix(1.00, 0.00, -0.00, -1.00, 287.6, 688.0)">&gt;</text><text xml:space="preserve" font-family="FiraMono-Regular" font-size="32.0" fill="#000000" transform="matrix(1.00, 0.00, -0.00, -1.00, 306.8, 688.0)"> </text><text xml:space="preserve" font-family="FiraMono-Regular" font-size="32.0" fill="#000000" transform="matrix(1.00, 0.00, -0.00, -1.00, 38.0, 643.0)">&lt;</text><text xml:space="preserve" font-family="FiraMono-Regular" font-size="32.0" fill="#000000" transform="matrix(1.00, 0.00, -0.00, -1.00, 57.2, 643.0)">h</text><text xml:space="preserve" font-family="FiraMono-Regular" font-size="32.0" fill="#000000" transform="matrix(1.00, 0.00, -0.00, -1.00, 76.4, 643.0)">t</text><text xml:space="preserve" font-family="FiraMono-Regular" font-size="32.0" fill="#000000" transform="matrix(1.00, 0.00, -0.00, -1.00, 95.6, 643.0)">m</text><text xml:space="preserve" font-family="FiraMono-Regular" font-size="32.0" fill="#000000" transform="matrix(1.00, 0.00, -0.00, -1.00, 114.8, 643.0)">l</text><text xml:space="preserve" font-family="FiraMono-Regular" font-size="32.0" fill="#000000" transform="matrix(1.00, 0.00, -0.00, -1.00, 134.0, 643.0)">&gt;</text><text xml:space="preserve" font-family="FiraMono-Regular" font-size="32.0" fill="#000000" transform="matrix(1.00, 0.00, -0.00, -1.00, 153.2, 643.0)"> </text><text xml:space="preserve" font-family="FiraMono-Regular" font-size="32.0" fill="#000000" transform="matrix(1.00, 0.00, -0.00, -1.00, 38.0, 598.0)"> </text><text xml:space="preserve" font-family="FiraMono-Regular" font-size="32.0" fill="#000000" transform="matrix(1.00, 0.00, -0.00, -1.00, 57.2, 598.0)"> </text><text xml:space="preserve" font-family="FiraMono-Regular" font-size="32.0" fill="#000000" transform="matrix(1.00, 0.00, -0.00, -1.00, 76.4, 598.0)">&lt;</text><text xml:space="preserve" font-family="FiraMono-Regular" font-size="32.0" fill="#000000" transform="matrix(1.00, 0.00, -0.00, -1.00, 95.6, 598.0)">h</text><text xml:space="preserve" font-family="FiraMono-Regular" font-size="32.0" fill="#000000" transform="matrix(1.00, 0.00, -0.00, -1.00, 114.8, 598.0)">e</text><text xml:space="preserve" font-family="FiraMono-Regular" font-size="32.0" fill="#000000" transform="matrix(1.00, 0.00, -0.00, -1.00, 134.0, 598.0)">a</text><text xml:space="preserve" font-family="FiraMono-Regular" font-size="32.0" fill="#000000" transform="matrix(1.00, 0.00, -0.00, -1.00, 153.2, 598.0)">d</text><text xml:space="preserve" font-family="FiraMono-Regular" font-size="32.0" fill="#000000" transform="matrix(1.00, 0.00, -0.00, -1.00, 172.4, 598.0)">&gt;</text><text xml:space="preserve" font-family="FiraMono-Regular" font-size="32.0" fill="#000000" transform="matrix(1.00, 0.00, -0.00, -1.00, 191.6, 598.0)"> </text><text xml:space="preserve" font-family="FiraMono-Regular" font-size="32.0" fill="#000000" transform="matrix(1.00, 0.00, -0.00, -1.00, 38.0, 553.0)"> </text><text xml:space="preserve" font-family="FiraMono-Regular" font-size="32.0" fill="#000000" transform="matrix(1.00, 0.00, -0.00, -1.00, 57.2, 553.0)"> </text><text xml:space="preserve" font-family="FiraMono-Regular" font-size="32.0" fill="#000000" transform="matrix(1.00, 0.00, -0.00, -1.00, 76.4, 553.0)"> </text><text xml:space="preserve" font-family="FiraMono-Regular" font-size="32.0" fill="#000000" transform="matrix(1.00, 0.00, -0.00, -1.00, 95.6, 553.0)"> </text><text xml:space="preserve" font-family="FiraMono-Regular" font-size="32.0" fill="#000000" transform="matrix(1.00, 0.00, -0.00, -1.00, 114.8, 553.0)">&lt;</text><text xml:space="preserve" font-family="FiraMono-Regular" font-size="32.0" fill="#000000" transform="matrix(1.00, 0.00, -0.00, -1.00, 134.0, 553.0)">t</text><text xml:space="preserve" font-family="FiraMono-Regular" font-size="32.0" fill="#000000" transform="matrix(1.00, 0.00, -0.00, -1.00, 153.2, 553.0)">i</text><text xml:space="preserve" font-family="FiraMono-Regular" font-size="32.0" fill="#000000" transform="matrix(1.00, 0.00, -0.00, -1.00, 172.4, 553.0)">t</text><text xml:space="preserve" font-family="FiraMono-Regular" font-size="32.0" fill="#000000" transform="matrix(1.00, 0.00, -0.00, -1.00, 191.6, 553.0)">l</text><text xml:space="preserve" font-family="FiraMono-Regular" font-size="32.0" fill="#000000" transform="matrix(1.00, 0.00, -0.00, -1.00, 210.8, 553.0)">e</text><text xml:space="preserve" font-family="FiraMono-Regular" font-size="32.0" fill="#000000" transform="matrix(1.00, 0.00, -0.00, -1.00, 230.0, 553.0)">&gt;</text><text xml:space="preserve" font-family="FiraMono-Regular" font-size="32.0" fill="#000000" transform="matrix(1.00, 0.00, -0.00, -1.00, 249.2, 553.0)">T</text><text xml:space="preserve" font-family="FiraMono-Regular" font-size="32.0" fill="#000000" transform="matrix(1.00, 0.00, -0.00, -1.00, 268.4, 553.0)">h</text><text xml:space="preserve" font-family="FiraMono-Regular" font-size="32.0" fill="#000000" transform="matrix(1.00, 0.00, -0.00, -1.00, 287.6, 553.0)">i</text><text xml:space="preserve" font-family="FiraMono-Regular" font-size="32.0" fill="#000000" transform="matrix(1.00, 0.00, -0.00, -1.00, 306.8, 553.0)">s</text><text xml:space="preserve" font-family="FiraMono-Regular" font-size="32.0" fill="#000000" transform="matrix(1.00, 0.00, -0.00, -1.00, 326.0, 553.0)"> </text><text xml:space="preserve" font-family="FiraMono-Regular" font-size="32.0" fill="#000000" transform="matrix(1.00, 0.00, -0.00, -1.00, 345.2, 553.0)">i</text><text xml:space="preserve" font-family="FiraMono-Regular" font-size="32.0" fill="#000000" transform="matrix(1.00, 0.00, -0.00, -1.00, 364.4, 553.0)">s</text><text xml:space="preserve" font-family="FiraMono-Regular" font-size="32.0" fill="#000000" transform="matrix(1.00, 0.00, -0.00, -1.00, 383.6, 553.0)"> </text><text xml:space="preserve" font-family="FiraMono-Regular" font-size="32.0" fill="#000000" transform="matrix(1.00, 0.00, -0.00, -1.00, 402.8, 553.0)">a</text><text xml:space="preserve" font-family="FiraMono-Regular" font-size="32.0" fill="#000000" transform="matrix(1.00, 0.00, -0.00, -1.00, 422.0, 553.0)"> </text><text xml:space="preserve" font-family="FiraMono-Regular" font-size="32.0" fill="#000000" transform="matrix(1.00, 0.00, -0.00, -1.00, 441.2, 553.0)">t</text><text xml:space="preserve" font-family="FiraMono-Regular" font-size="32.0" fill="#000000" transform="matrix(1.00, 0.00, -0.00, -1.00, 460.4, 553.0)">i</text><text xml:space="preserve" font-family="FiraMono-Regular" font-size="32.0" fill="#000000" transform="matrix(1.00, 0.00, -0.00, -1.00, 479.6, 553.0)">t</text><text xml:space="preserve" font-family="FiraMono-Regular" font-size="32.0" fill="#000000" transform="matrix(1.00, 0.00, -0.00, -1.00, 498.8, 553.0)">l</text><text xml:space="preserve" font-family="FiraMono-Regular" font-size="32.0" fill="#000000" transform="matrix(1.00, 0.00, -0.00, -1.00, 518.0, 553.0)">e</text><text xml:space="preserve" font-family="FiraMono-Regular" font-size="32.0" fill="#000000" transform="matrix(1.00, 0.00, -0.00, -1.00, 537.2, 553.0)"> </text><text xml:space="preserve" font-family="FiraMono-Regular" font-size="32.0" fill="#000000" transform="matrix(1.00, 0.00, -0.00, -1.00, 38.0, 508.0)"> </text><text xml:space="preserve" font-family="FiraMono-Regular" font-size="32.0" fill="#000000" transform="matrix(1.00, 0.00, -0.00, -1.00, 57.2, 508.0)"> </text><text xml:space="preserve" font-family="FiraMono-Regular" font-size="32.0" fill="#000000" transform="matrix(1.00, 0.00, -0.00, -1.00, 76.4, 508.0)">&lt;</text><text xml:space="preserve" font-family="FiraMono-Regular" font-size="32.0" fill="#000000" transform="matrix(1.00, 0.00, -0.00, -1.00, 95.6, 508.0)">/</text><text xml:space="preserve" font-family="FiraMono-Regular" font-size="32.0" fill="#000000" transform="matrix(1.00, 0.00, -0.00, -1.00, 114.8, 508.0)">h</text><text xml:space="preserve" font-family="FiraMono-Regular" font-size="32.0" fill="#000000" transform="matrix(1.00, 0.00, -0.00, -1.00, 134.0, 508.0)">e</text><text xml:space="preserve" font-family="FiraMono-Regular" font-size="32.0" fill="#000000" transform="matrix(1.00, 0.00, -0.00, -1.00, 153.2, 508.0)">a</text><text xml:space="preserve" font-family="FiraMono-Regular" font-size="32.0" fill="#000000" transform="matrix(1.00, 0.00, -0.00, -1.00, 172.4, 508.0)">d</text><text xml:space="preserve" font-family="FiraMono-Regular" font-size="32.0" fill="#000000" transform="matrix(1.00, 0.00, -0.00, -1.00, 191.6, 508.0)">&gt;</text><text xml:space="preserve" font-family="FiraMono-Regular" font-size="32.0" fill="#000000" transform="matrix(1.00, 0.00, -0.00, -1.00, 210.8, 508.0)"> </text><text xml:space="preserve" font-family="FiraMono-Regular" font-size="32.0" fill="#000000" transform="matrix(1.00, 0.00, -0.00, -1.00, 38.0, 463.0)"> </text><text xml:space="preserve" font-family="FiraMono-Regular" font-size="32.0" fill="#000000" transform="matrix(1.00, 0.00, -0.00, -1.00, 57.2, 463.0)"> </text><text xml:space="preserve" font-family="FiraMono-Regular" font-size="32.0" fill="#000000" transform="matrix(1.00, 0.00, -0.00, -1.00, 76.4, 463.0)">&lt;</text><text xml:space="preserve" font-family="FiraMono-Regular" font-size="32.0" fill="#000000" transform="matrix(1.00, 0.00, -0.00, -1.00, 95.6, 463.0)">B</text><text xml:space="preserve" font-family="FiraMono-Regular" font-size="32.0" fill="#000000" transform="matrix(1.00, 0.00, -0.00, -1.00, 114.8, 463.0)">O</text><text xml:space="preserve" font-family="FiraMono-Regular" font-size="32.0" fill="#000000" transform="matrix(1.00, 0.00, -0.00, -1.00, 134.0, 463.0)">D</text><text xml:space="preserve" font-family="FiraMono-Regular" font-size="32.0" fill="#000000" transform="matrix(1.00, 0.00, -0.00, -1.00, 153.2, 463.0)">Y</text><text xml:space="preserve" font-family="FiraMono-Regular" font-size="32.0" fill="#000000" transform="matrix(1.00, 0.00, -0.00, -1.00, 172.4, 463.0)">&gt;</text><text xml:space="preserve" font-family="FiraMono-Regular" font-size="32.0" fill="#000000" transform="matrix(1.00, 0.00, -0.00, -1.00, 191.6, 463.0)"> </text><text xml:space="preserve" font-family="FiraMono-Regular" font-size="32.0" fill="#000000" transform="matrix(1.00, 0.00, -0.00, -1.00, 38.0, 418.0)"> </text><text xml:space="preserve" font-family="FiraMono-Regular" font-size="32.0" fill="#000000" transform="matrix(1.00, 0.00, -0.00, -1.00, 57.2, 418.0)"> </text><text xml:space="preserve" font-family="FiraMono-Regular" font-size="32.0" fill="#000000" transform="matrix(1.00, 0.00, -0.00, -1.00, 76.4, 418.0)"> </text><text xml:space="preserve" font-family="FiraMono-Regular" font-size="32.0" fill="#000000" transform="matrix(1.00, 0.00, -0.00, -1.00, 95.6, 418.0)"> </text><text xml:space="preserve" font-family="FiraMono-Regular" font-size="32.0" fill="#000000" transform="matrix(1.00, 0.00, -0.00, -1.00, 114.8, 418.0)">&lt;</text><text xml:space="preserve" font-family="FiraMono-Regular" font-size="32.0" fill="#000000" transform="matrix(1.00, 0.00, -0.00, -1.00, 134.0, 418.0)">p</text><text xml:space="preserve" font-family="FiraMono-Regular" font-size="32.0" fill="#000000" transform="matrix(1.00, 0.00, -0.00, -1.00, 153.2, 418.0)"> </text><text xml:space="preserve" font-family="FiraMono-Regular" font-size="32.0" fill="#000000" transform="matrix(1.00, 0.00, -0.00, -1.00, 172.4, 418.0)">"</text><text xml:space="preserve" font-family="FiraMono-Regular" font-size="32.0" fill="#000000" transform="matrix(1.00, 0.00, -0.00, -1.00, 191.6, 418.0)">c</text><text xml:space="preserve" font-family="FiraMono-Regular" font-size="32.0" fill="#000000" transform="matrix(1.00, 0.00, -0.00, -1.00, 210.8, 418.0)">o</text><text xml:space="preserve" font-family="FiraMono-Regular" font-size="32.0" fill="#000000" transform="matrix(1.00, 0.00, -0.00, -1.00, 230.0, 418.0)">l</text><text xml:space="preserve" font-family="FiraMono-Regular" font-size="32.0" fill="#000000" transform="matrix(1.00, 0.00, -0.00, -1.00, 249.2, 418.0)">o</text><text xml:space="preserve" font-family="FiraMono-Regular" font-size="32.0" fill="#000000" transform="matrix(1.00, 0.00, -0.00, -1.00, 268.4, 418.0)">r</text><text xml:space="preserve" font-family="FiraMono-Regular" font-size="32.0" fill="#000000" transform="matrix(1.00, 0.00, -0.00, -1.00, 287.6, 418.0)">:</text><text xml:space="preserve" font-family="FiraMono-Regular" font-size="32.0" fill="#000000" transform="matrix(1.00, 0.00, -0.00, -1.00, 306.8, 418.0)"> </text><text xml:space="preserve" font-family="FiraMono-Regular" font-size="32.0" fill="#000000" transform="matrix(1.00, 0.00, -0.00, -1.00, 326.0, 418.0)">g</text><text xml:space="preserve" font-family="FiraMono-Regular" font-size="32.0" fill="#000000" transform="matrix(1.00, 0.00, -0.00, -1.00, 345.2, 418.0)">r</text><text xml:space="preserve" font-family="FiraMono-Regular" font-size="32.0" fill="#000000" transform="matrix(1.00, 0.00, -0.00, -1.00, 364.4, 418.0)">e</text><text xml:space="preserve" font-family="FiraMono-Regular" font-size="32.0" fill="#000000" transform="matrix(1.00, 0.00, -0.00, -1.00, 383.6, 418.0)">e</text><text xml:space="preserve" font-family="FiraMono-Regular" font-size="32.0" fill="#000000" transform="matrix(1.00, 0.00, -0.00, -1.00, 402.8, 418.0)">n</text><text xml:space="preserve" font-family="FiraMono-Regular" font-size="32.0" fill="#000000" transform="matrix(1.00, 0.00, -0.00, -1.00, 422.0, 418.0)">;</text><text xml:space="preserve" font-family="FiraMono-Regular" font-size="32.0" fill="#000000" transform="matrix(1.00, 0.00, -0.00, -1.00, 441.2, 418.0)">"</text><text xml:space="preserve" font-family="FiraMono-Regular" font-size="32.0" fill="#000000" transform="matrix(1.00, 0.00, -0.00, -1.00, 460.4, 418.0)">&gt;</text><text xml:space="preserve" font-family="FiraMono-Regular" font-size="32.0" fill="#000000" transform="matrix(1.00, 0.00, -0.00, -1.00, 479.6, 418.0)">S</text><text xml:space="preserve" font-family="FiraMono-Regular" font-size="32.0" fill="#000000" transform="matrix(1.00, 0.00, -0.00, -1.00, 498.8, 418.0)">o</text><text xml:space="preserve" font-family="FiraMono-Regular" font-size="32.0" fill="#000000" transform="matrix(1.00, 0.00, -0.00, -1.00, 518.0, 418.0)">m</text><text xml:space="preserve" font-family="FiraMono-Regular" font-size="32.0" fill="#000000" transform="matrix(1.00, 0.00, -0.00, -1.00, 537.2, 418.0)">e</text><text xml:space="preserve" font-family="FiraMono-Regular" font-size="32.0" fill="#000000" transform="matrix(1.00, 0.00, -0.00, -1.00, 556.4, 418.0)"> </text><text xml:space="preserve" font-family="FiraMono-Regular" font-size="32.0" fill="#000000" transform="matrix(1.00, 0.00, -0.00, -1.00, 575.6, 418.0)">t</text><text xml:space="preserve" font-family="FiraMono-Regular" font-size="32.0" fill="#000000" transform="matrix(1.00, 0.00, -0.00, -1.00, 594.8, 418.0)">e</text><text xml:space="preserve" font-family="FiraMono-Regular" font-size="32.0" fill="#000000" transform="matrix(1.00, 0.00, -0.00, -1.00, 614.0, 418.0)">x</text><text xml:space="preserve" font-family="FiraMono-Regular" font-size="32.0" fill="#000000" transform="matrix(1.00, 0.00, -0.00, -1.00, 633.2, 418.0)">t</text><text xml:space="preserve" font-family="FiraMono-Regular" font-size="32.0" fill="#000000" transform="matrix(1.00, 0.00, -0.00, -1.00, 652.4, 418.0)"> </text><text xml:space="preserve" font-family="FiraMono-Regular" font-size="32.0" fill="#000000" transform="matrix(1.00, 0.00, -0.00, -1.00, 671.6, 418.0)">h</text><text xml:space="preserve" font-family="FiraMono-Regular" font-size="32.0" fill="#000000" transform="matrix(1.00, 0.00, -0.00, -1.00, 690.8, 418.0)">e</text><text xml:space="preserve" font-family="FiraMono-Regular" font-size="32.0" fill="#000000" transform="matrix(1.00, 0.00, -0.00, -1.00, 710.0, 418.0)">r</text><text xml:space="preserve" font-family="FiraMono-Regular" font-size="32.0" fill="#000000" transform="matrix(1.00, 0.00, -0.00, -1.00, 729.2, 418.0)">e</text><text xml:space="preserve" font-family="FiraMono-Regular" font-size="32.0" fill="#000000" transform="matrix(1.00, 0.00, -0.00, -1.00, 748.4, 418.0)">&lt;</text><text xml:space="preserve" font-family="FiraMono-Regular" font-size="32.0" fill="#000000" transform="matrix(1.00, 0.00, -0.00, -1.00, 767.6, 418.0)">/</text><text xml:space="preserve" font-family="FiraMono-Regular" font-size="32.0" fill="#000000" transform="matrix(1.00, 0.00, -0.00, -1.00, 786.8, 418.0)">p</text><text xml:space="preserve" font-family="FiraMono-Regular" font-size="32.0" fill="#000000" transform="matrix(1.00, 0.00, -0.00, -1.00, 806.0, 418.0)">&gt;</text><text xml:space="preserve" font-family="FiraMono-Regular" font-size="32.0" fill="#000000" transform="matrix(1.00, 0.00, -0.00, -1.00, 825.2, 418.0)"> </text><text xml:space="preserve" font-family="FiraMono-Regular" font-size="32.0" fill="#000000" transform="matrix(1.00, 0.00, -0.00, -1.00, 38.0, 373.0)"> </text><text xml:space="preserve" font-family="FiraMono-Regular" font-size="32.0" fill="#000000" transform="matrix(1.00, 0.00, -0.00, -1.00, 57.2, 373.0)"> </text><text xml:space="preserve" font-family="FiraMono-Regular" font-size="32.0" fill="#000000" transform="matrix(1.00, 0.00, -0.00, -1.00, 76.4, 373.0)"> </text><text xml:space="preserve" font-family="FiraMono-Regular" font-size="32.0" fill="#000000" transform="matrix(1.00, 0.00, -0.00, -1.00, 95.6, 373.0)"> </text><text xml:space="preserve" font-family="FiraMono-Regular" font-size="32.0" fill="#000000" transform="matrix(1.00, 0.00, -0.00, -1.00, 114.8, 373.0)">&lt;</text><text xml:space="preserve" font-family="FiraMono-Regular" font-size="32.0" fill="#000000" transform="matrix(1.00, 0.00, -0.00, -1.00, 134.0, 373.0)">p</text><text xml:space="preserve" font-family="FiraMono-Regular" font-size="32.0" fill="#000000" transform="matrix(1.00, 0.00, -0.00, -1.00, 153.2, 373.0)">&gt;</text><text xml:space="preserve" font-family="FiraMono-Regular" font-size="32.0" fill="#000000" transform="matrix(1.00, 0.00, -0.00, -1.00, 172.4, 373.0)">S</text><text xml:space="preserve" font-family="FiraMono-Regular" font-size="32.0" fill="#000000" transform="matrix(1.00, 0.00, -0.00, -1.00, 191.6, 373.0)">o</text><text xml:space="preserve" font-family="FiraMono-Regular" font-size="32.0" fill="#000000" transform="matrix(1.00, 0.00, -0.00, -1.00, 210.8, 373.0)">m</text><text xml:space="preserve" font-family="FiraMono-Regular" font-size="32.0" fill="#000000" transform="matrix(1.00, 0.00, -0.00, -1.00, 230.0, 373.0)">e</text><text xml:space="preserve" font-family="FiraMono-Regular" font-size="32.0" fill="#000000" transform="matrix(1.00, 0.00, -0.00, -1.00, 249.2, 373.0)"> </text><text xml:space="preserve" font-family="FiraMono-Regular" font-size="32.0" fill="#000000" transform="matrix(1.00, 0.00, -0.00, -1.00, 268.4, 373.0)">m</text><text xml:space="preserve" font-family="FiraMono-Regular" font-size="32.0" fill="#000000" transform="matrix(1.00, 0.00, -0.00, -1.00, 287.6, 373.0)">o</text><text xml:space="preserve" font-family="FiraMono-Regular" font-size="32.0" fill="#000000" transform="matrix(1.00, 0.00, -0.00, -1.00, 306.8, 373.0)">r</text><text xml:space="preserve" font-family="FiraMono-Regular" font-size="32.0" fill="#000000" transform="matrix(1.00, 0.00, -0.00, -1.00, 326.0, 373.0)">e</text><text xml:space="preserve" font-family="FiraMono-Regular" font-size="32.0" fill="#000000" transform="matrix(1.00, 0.00, -0.00, -1.00, 345.2, 373.0)"> </text><text xml:space="preserve" font-family="FiraMono-Regular" font-size="32.0" fill="#000000" transform="matrix(1.00, 0.00, -0.00, -1.00, 364.4, 373.0)">t</text><text xml:space="preserve" font-family="FiraMono-Regular" font-size="32.0" fill="#000000" transform="matrix(1.00, 0.00, -0.00, -1.00, 383.6, 373.0)">e</text><text xml:space="preserve" font-family="FiraMono-Regular" font-size="32.0" fill="#000000" transform="matrix(1.00, 0.00, -0.00, -1.00, 402.8, 373.0)">x</text><text xml:space="preserve" font-family="FiraMono-Regular" font-size="32.0" fill="#000000" transform="matrix(1.00, 0.00, -0.00, -1.00, 422.0, 373.0)">t</text><text xml:space="preserve" font-family="FiraMono-Regular" font-size="32.0" fill="#000000" transform="matrix(1.00, 0.00, -0.00, -1.00, 441.2, 373.0)"> </text><text xml:space="preserve" font-family="FiraMono-Regular" font-size="32.0" fill="#000000" transform="matrix(1.00, 0.00, -0.00, -1.00, 460.4, 373.0)">&lt;</text><text xml:space="preserve" font-family="FiraMono-Regular" font-size="32.0" fill="#000000" transform="matrix(1.00, 0.00, -0.00, -1.00, 479.6, 373.0)">a</text><text xml:space="preserve" font-family="FiraMono-Regular" font-size="32.0" fill="#000000" transform="matrix(1.00, 0.00, -0.00, -1.00, 498.8, 373.0)"> </text><text xml:space="preserve" font-family="FiraMono-Regular" font-size="32.0" fill="#000000" transform="matrix(1.00, 0.00, -0.00, -1.00, 518.0, 373.0)">h</text><text xml:space="preserve" font-family="FiraMono-Regular" font-size="32.0" fill="#000000" transform="matrix(1.00, 0.00, -0.00, -1.00, 537.2, 373.0)">r</text><text xml:space="preserve" font-family="FiraMono-Regular" font-size="32.0" fill="#000000" transform="matrix(1.00, 0.00, -0.00, -1.00, 556.4, 373.0)">e</text><text xml:space="preserve" font-family="FiraMono-Regular" font-size="32.0" fill="#000000" transform="matrix(1.00, 0.00, -0.00, -1.00, 575.6, 373.0)">f</text><text xml:space="preserve" font-family="FiraMono-Regular" font-size="32.0" fill="#000000" transform="matrix(1.00, 0.00, -0.00, -1.00, 594.8, 373.0)">=</text><text xml:space="preserve" font-family="FiraMono-Regular" font-size="32.0" fill="#000000" transform="matrix(1.00, 0.00, -0.00, -1.00, 614.0, 373.0)">'</text><text xml:space="preserve" font-family="FiraMono-Regular" font-size="32.0" fill="#000000" transform="matrix(1.00, 0.00, -0.00, -1.00, 633.2, 373.0)">h</text><text xml:space="preserve" font-family="FiraMono-Regular" font-size="32.0" fill="#000000" transform="matrix(1.00, 0.00, -0.00, -1.00, 652.4, 373.0)">t</text><text xml:space="preserve" font-family="FiraMono-Regular" font-size="32.0" fill="#000000" transform="matrix(1.00, 0.00, -0.00, -1.00, 671.6, 373.0)">t</text><text xml:space="preserve" font-family="FiraMono-Regular" font-size="32.0" fill="#000000" transform="matrix(1.00, 0.00, -0.00, -1.00, 690.8, 373.0)">p</text><text xml:space="preserve" font-family="FiraMono-Regular" font-size="32.0" fill="#000000" transform="matrix(1.00, 0.00, -0.00, -1.00, 710.0, 373.0)">:</text><text xml:space="preserve" font-family="FiraMono-Regular" font-size="32.0" fill="#000000" transform="matrix(1.00, 0.00, -0.00, -1.00, 729.2, 373.0)">/</text><text xml:space="preserve" font-family="FiraMono-Regular" font-size="32.0" fill="#000000" transform="matrix(1.00, 0.00, -0.00, -1.00, 748.4, 373.0)">/</text><text xml:space="preserve" font-family="FiraMono-Regular" font-size="32.0" fill="#000000" transform="matrix(1.00, 0.00, -0.00, -1.00, 38.0, 328.0)">g</text><text xml:space="preserve" font-family="FiraMono-Regular" font-size="32.0" fill="#000000" transform="matrix(1.00, 0.00, -0.00, -1.00, 57.2, 328.0)">o</text><text xml:space="preserve" font-family="FiraMono-Regular" font-size="32.0" fill="#000000" transform="matrix(1.00, 0.00, -0.00, -1.00, 76.4, 328.0)">o</text><text xml:space="preserve" font-family="FiraMono-Regular" font-size="32.0" fill="#000000" transform="matrix(1.00, 0.00, -0.00, -1.00, 95.6, 328.0)">o</text><text xml:space="preserve" font-family="FiraMono-Regular" font-size="32.0" fill="#000000" transform="matrix(1.00, 0.00, -0.00, -1.00, 114.8, 328.0)">g</text><text xml:space="preserve" font-family="FiraMono-Regular" font-size="32.0" fill="#000000" transform="matrix(1.00, 0.00, -0.00, -1.00, 134.0, 328.0)">l</text><text xml:space="preserve" font-family="FiraMono-Regular" font-size="32.0" fill="#000000" transform="matrix(1.00, 0.00, -0.00, -1.00, 153.2, 328.0)">e</text><text xml:space="preserve" font-family="FiraMono-Regular" font-size="32.0" fill="#000000" transform="matrix(1.00, 0.00, -0.00, -1.00, 172.4, 328.0)">.</text><text xml:space="preserve" font-family="FiraMono-Regular" font-size="32.0" fill="#000000" transform="matrix(1.00, 0.00, -0.00, -1.00, 191.6, 328.0)">c</text><text xml:space="preserve" font-family="FiraMono-Regular" font-size="32.0" fill="#000000" transform="matrix(1.00, 0.00, -0.00, -1.00, 210.8, 328.0)">o</text><text xml:space="preserve" font-family="FiraMono-Regular" font-size="32.0" fill="#000000" transform="matrix(1.00, 0.00, -0.00, -1.00, 230.0, 328.0)">m</text><text xml:space="preserve" font-family="FiraMono-Regular" font-size="32.0" fill="#000000" transform="matrix(1.00, 0.00, -0.00, -1.00, 249.2, 328.0)">"</text><text xml:space="preserve" font-family="FiraMono-Regular" font-size="32.0" fill="#000000" transform="matrix(1.00, 0.00, -0.00, -1.00, 268.4, 328.0)">&gt;</text><text xml:space="preserve" font-family="FiraMono-Regular" font-size="32.0" fill="#000000" transform="matrix(1.00, 0.00, -0.00, -1.00, 287.6, 328.0)">L</text><text xml:space="preserve" font-family="FiraMono-Regular" font-size="32.0" fill="#000000" transform="matrix(1.00, 0.00, -0.00, -1.00, 306.8, 328.0)">i</text><text xml:space="preserve" font-family="FiraMono-Regular" font-size="32.0" fill="#000000" transform="matrix(1.00, 0.00, -0.00, -1.00, 326.0, 328.0)">n</text><text xml:space="preserve" font-family="FiraMono-Regular" font-size="32.0" fill="#000000" transform="matrix(1.00, 0.00, -0.00, -1.00, 345.2, 328.0)">k</text><text xml:space="preserve" font-family="FiraMono-Regular" font-size="32.0" fill="#000000" transform="matrix(1.00, 0.00, -0.00, -1.00, 364.4, 328.0)"> </text><text xml:space="preserve" font-family="FiraMono-Regular" font-size="32.0" fill="#000000" transform="matrix(1.00, 0.00, -0.00, -1.00, 383.6, 328.0)">t</text><text xml:space="preserve" font-family="FiraMono-Regular" font-size="32.0" fill="#000000" transform="matrix(1.00, 0.00, -0.00, -1.00, 402.8, 328.0)">o</text><text xml:space="preserve" font-family="FiraMono-Regular" font-size="32.0" fill="#000000" transform="matrix(1.00, 0.00, -0.00, -1.00, 422.0, 328.0)"> </text><text xml:space="preserve" font-family="FiraMono-Regular" font-size="32.0" fill="#000000" transform="matrix(1.00, 0.00, -0.00, -1.00, 441.2, 328.0)">G</text><text xml:space="preserve" font-family="FiraMono-Regular" font-size="32.0" fill="#000000" transform="matrix(1.00, 0.00, -0.00, -1.00, 460.4, 328.0)">o</text><text xml:space="preserve" font-family="FiraMono-Regular" font-size="32.0" fill="#000000" transform="matrix(1.00, 0.00, -0.00, -1.00, 479.6, 328.0)">o</text><text xml:space="preserve" font-family="FiraMono-Regular" font-size="32.0" fill="#000000" transform="matrix(1.00, 0.00, -0.00, -1.00, 498.8, 328.0)">g</text><text xml:space="preserve" font-family="FiraMono-Regular" font-size="32.0" fill="#000000" transform="matrix(1.00, 0.00, -0.00, -1.00, 518.0, 328.0)">l</text><text xml:space="preserve" font-family="FiraMono-Regular" font-size="32.0" fill="#000000" transform="matrix(1.00, 0.00, -0.00, -1.00, 537.2, 328.0)">e</text><text xml:space="preserve" font-family="FiraMono-Regular" font-size="32.0" fill="#000000" transform="matrix(1.00, 0.00, -0.00, -1.00, 556.4, 328.0)">&lt;</text><text xml:space="preserve" font-family="FiraMono-Regular" font-size="32.0" fill="#000000" transform="matrix(1.00, 0.00, -0.00, -1.00, 575.6, 328.0)">/</text><text xml:space="preserve" font-family="FiraMono-Regular" font-size="32.0" fill="#000000" transform="matrix(1.00, 0.00, -0.00, -1.00, 594.8, 328.0)">p</text><text xml:space="preserve" font-family="FiraMono-Regular" font-size="32.0" fill="#000000" transform="matrix(1.00, 0.00, -0.00, -1.00, 614.0, 328.0)">&gt;</text><text xml:space="preserve" font-family="FiraMono-Regular" font-size="32.0" fill="#000000" transform="matrix(1.00, 0.00, -0.00, -1.00, 633.2, 328.0)">&lt;</text><text xml:space="preserve" font-family="FiraMono-Regular" font-size="32.0" fill="#000000" transform="matrix(1.00, 0.00, -0.00, -1.00, 652.4, 328.0)">/</text><text xml:space="preserve" font-family="FiraMono-Regular" font-size="32.0" fill="#000000" transform="matrix(1.00, 0.00, -0.00, -1.00, 671.6, 328.0)">a</text><text xml:space="preserve" font-family="FiraMono-Regular" font-size="32.0" fill="#000000" transform="matrix(1.00, 0.00, -0.00, -1.00, 690.8, 328.0)">&gt;</text><text xml:space="preserve" font-family="FiraMono-Regular" font-size="32.0" fill="#000000" transform="matrix(1.00, 0.00, -0.00, -1.00, 710.0, 328.0)"> </text><text xml:space="preserve" font-family="FiraMono-Regular" font-size="32.0" fill="#000000" transform="matrix(1.00, 0.00, -0.00, -1.00, 38.0, 283.0)"> </text><text xml:space="preserve" font-family="FiraMono-Regular" font-size="32.0" fill="#000000" transform="matrix(1.00, 0.00, -0.00, -1.00, 57.2, 283.0)"> </text><text xml:space="preserve" font-family="FiraMono-Regular" font-size="32.0" fill="#000000" transform="matrix(1.00, 0.00, -0.00, -1.00, 76.4, 283.0)"> </text><text xml:space="preserve" font-family="FiraMono-Regular" font-size="32.0" fill="#000000" transform="matrix(1.00, 0.00, -0.00, -1.00, 95.6, 283.0)"> </text><text xml:space="preserve" font-family="FiraMono-Regular" font-size="32.0" fill="#000000" transform="matrix(1.00, 0.00, -0.00, -1.00, 114.8, 283.0)">&lt;</text><text xml:space="preserve" font-family="FiraMono-Regular" font-size="32.0" fill="#000000" transform="matrix(1.00, 0.00, -0.00, -1.00, 134.0, 283.0)">b</text><text xml:space="preserve" font-family="FiraMono-Regular" font-size="32.0" fill="#000000" transform="matrix(1.00, 0.00, -0.00, -1.00, 153.2, 283.0)">r</text><text xml:space="preserve" font-family="FiraMono-Regular" font-size="32.0" fill="#000000" transform="matrix(1.00, 0.00, -0.00, -1.00, 172.4, 283.0)">&gt;</text><text xml:space="preserve" font-family="FiraMono-Regular" font-size="32.0" fill="#000000" transform="matrix(1.00, 0.00, -0.00, -1.00, 191.6, 283.0)"> </text><text xml:space="preserve" font-family="FiraMono-Regular" font-size="32.0" fill="#000000" transform="matrix(1.00, 0.00, -0.00, -1.00, 38.0, 238.0)"> </text><text xml:space="preserve" font-family="FiraMono-Regular" font-size="32.0" fill="#000000" transform="matrix(1.00, 0.00, -0.00, -1.00, 57.2, 238.0)"> </text><text xml:space="preserve" font-family="FiraMono-Regular" font-size="32.0" fill="#000000" transform="matrix(1.00, 0.00, -0.00, -1.00, 76.4, 238.0)"> </text><text xml:space="preserve" font-family="FiraMono-Regular" font-size="32.0" fill="#000000" transform="matrix(1.00, 0.00, -0.00, -1.00, 95.6, 238.0)"> </text><text xml:space="preserve" font-family="FiraMono-Regular" font-size="32.0" fill="#000000" transform="matrix(1.00, 0.00, -0.00, -1.00, 114.8, 238.0)">&lt;</text><text xml:space="preserve" font-family="FiraMono-Regular" font-size="32.0" fill="#000000" transform="matrix(1.00, 0.00, -0.00, -1.00, 134.0, 238.0)">b</text><text xml:space="preserve" font-family="FiraMono-Regular" font-size="32.0" fill="#000000" transform="matrix(1.00, 0.00, -0.00, -1.00, 153.2, 238.0)">r</text><text xml:space="preserve" font-family="FiraMono-Regular" font-size="32.0" fill="#000000" transform="matrix(1.00, 0.00, -0.00, -1.00, 172.4, 238.0)">/</text><text xml:space="preserve" font-family="FiraMono-Regular" font-size="32.0" fill="#000000" transform="matrix(1.00, 0.00, -0.00, -1.00, 191.6, 238.0)">&gt;</text><text xml:space="preserve" font-family="FiraMono-Regular" font-size="32.0" fill="#000000" transform="matrix(1.00, 0.00, -0.00, -1.00, 210.8, 238.0)"> </text><text xml:space="preserve" font-family="FiraMono-Regular" font-size="32.0" fill="#000000" transform="matrix(1.00, 0.00, -0.00, -1.00, 38.0, 193.0)"> </text><text xml:space="preserve" font-family="FiraMono-Regular" font-size="32.0" fill="#000000" transform="matrix(1.00, 0.00, -0.00, -1.00, 57.2, 193.0)"> </text><text xml:space="preserve" font-family="FiraMono-Regular" font-size="32.0" fill="#000000" transform="matrix(1.00, 0.00, -0.00, -1.00, 76.4, 193.0)"> </text><text xml:space="preserve" font-family="FiraMono-Regular" font-size="32.0" fill="#000000" transform="matrix(1.00, 0.00, -0.00, -1.00, 95.6, 193.0)"> </text><text xml:space="preserve" font-family="FiraMono-Regular" font-size="32.0" fill="#000000" transform="matrix(1.00, 0.00, -0.00, -1.00, 114.8, 193.0)">&lt;</text><text xml:space="preserve" font-family="FiraMono-Regular" font-size="32.0" fill="#000000" transform="matrix(1.00, 0.00, -0.00, -1.00, 134.0, 193.0)">p</text><text xml:space="preserve" font-family="FiraMono-Regular" font-size="32.0" fill="#000000" transform="matrix(1.00, 0.00, -0.00, -1.00, 153.2, 193.0)">&gt;</text><text xml:space="preserve" font-family="FiraMono-Regular" font-size="32.0" fill="#000000" transform="matrix(1.00, 0.00, -0.00, -1.00, 172.4, 193.0)">H</text><text xml:space="preserve" font-family="FiraMono-Regular" font-size="32.0" fill="#000000" transform="matrix(1.00, 0.00, -0.00, -1.00, 191.6, 193.0)">e</text><text xml:space="preserve" font-family="FiraMono-Regular" font-size="32.0" fill="#000000" transform="matrix(1.00, 0.00, -0.00, -1.00, 210.8, 193.0)">r</text><text xml:space="preserve" font-family="FiraMono-Regular" font-size="32.0" fill="#000000" transform="matrix(1.00, 0.00, -0.00, -1.00, 230.0, 193.0)">e</text><text xml:space="preserve" font-family="FiraMono-Regular" font-size="32.0" fill="#000000" transform="matrix(1.00, 0.00, -0.00, -1.00, 249.2, 193.0)"> </text><text xml:space="preserve" font-family="FiraMono-Regular" font-size="32.0" fill="#000000" transform="matrix(1.00, 0.00, -0.00, -1.00, 268.4, 193.0)">i</text><text xml:space="preserve" font-family="FiraMono-Regular" font-size="32.0" fill="#000000" transform="matrix(1.00, 0.00, -0.00, -1.00, 287.6, 193.0)">s</text><text xml:space="preserve" font-family="FiraMono-Regular" font-size="32.0" fill="#000000" transform="matrix(1.00, 0.00, -0.00, -1.00, 306.8, 193.0)"> </text><text xml:space="preserve" font-family="FiraMono-Regular" font-size="32.0" fill="#000000" transform="matrix(1.00, 0.00, -0.00, -1.00, 326.0, 193.0)">a</text><text xml:space="preserve" font-family="FiraMono-Regular" font-size="32.0" fill="#000000" transform="matrix(1.00, 0.00, -0.00, -1.00, 345.2, 193.0)">n</text><text xml:space="preserve" font-family="FiraMono-Regular" font-size="32.0" fill="#000000" transform="matrix(1.00, 0.00, -0.00, -1.00, 364.4, 193.0)">o</text><text xml:space="preserve" font-family="FiraMono-Regular" font-size="32.0" fill="#000000" transform="matrix(1.00, 0.00, -0.00, -1.00, 383.6, 193.0)">t</text><text xml:space="preserve" font-family="FiraMono-Regular" font-size="32.0" fill="#000000" transform="matrix(1.00, 0.00, -0.00, -1.00, 402.8, 193.0)">h</text><text xml:space="preserve" font-family="FiraMono-Regular" font-size="32.0" fill="#000000" transform="matrix(1.00, 0.00, -0.00, -1.00, 422.0, 193.0)">e</text><text xml:space="preserve" font-family="FiraMono-Regular" font-size="32.0" fill="#000000" transform="matrix(1.00, 0.00, -0.00, -1.00, 441.2, 193.0)">r</text><text xml:space="preserve" font-family="FiraMono-Regular" font-size="32.0" fill="#000000" transform="matrix(1.00, 0.00, -0.00, -1.00, 460.4, 193.0)"> </text><text xml:space="preserve" font-family="FiraMono-Regular" font-size="32.0" fill="#000000" transform="matrix(1.00, 0.00, -0.00, -1.00, 479.6, 193.0)">p</text><text xml:space="preserve" font-family="FiraMono-Regular" font-size="32.0" fill="#000000" transform="matrix(1.00, 0.00, -0.00, -1.00, 498.8, 193.0)">a</text><text xml:space="preserve" font-family="FiraMono-Regular" font-size="32.0" fill="#000000" transform="matrix(1.00, 0.00, -0.00, -1.00, 518.0, 193.0)">r</text><text xml:space="preserve" font-family="FiraMono-Regular" font-size="32.0" fill="#000000" transform="matrix(1.00, 0.00, -0.00, -1.00, 537.2, 193.0)">a</text><text xml:space="preserve" font-family="FiraMono-Regular" font-size="32.0" fill="#000000" transform="matrix(1.00, 0.00, -0.00, -1.00, 556.4, 193.0)">g</text><text xml:space="preserve" font-family="FiraMono-Regular" font-size="32.0" fill="#000000" transform="matrix(1.00, 0.00, -0.00, -1.00, 575.6, 193.0)">r</text><text xml:space="preserve" font-family="FiraMono-Regular" font-size="32.0" fill="#000000" transform="matrix(1.00, 0.00, -0.00, -1.00, 594.8, 193.0)">a</text><text xml:space="preserve" font-family="FiraMono-Regular" font-size="32.0" fill="#000000" transform="matrix(1.00, 0.00, -0.00, -1.00, 614.0, 193.0)">p</text><text xml:space="preserve" font-family="FiraMono-Regular" font-size="32.0" fill="#000000" transform="matrix(1.00, 0.00, -0.00, -1.00, 633.2, 193.0)">h</text><text xml:space="preserve" font-family="FiraMono-Regular" font-size="32.0" fill="#000000" transform="matrix(1.00, 0.00, -0.00, -1.00, 652.4, 193.0)">&lt;</text><text xml:space="preserve" font-family="FiraMono-Regular" font-size="32.0" fill="#000000" transform="matrix(1.00, 0.00, -0.00, -1.00, 671.6, 193.0)">/</text><text xml:space="preserve" font-family="FiraMono-Regular" font-size="32.0" fill="#000000" transform="matrix(1.00, 0.00, -0.00, -1.00, 690.8, 193.0)">p</text><text xml:space="preserve" font-family="FiraMono-Regular" font-size="32.0" fill="#000000" transform="matrix(1.00, 0.00, -0.00, -1.00, 710.0, 193.0)">&gt;</text><text xml:space="preserve" font-family="FiraMono-Regular" font-size="32.0" fill="#000000" transform="matrix(1.00, 0.00, -0.00, -1.00, 729.2, 193.0)"> </text><text xml:space="preserve" font-family="FiraMono-Regular" font-size="32.0" fill="#000000" transform="matrix(1.00, 0.00, -0.00, -1.00, 38.0, 148.0)"> </text><text xml:space="preserve" font-family="FiraMono-Regular" font-size="32.0" fill="#000000" transform="matrix(1.00, 0.00, -0.00, -1.00, 57.2, 148.0)"> </text><text xml:space="preserve" font-family="FiraMono-Regular" font-size="32.0" fill="#000000" transform="matrix(1.00, 0.00, -0.00, -1.00, 76.4, 148.0)">&lt;</text><text xml:space="preserve" font-family="FiraMono-Regular" font-size="32.0" fill="#000000" transform="matrix(1.00, 0.00, -0.00, -1.00, 95.6, 148.0)">/</text><text xml:space="preserve" font-family="FiraMono-Regular" font-size="32.0" fill="#000000" transform="matrix(1.00, 0.00, -0.00, -1.00, 114.8, 148.0)">b</text><text xml:space="preserve" font-family="FiraMono-Regular" font-size="32.0" fill="#000000" transform="matrix(1.00, 0.00, -0.00, -1.00, 134.0, 148.0)">o</text><text xml:space="preserve" font-family="FiraMono-Regular" font-size="32.0" fill="#000000" transform="matrix(1.00, 0.00, -0.00, -1.00, 153.2, 148.0)">d</text><text xml:space="preserve" font-family="FiraMono-Regular" font-size="32.0" fill="#000000" transform="matrix(1.00, 0.00, -0.00, -1.00, 172.4, 148.0)">y</text><text xml:space="preserve" font-family="FiraMono-Regular" font-size="32.0" fill="#000000" transform="matrix(1.00, 0.00, -0.00, -1.00, 191.6, 148.0)">&gt;</text><text xml:space="preserve" font-family="FiraMono-Regular" font-size="32.0" fill="#000000" transform="matrix(1.00, 0.00, -0.00, -1.00, 210.8, 148.0)"> </text><text xml:space="preserve" font-family="FiraMono-Regular" font-size="32.0" fill="#000000" transform="matrix(1.00, 0.00, -0.00, -1.00, 38.0, 103.0)">&lt;</text><text xml:space="preserve" font-family="FiraMono-Regular" font-size="32.0" fill="#000000" transform="matrix(1.00, 0.00, -0.00, -1.00, 57.2, 103.0)">/</text><text xml:space="preserve" font-family="FiraMono-Regular" font-size="32.0" fill="#000000" transform="matrix(1.00, 0.00, -0.00, -1.00, 76.4, 103.0)">h</text><text xml:space="preserve" font-family="FiraMono-Regular" font-size="32.0" fill="#000000" transform="matrix(1.00, 0.00, -0.00, -1.00, 95.6, 103.0)">t</text><text xml:space="preserve" font-family="FiraMono-Regular" font-size="32.0" fill="#000000" transform="matrix(1.00, 0.00, -0.00, -1.00, 114.8, 103.0)">m</text><text xml:space="preserve" font-family="FiraMono-Regular" font-size="32.0" fill="#000000" transform="matrix(1.00, 0.00, -0.00, -1.00, 134.0, 103.0)">l</text><text xml:space="preserve" font-family="FiraMono-Regular" font-size="32.0" fill="#000000" transform="matrix(1.00, 0.00, -0.00, -1.00, 153.2, 103.0)">&gt;</text><text xml:space="preserve" font-family="FiraMono-Regular" font-size="32.0" fill="#000000" transform="matrix(1.00, 0.00, -0.00, -1.00, 172.4, 103.0)"> </text></g></svg>