<?xml version="1.0" encoding="UTF-8" standalone="no"?><svg xmlns="http://www.w3.org/2000/svg" xmlns:xlink="http://www.w3.org/1999/xlink" clip-rule="evenodd" stroke-miterlimit="4.00" viewBox="0 0 1024 768"><desc>SVG generated by Keynote</desc><defs></defs><g transform="matrix(1.00, 0.00, -0.00, -1.00, 0.0, 768.0)"><path d="M 0.0 768.0 L 1024.0 768.0 L 1024.0 0.0 L 0.0 0.0 Z M 0.0 768.0 " fill="#FEFFFF"></path><text xml:space="preserve" font-family="Helvetica-Light" font-size="16.6" fill="#000000" transform="matrix(1.00, 0.00, -0.00, -1.00, 108.0, 103.0)">S</text><text xml:space="preserve" font-family="Helvetica-Light" font-size="16.6" fill="#000000" transform="matrix(1.00, 0.00, -0.00, -1.00, 118.2, 103.0)">o</text><text xml:space="preserve" font-family="Helvetica-Light" font-size="16.6" fill="#000000" transform="matrix(1.00, 0.00, -0.00, -1.00, 127.4, 103.0)">u</text><text xml:space="preserve" font-family="Helvetica-Light" font-size="16.6" fill="#000000" transform="matrix(1.00, 0.00, -0.00, -1.00, 136.7, 103.0)">r</text><text xml:space="preserve" font-family="Helvetica-Light" font-size="16.6" fill="#000000" transform="matrix(1.00, 0.00, -0.00, -1.00, 141.9, 103.0)">c</text><text xml:space="preserve" font-family="Helvetica-Light" font-size="16.6" fill="#000000" transform="matrix(1.00, 0.00, -0.00, -1.00, 151.2, 103.0)">e</text><text xml:space="preserve" font-family="Helvetica-Light" font-size="16.6" fill="#000000" transform="matrix(1.00, 0.00, -0.00, -1.00, 160.4, 103.0)">:</text><text xml:space="preserve" font-family="Helvetica-Light" font-size="16.6" fill="#000000" transform="matrix(1.00, 0.00, -0.00, -1.00, 165.0, 103.0)"> </text><text xml:space="preserve" font-family="Helvetica-Light" font-size="16.6" fill="#000000" transform="matrix(1.00, 0.00, -0.00, -1.00, 169.7, 103.0)">h</text><text xml:space="preserve" font-family="Helvetica-Light" font-size="16.6" fill="#000000" transform="matrix(1.00, 0.00, -0.00, -1.00, 178.9, 103.0)">t</text><text xml:space="preserve" font-family="Helvetica-Light" font-size="16.6" fill="#000000" transform="matrix(1.00, 0.00, -0.00, -1.00, 183.5, 103.0)">t</text><text xml:space="preserve" font-family="Helvetica-Light" font-size="16.6" fill="#000000" transform="matrix(1.00, 0.00, -0.00, -1.00, 188.2, 103.0)">p</text><text xml:space="preserve" font-family="Helvetica-Light" font-size="16.6" fill="#000000" transform="matrix(1.00, 0.00, -0.00, -1.00, 198.3, 103.0)">:</text><text xml:space="preserve" font-family="Helvetica-Light" font-size="16.6" fill="#000000" transform="matrix(1.00, 0.00, -0.00, -1.00, 203.0, 103.0)">/</text><text xml:space="preserve" font-family="Helvetica-Light" font-size="16.6" fill="#000000" transform="matrix(1.00, 0.00, -0.00, -1.00, 207.6, 103.0)">/</text><text xml:space="preserve" font-family="Helvetica-Light" font-size="16.6" fill="#000000" transform="matrix(1.00, 0.00, -0.00, -1.00, 212.2, 103.0)">w</text><text xml:space="preserve" font-family="Helvetica-Light" font-size="16.6" fill="#000000" transform="matrix(1.00, 0.00, -0.00, -1.00, 224.2, 103.0)">w</text><text xml:space="preserve" font-family="Helvetica-Light" font-size="16.6" fill="#000000" transform="matrix(1.00, 0.00, -0.00, -1.00, 236.2, 103.0)">w</text><text xml:space="preserve" font-family="Helvetica-Light" font-size="16.6" fill="#000000" transform="matrix(1.00, 0.00, -0.00, -1.00, 247.3, 103.0)">.</text><text xml:space="preserve" font-family="Helvetica-Light" font-size="16.6" fill="#000000" transform="matrix(1.00, 0.00, -0.00, -1.00, 252.0, 103.0)">z</text><text xml:space="preserve" font-family="Helvetica-Light" font-size="16.6" fill="#000000" transform="matrix(1.00, 0.00, -0.00, -1.00, 260.3, 103.0)">e</text><text xml:space="preserve" font-family="Helvetica-Light" font-size="16.6" fill="#000000" transform="matrix(1.00, 0.00, -0.00, -1.00, 269.5, 103.0)">e</text><text xml:space="preserve" font-family="Helvetica-Light" font-size="16.6" fill="#000000" transform="matrix(1.00, 0.00, -0.00, -1.00, 278.8, 103.0)">n</text><text xml:space="preserve" font-family="Helvetica-Light" font-size="16.6" fill="#000000" transform="matrix(1.00, 0.00, -0.00, -1.00, 288.0, 103.0)">d</text><text xml:space="preserve" font-family="Helvetica-Light" font-size="16.6" fill="#000000" transform="matrix(1.00, 0.00, -0.00, -1.00, 298.2, 103.0)">o</text><text xml:space="preserve" font-family="Helvetica-Light" font-size="16.6" fill="#000000" transform="matrix(1.00, 0.00, -0.00, -1.00, 307.5, 103.0)">.</text><text xml:space="preserve" font-family="Helvetica-Light" font-size="16.6" fill="#000000" transform="matrix(1.00, 0.00, -0.00, -1.00, 312.1, 103.0)">c</text><text xml:space="preserve" font-family="Helvetica-Light" font-size="16.6" fill="#000000" transform="matrix(1.00, 0.00, -0.00, -1.00, 321.3, 103.0)">o</text><text xml:space="preserve" font-family="Helvetica-Light" font-size="16.6" fill="#000000" transform="matrix(1.00, 0.00, -0.00, -1.00, 330.6, 103.0)">m</text><text xml:space="preserve" font-family="Helvetica-Light" font-size="16.6" fill="#000000" transform="matrix(1.00, 0.00, -0.00, -1.00, 344.5, 103.0)">/</text><text xml:space="preserve" font-family="Helvetica-Light" font-size="16.6" fill="#000000" transform="matrix(1.00, 0.00, -0.00, -1.00, 349.1, 103.0)">i</text><text xml:space="preserve" font-family="Helvetica-Light" font-size="16.6" fill="#000000" transform="matrix(1.00, 0.00, -0.00, -1.00, 352.8, 103.0)">n</text><text xml:space="preserve" font-family="Helvetica-Light" font-size="16.6" fill="#000000" transform="matrix(1.00, 0.00, -0.00, -1.00, 362.0, 103.0)">f</text><text xml:space="preserve" font-family="Helvetica-Light" font-size="16.6" fill="#000000" transform="matrix(1.00, 0.00, -0.00, -1.00, 366.7, 103.0)">o</text><text xml:space="preserve" font-family="Helvetica-Light" font-size="16.6" fill="#000000" transform="matrix(1.00, 0.00, -0.00, -1.00, 375.9, 103.0)">/</text><text xml:space="preserve" font-family="Helvetica-Light" font-size="16.6" fill="#000000" transform="matrix(1.00, 0.00, -0.00, -1.00, 380.5, 103.0)">w</text><text xml:space="preserve" font-family="Helvetica-Light" font-size="16.6" fill="#000000" transform="matrix(1.00, 0.00, -0.00, -1.00, 392.5, 103.0)">p</text><text xml:space="preserve" font-family="Helvetica-Light" font-size="16.6" fill="#000000" transform="matrix(1.00, 0.00, -0.00, -1.00, 402.7, 103.0)">-</text><text xml:space="preserve" font-family="Helvetica-Light" font-size="16.6" fill="#000000" transform="matrix(1.00, 0.00, -0.00, -1.00, 408.3, 103.0)">c</text><text xml:space="preserve" font-family="Helvetica-Light" font-size="16.6" fill="#000000" transform="matrix(1.00, 0.00, -0.00, -1.00, 417.5, 103.0)">o</text><text xml:space="preserve" font-family="Helvetica-Light" font-size="16.6" fill="#000000" transform="matrix(1.00, 0.00, -0.00, -1.00, 426.8, 103.0)">n</text><text xml:space="preserve" font-family="Helvetica-Light" font-size="16.6" fill="#000000" transform="matrix(1.00, 0.00, -0.00, -1.00, 436.0, 103.0)">t</text><text xml:space="preserve" font-family="Helvetica-Light" font-size="16.6" fill="#000000" transform="matrix(1.00, 0.00, -0.00, -1.00, 440.6, 103.0)">e</text><text xml:space="preserve" font-family="Helvetica-Light" font-size="16.6" fill="#000000" transform="matrix(1.00, 0.00, -0.00, -1.00, 449.9, 103.0)">n</text><text xml:space="preserve" font-family="Helvetica-Light" font-size="16.6" fill="#000000" transform="matrix(1.00, 0.00, -0.00, -1.00, 459.1, 103.0)">t</text><text xml:space="preserve" font-family="Helvetica-Light" font-size="16.6" fill="#000000" transform="matrix(1.00, 0.00, -0.00, -1.00, 463.8, 103.0)">/</text><text xml:space="preserve" font-family="Helvetica-Light" font-size="16.6" fill="#000000" transform="matrix(1.00, 0.00, -0.00, -1.00, 468.4, 103.0)">u</text><text xml:space="preserve" font-family="Helvetica-Light" font-size="16.6" fill="#000000" transform="matrix(1.00, 0.00, -0.00, -1.00, 477.6, 103.0)">p</text><text xml:space="preserve" font-family="Helvetica-Light" font-size="16.6" fill="#000000" transform="matrix(1.00, 0.00, -0.00, -1.00, 487.8, 103.0)">l</text><text xml:space="preserve" font-family="Helvetica-Light" font-size="16.6" fill="#000000" transform="matrix(1.00, 0.00, -0.00, -1.00, 491.5, 103.0)">o</text><text xml:space="preserve" font-family="Helvetica-Light" font-size="16.6" fill="#000000" transform="matrix(1.00, 0.00, -0.00, -1.00, 500.8, 103.0)">a</text><text xml:space="preserve" font-family="Helvetica-Light" font-size="16.6" fill="#000000" transform="matrix(1.00, 0.00, -0.00, -1.00, 510.0, 103.0)">d</text><text xml:space="preserve" font-family="Helvetica-Light" font-size="16.6" fill="#000000" transform="matrix(1.00, 0.00, -0.00, -1.00, 520.2, 103.0)">s</text><text xml:space="preserve" font-family="Helvetica-Light" font-size="16.6" fill="#000000" transform="matrix(1.00, 0.00, -0.00, -1.00, 528.5, 103.0)">/</text><text xml:space="preserve" font-family="Helvetica-Light" font-size="16.6" fill="#000000" transform="matrix(1.00, 0.00, -0.00, -1.00, 533.1, 103.0)">2</text><text xml:space="preserve" font-family="Helvetica-Light" font-size="16.6" fill="#000000" transform="matrix(1.00, 0.00, -0.00, -1.00, 542.4, 103.0)">0</text><text xml:space="preserve" font-family="Helvetica-Light" font-size="16.6" fill="#000000" transform="matrix(1.00, 0.00, -0.00, -1.00, 551.6, 103.0)">1</text><text xml:space="preserve" font-family="Helvetica-Light" font-size="16.6" fill="#000000" transform="matrix(1.00, 0.00, -0.00, -1.00, 560.9, 103.0)">3</text><text xml:space="preserve" font-family="Helvetica-Light" font-size="16.6" fill="#000000" transform="matrix(1.00, 0.00, -0.00, -1.00, 570.1, 103.0)">/</text><text xml:space="preserve" font-family="Helvetica-Light" font-size="16.6" fill="#000000" transform="matrix(1.00, 0.00, -0.00, -1.00, 574.8, 103.0)">0</text><text xml:space="preserve" font-family="Helvetica-Light" font-size="16.6" fill="#000000" transform="matrix(1.00, 0.00, -0.00, -1.00, 584.0, 103.0)">9</text><text xml:space="preserve" font-family="Helvetica-Light" font-size="16.6" fill="#000000" transform="matrix(1.00, 0.00, -0.00, -1.00, 593.3, 103.0)">/</text><text xml:space="preserve" font-family="Helvetica-Light" font-size="16.6" fill="#000000" transform="matrix(1.00, 0.00, -0.00, -1.00, 597.9, 103.0)">T</text><text xml:space="preserve" font-family="Helvetica-Light" font-size="16.6" fill="#000000" transform="matrix(1.00, 0.00, -0.00, -1.00, 607.1, 103.0)">i</text><text xml:space="preserve" font-family="Helvetica-Light" font-size="16.6" fill="#000000" transform="matrix(1.00, 0.00, -0.00, -1.00, 610.8, 103.0)">m</text><text xml:space="preserve" font-family="Helvetica-Light" font-size="16.6" fill="#000000" transform="matrix(1.00, 0.00, -0.00, -1.00, 624.7, 103.0)">e</text><text xml:space="preserve" font-family="Helvetica-Light" font-size="16.6" fill="#000000" transform="matrix(1.00, 0.00, -0.00, -1.00, 633.9, 103.0)">l</text><text xml:space="preserve" font-family="Helvetica-Light" font-size="16.6" fill="#000000" transform="matrix(1.00, 0.00, -0.00, -1.00, 637.6, 103.0)">i</text><text xml:space="preserve" font-family="Helvetica-Light" font-size="16.6" fill="#000000" transform="matrix(1.00, 0.00, -0.00, -1.00, 641.3, 103.0)">n</text><text xml:space="preserve" font-family="Helvetica-Light" font-size="16.6" fill="#000000" transform="matrix(1.00, 0.00, -0.00, -1.00, 650.6, 103.0)">e</text><text xml:space="preserve" font-family="Helvetica-Light" font-size="16.6" fill="#000000" transform="matrix(1.00, 0.00, -0.00, -1.00, 659.8, 103.0)">-</text><text xml:space="preserve" font-family="Helvetica-Light" font-size="16.6" fill="#000000" transform="matrix(1.00, 0.00, -0.00, -1.00, 665.4, 103.0)">o</text><text xml:space="preserve" font-family="Helvetica-Light" font-size="16.6" fill="#000000" transform="matrix(1.00, 0.00, -0.00, -1.00, 674.6, 103.0)">f</text><text xml:space="preserve" font-family="Helvetica-Light" font-size="16.6" fill="#000000" transform="matrix(1.00, 0.00, -0.00, -1.00, 679.3, 103.0)">-</text><text xml:space="preserve" font-family="Helvetica-Light" font-size="16.6" fill="#000000" transform="matrix(1.00, 0.00, -0.00, -1.00, 684.8, 103.0)">w</text><text xml:space="preserve" font-family="Helvetica-Light" font-size="16.6" fill="#000000" transform="matrix(1.00, 0.00, -0.00, -1.00, 696.8, 103.0)">e</text><text xml:space="preserve" font-family="Helvetica-Light" font-size="16.6" fill="#000000" transform="matrix(1.00, 0.00, -0.00, -1.00, 706.1, 103.0)">b</text><text xml:space="preserve" font-family="Helvetica-Light" font-size="16.6" fill="#000000" transform="matrix(1.00, 0.00, -0.00, -1.00, 716.2, 103.0)">-</text><text xml:space="preserve" font-family="Helvetica-Light" font-size="16.6" fill="#000000" transform="matrix(1.00, 0.00, -0.00, -1.00, 721.8, 103.0)">t</text><text xml:space="preserve" font-family="Helvetica-Light" font-size="16.6" fill="#000000" transform="matrix(1.00, 0.00, -0.00, -1.00, 726.4, 103.0)">e</text><text xml:space="preserve" font-family="Helvetica-Light" font-size="16.6" fill="#000000" transform="matrix(1.00, 0.00, -0.00, -1.00, 735.6, 103.0)">c</text><text xml:space="preserve" font-family="Helvetica-Light" font-size="16.6" fill="#000000" transform="matrix(1.00, 0.00, -0.00, -1.00, 744.9, 103.0)">h</text><text xml:space="preserve" font-family="Helvetica-Light" font-size="16.6" fill="#000000" transform="matrix(1.00, 0.00, -0.00, -1.00, 754.1, 103.0)">n</text><text xml:space="preserve" font-family="Helvetica-Light" font-size="16.6" fill="#000000" transform="matrix(1.00, 0.00, -0.00, -1.00, 763.4, 103.0)">o</text><text xml:space="preserve" font-family="Helvetica-Light" font-size="16.6" fill="#000000" transform="matrix(1.00, 0.00, -0.00, -1.00, 772.7, 103.0)">l</text><text xml:space="preserve" font-family="Helvetica-Light" font-size="16.6" fill="#000000" transform="matrix(1.00, 0.00, -0.00, -1.00, 776.3, 103.0)">o</text><text xml:space="preserve" font-family="Helvetica-Light" font-size="16.6" fill="#000000" transform="matrix(1.00, 0.00, -0.00, -1.00, 785.6, 103.0)">g</text><text xml:space="preserve" font-family="Helvetica-Light" font-size="16.6" fill="#000000" transform="matrix(1.00, 0.00, -0.00, -1.00, 795.8, 103.0)">i</text><text xml:space="preserve" font-family="Helvetica-Light" font-size="16.6" fill="#000000" transform="matrix(1.00, 0.00, -0.00, -1.00, 799.5, 103.0)">e</text><text xml:space="preserve" font-family="Helvetica-Light" font-size="16.6" fill="#000000" transform="matrix(1.00, 0.00, -0.00, -1.00, 808.7, 103.0)">s</text><text xml:space="preserve" font-family="Helvetica-Light" font-size="16.6" fill="#000000" transform="matrix(1.00, 0.00, -0.00, -1.00, 817.0, 103.0)">-</text><text xml:space="preserve" font-family="Helvetica-Light" font-size="16.6" fill="#000000" transform="matrix(1.00, 0.00, -0.00, -1.00, 822.6, 103.0)">6</text><text xml:space="preserve" font-family="Helvetica-Light" font-size="16.6" fill="#000000" transform="matrix(1.00, 0.00, -0.00, -1.00, 831.8, 103.0)">3</text><text xml:space="preserve" font-family="Helvetica-Light" font-size="16.6" fill="#000000" transform="matrix(1.00, 0.00, -0.00, -1.00, 841.1, 103.0)">9</text><text xml:space="preserve" font-family="Helvetica-Light" font-size="16.6" fill="#000000" transform="matrix(1.00, 0.00, -0.00, -1.00, 850.3, 103.0)">x</text><text xml:space="preserve" font-family="Helvetica-Light" font-size="16.6" fill="#000000" transform="matrix(1.00, 0.00, -0.00, -1.00, 858.6, 103.0)">1</text><text xml:space="preserve" font-family="Helvetica-Light" font-size="16.6" fill="#000000" transform="matrix(1.00, 0.00, -0.00, -1.00, 867.9, 103.0)">6</text><text xml:space="preserve" font-family="Helvetica-Light" font-size="16.6" fill="#000000" transform="matrix(1.00, 0.00, -0.00, -1.00, 877.2, 103.0)">8</text><text xml:space="preserve" font-family="Helvetica-Light" font-size="16.6" fill="#000000" transform="matrix(1.00, 0.00, -0.00, -1.00, 886.4, 103.0)">.</text><text xml:space="preserve" font-family="Helvetica-Light" font-size="16.6" fill="#000000" transform="matrix(1.00, 0.00, -0.00, -1.00, 891.0, 103.0)">j</text><text xml:space="preserve" font-family="Helvetica-Light" font-size="16.6" fill="#000000" transform="matrix(1.00, 0.00, -0.00, -1.00, 894.7, 103.0)">p</text><text xml:space="preserve" font-family="Helvetica-Light" font-size="16.6" fill="#000000" transform="matrix(1.00, 0.00, -0.00, -1.00, 904.9, 103.0)">g</text><text xml:space="preserve" font-family="Helvetica-Light" font-size="16.6" fill="#000000" transform="matrix(1.00, 0.00, -0.00, -1.00, 915.1, 103.0)"> </text><g><clipPath id="clip-30"><path d="M 169.1 100.2 L 915.5 100.2 L 915.5 103.0 L 169.1 103.0 Z M 169.1 100.2 "></path></clipPath><g clip-path="url(#clip-30)"><path d="M 70.1 21.4 L 815.5 21.4 " fill="none" stroke="#000000" stroke-width="0.83" stroke-miterlimit="0.00" transform="matrix(1.00, 0.00, 0.00, -1.00, 100.0, 123.0)"></path></g></g><text xml:space="preserve" font-family="Helvetica-Light" font-size="16.6" fill="#000000" transform="matrix(1.00, 0.00, -0.00, -1.00, 381.0, 63.0)">h</text><text xml:space="preserve" font-family="Helvetica-Light" font-size="16.6" fill="#000000" transform="matrix(1.00, 0.00, -0.00, -1.00, 390.3, 63.0)">t</text><text xml:space="preserve" font-family="Helvetica-Light" font-size="16.6" fill="#000000" transform="matrix(1.00, 0.00, -0.00, -1.00, 394.9, 63.0)">t</text><text xml:space="preserve" font-family="Helvetica-Light" font-size="16.6" fill="#000000" transform="matrix(1.00, 0.00, -0.00, -1.00, 399.5, 63.0)">p</text><text xml:space="preserve" font-family="Helvetica-Light" font-size="16.6" fill="#000000" transform="matrix(1.00, 0.00, -0.00, -1.00, 409.7, 63.0)">:</text><text xml:space="preserve" font-family="Helvetica-Light" font-size="16.6" fill="#000000" transform="matrix(1.00, 0.00, -0.00, -1.00, 414.3, 63.0)">/</text><text xml:space="preserve" font-family="Helvetica-Light" font-size="16.6" fill="#000000" transform="matrix(1.00, 0.00, -0.00, -1.00, 418.9, 63.0)">/</text><text xml:space="preserve" font-family="Helvetica-Light" font-size="16.6" fill="#000000" transform="matrix(1.00, 0.00, -0.00, -1.00, 423.5, 63.0)">e</text><text xml:space="preserve" font-family="Helvetica-Light" font-size="16.6" fill="#000000" transform="matrix(1.00, 0.00, -0.00, -1.00, 432.8, 63.0)">v</text><text xml:space="preserve" font-family="Helvetica-Light" font-size="16.6" fill="#000000" transform="matrix(1.00, 0.00, -0.00, -1.00, 441.1, 63.0)">o</text><text xml:space="preserve" font-family="Helvetica-Light" font-size="16.6" fill="#000000" transform="matrix(1.00, 0.00, -0.00, -1.00, 450.4, 63.0)">l</text><text xml:space="preserve" font-family="Helvetica-Light" font-size="16.6" fill="#000000" transform="matrix(1.00, 0.00, -0.00, -1.00, 454.1, 63.0)">u</text><text xml:space="preserve" font-family="Helvetica-Light" font-size="16.6" fill="#000000" transform="matrix(1.00, 0.00, -0.00, -1.00, 463.3, 63.0)">t</text><text xml:space="preserve" font-family="Helvetica-Light" font-size="16.6" fill="#000000" transform="matrix(1.00, 0.00, -0.00, -1.00, 467.9, 63.0)">i</text><text xml:space="preserve" font-family="Helvetica-Light" font-size="16.6" fill="#000000" transform="matrix(1.00, 0.00, -0.00, -1.00, 471.6, 63.0)">o</text><text xml:space="preserve" font-family="Helvetica-Light" font-size="16.6" fill="#000000" transform="matrix(1.00, 0.00, -0.00, -1.00, 480.9, 63.0)">n</text><text xml:space="preserve" font-family="Helvetica-Light" font-size="16.6" fill="#000000" transform="matrix(1.00, 0.00, -0.00, -1.00, 490.1, 63.0)">o</text><text xml:space="preserve" font-family="Helvetica-Light" font-size="16.6" fill="#000000" transform="matrix(1.00, 0.00, -0.00, -1.00, 499.4, 63.0)">f</text><text xml:space="preserve" font-family="Helvetica-Light" font-size="16.6" fill="#000000" transform="matrix(1.00, 0.00, -0.00, -1.00, 504.0, 63.0)">w</text><text xml:space="preserve" font-family="Helvetica-Light" font-size="16.6" fill="#000000" transform="matrix(1.00, 0.00, -0.00, -1.00, 516.0, 63.0)">e</text><text xml:space="preserve" font-family="Helvetica-Light" font-size="16.6" fill="#000000" transform="matrix(1.00, 0.00, -0.00, -1.00, 525.3, 63.0)">b</text><text xml:space="preserve" font-family="Helvetica-Light" font-size="16.6" fill="#000000" transform="matrix(1.00, 0.00, -0.00, -1.00, 535.5, 63.0)">.</text><text xml:space="preserve" font-family="Helvetica-Light" font-size="16.6" fill="#000000" transform="matrix(1.00, 0.00, -0.00, -1.00, 540.1, 63.0)">a</text><text xml:space="preserve" font-family="Helvetica-Light" font-size="16.6" fill="#000000" transform="matrix(1.00, 0.00, -0.00, -1.00, 549.3, 63.0)">p</text><text xml:space="preserve" font-family="Helvetica-Light" font-size="16.6" fill="#000000" transform="matrix(1.00, 0.00, -0.00, -1.00, 559.5, 63.0)">p</text><text xml:space="preserve" font-family="Helvetica-Light" font-size="16.6" fill="#000000" transform="matrix(1.00, 0.00, -0.00, -1.00, 569.7, 63.0)">s</text><text xml:space="preserve" font-family="Helvetica-Light" font-size="16.6" fill="#000000" transform="matrix(1.00, 0.00, -0.00, -1.00, 578.0, 63.0)">p</text><text xml:space="preserve" font-family="Helvetica-Light" font-size="16.6" fill="#000000" transform="matrix(1.00, 0.00, -0.00, -1.00, 588.2, 63.0)">o</text><text xml:space="preserve" font-family="Helvetica-Light" font-size="16.6" fill="#000000" transform="matrix(1.00, 0.00, -0.00, -1.00, 597.4, 63.0)">t</text><text xml:space="preserve" font-family="Helvetica-Light" font-size="16.6" fill="#000000" transform="matrix(1.00, 0.00, -0.00, -1.00, 602.0, 63.0)">.</text><text xml:space="preserve" font-family="Helvetica-Light" font-size="16.6" fill="#000000" transform="matrix(1.00, 0.00, -0.00, -1.00, 606.7, 63.0)">c</text><text xml:space="preserve" font-family="Helvetica-Light" font-size="16.6" fill="#000000" transform="matrix(1.00, 0.00, -0.00, -1.00, 615.9, 63.0)">o</text><text xml:space="preserve" font-family="Helvetica-Light" font-size="16.6" fill="#000000" transform="matrix(1.00, 0.00, -0.00, -1.00, 625.2, 63.0)">m</text><text xml:space="preserve" font-family="Helvetica-Light" font-size="16.6" fill="#000000" transform="matrix(1.00, 0.00, -0.00, -1.00, 639.0, 63.0)">/</text><text xml:space="preserve" font-family="Helvetica-Light" font-size="16.6" fill="#000000" transform="matrix(1.00, 0.00, -0.00, -1.00, 643.6, 63.0)"> </text><g><clipPath id="clip-31"><path d="M 379.7 60.2 L 643.3 60.2 L 643.3 63.0 L 379.7 63.0 Z M 379.7 60.2 "></path></clipPath><g clip-path="url(#clip-31)"><path d="M 280.7 61.4 L 543.3 61.4 " fill="none" stroke="#000000" stroke-width="0.83" stroke-miterlimit="0.00" transform="matrix(1.00, 0.00, 0.00, -1.00, 100.0, 123.0)"></path></g></g><image xlink:href="F24DC03914D4F4EC645B6EDEAB3C313A.png" width="639.00" height="168.00" transform="matrix(1.41, 0.00, -0.00, -1.42, 60.0, 503.0)"></image></g></svg>