<?xml version="1.0" encoding="UTF-8" standalone="no"?><svg xmlns="http://www.w3.org/2000/svg" xmlns:xlink="http://www.w3.org/1999/xlink" clip-rule="evenodd" stroke-miterlimit="4.00" viewBox="0 0 1024 768"><desc>SVG generated by Keynote</desc><defs></defs><g transform="matrix(1.00, 0.00, -0.00, -1.00, 0.0, 768.0)"><path d="M 0.0 768.0 L 1024.0 768.0 L 1024.0 0.0 L 0.0 0.0 Z M 0.0 768.0 " fill="#FEFFFF"></path><text xml:space="preserve" font-family="AvenirNext-DemiBold" font-weight="bold" font-size="80.0" fill="#000000" transform="matrix(1.00, 0.00, -0.00, -1.00, 238.0, 622.0)">A</text><text xml:space="preserve" font-family="AvenirNext-DemiBold" font-weight="bold" font-size="80.0" fill="#000000" transform="matrix(1.00, 0.00, -0.00, -1.00, 294.5, 622.0)">d</text><text xml:space="preserve" font-family="AvenirNext-DemiBold" font-weight="bold" font-size="80.0" fill="#000000" transform="matrix(1.00, 0.00, -0.00, -1.00, 345.2, 622.0)">d</text><text xml:space="preserve" font-family="AvenirNext-DemiBold" font-weight="bold" font-size="80.0" fill="#000000" transform="matrix(1.00, 0.00, -0.00, -1.00, 395.9, 622.0)">i</text><text xml:space="preserve" font-family="AvenirNext-DemiBold" font-weight="bold" font-size="80.0" fill="#000000" transform="matrix(1.00, 0.00, -0.00, -1.00, 417.4, 622.0)">n</text><text xml:space="preserve" font-family="AvenirNext-DemiBold" font-weight="bold" font-size="80.0" fill="#000000" transform="matrix(1.00, 0.00, -0.00, -1.00, 463.9, 622.0)">g</text><text xml:space="preserve" font-family="AvenirNext-DemiBold" font-weight="bold" font-size="80.0" fill="#000000" transform="matrix(1.00, 0.00, -0.00, -1.00, 514.5, 622.0)"> </text><text xml:space="preserve" font-family="AvenirNext-DemiBold" font-weight="bold" font-size="80.0" fill="#000000" transform="matrix(1.00, 0.00, -0.00, -1.00, 534.5, 622.0)">j</text><text xml:space="preserve" font-family="AvenirNext-DemiBold" font-weight="bold" font-size="80.0" fill="#000000" transform="matrix(1.00, 0.00, -0.00, -1.00, 555.9, 622.0)">Q</text><text xml:space="preserve" font-family="AvenirNext-DemiBold" font-weight="bold" font-size="80.0" fill="#000000" transform="matrix(1.00, 0.00, -0.00, -1.00, 624.1, 622.0)">u</text><text xml:space="preserve" font-family="AvenirNext-DemiBold" font-weight="bold" font-size="80.0" fill="#000000" transform="matrix(1.00, 0.00, -0.00, -1.00, 670.6, 622.0)">e</text><text xml:space="preserve" font-family="AvenirNext-DemiBold" font-weight="bold" font-size="80.0" fill="#000000" transform="matrix(1.00, 0.00, -0.00, -1.00, 716.6, 622.0)">r</text><text xml:space="preserve" font-family="AvenirNext-DemiBold" font-weight="bold" font-size="80.0" fill="#000000" transform="matrix(1.00, 0.00, -0.00, -1.00, 745.7, 622.0)">y</text><path d="M 770.7 417.0 L 943.5 417.0 L 943.5 366.0 L 770.7 366.0 Z M 770.7 417.0 " fill="#FEFFFF"></path><path d="M 705.9 315.0 L 878.7 315.0 L 878.7 264.0 L 705.9 264.0 Z M 705.9 315.0 " fill="#FEFFFF"></path><text xml:space="preserve" font-family="FiraMono-Regular" font-size="36.0" fill="#000000" transform="matrix(1.00, 0.00, -0.00, -1.00, 58.0, 379.0)">&lt;</text><text xml:space="preserve" font-family="FiraMono-Regular" font-size="36.0" fill="#000000" transform="matrix(1.00, 0.00, -0.00, -1.00, 79.6, 379.0)">s</text><text xml:space="preserve" font-family="FiraMono-Regular" font-size="36.0" fill="#000000" transform="matrix(1.00, 0.00, -0.00, -1.00, 101.2, 379.0)">c</text><text xml:space="preserve" font-family="FiraMono-Regular" font-size="36.0" fill="#000000" transform="matrix(1.00, 0.00, -0.00, -1.00, 122.8, 379.0)">r</text><text xml:space="preserve" font-family="FiraMono-Regular" font-size="36.0" fill="#000000" transform="matrix(1.00, 0.00, -0.00, -1.00, 144.4, 379.0)">i</text><text xml:space="preserve" font-family="FiraMono-Regular" font-size="36.0" fill="#000000" transform="matrix(1.00, 0.00, -0.00, -1.00, 166.0, 379.0)">p</text><text xml:space="preserve" font-family="FiraMono-Regular" font-size="36.0" fill="#000000" transform="matrix(1.00, 0.00, -0.00, -1.00, 187.6, 379.0)">t</text><text xml:space="preserve" font-family="FiraMono-Regular" font-size="36.0" fill="#000000" transform="matrix(1.00, 0.00, -0.00, -1.00, 209.2, 379.0)"> </text><text xml:space="preserve" font-family="FiraMono-Regular" font-size="36.0" fill="#000000" transform="matrix(1.00, 0.00, -0.00, -1.00, 230.8, 379.0)">s</text><text xml:space="preserve" font-family="FiraMono-Regular" font-size="36.0" fill="#000000" transform="matrix(1.00, 0.00, -0.00, -1.00, 252.4, 379.0)">r</text><text xml:space="preserve" font-family="FiraMono-Regular" font-size="36.0" fill="#000000" transform="matrix(1.00, 0.00, -0.00, -1.00, 274.0, 379.0)">c</text><text xml:space="preserve" font-family="FiraMono-Regular" font-size="36.0" fill="#000000" transform="matrix(1.00, 0.00, -0.00, -1.00, 295.6, 379.0)">=</text><text xml:space="preserve" font-family="FiraMono-Regular" font-size="36.0" fill="#B96800" transform="matrix(1.00, 0.00, -0.00, -1.00, 317.2, 379.0)">“</text><text xml:space="preserve" font-family="FiraMono-Regular" font-size="36.0" fill="#B96800" transform="matrix(1.00, 0.00, -0.00, -1.00, 338.8, 379.0)">l</text><text xml:space="preserve" font-family="FiraMono-Regular" font-size="36.0" fill="#B96800" transform="matrix(1.00, 0.00, -0.00, -1.00, 360.4, 379.0)">i</text><text xml:space="preserve" font-family="FiraMono-Regular" font-size="36.0" fill="#B96800" transform="matrix(1.00, 0.00, -0.00, -1.00, 382.0, 379.0)">n</text><text xml:space="preserve" font-family="FiraMono-Regular" font-size="36.0" fill="#B96800" transform="matrix(1.00, 0.00, -0.00, -1.00, 403.6, 379.0)">k</text><text xml:space="preserve" font-family="FiraMono-Regular" font-size="36.0" fill="#B96800" transform="matrix(1.00, 0.00, -0.00, -1.00, 425.2, 379.0)">/</text><text xml:space="preserve" font-family="FiraMono-Regular" font-size="36.0" fill="#B96800" transform="matrix(1.00, 0.00, -0.00, -1.00, 446.8, 379.0)">t</text><text xml:space="preserve" font-family="FiraMono-Regular" font-size="36.0" fill="#B96800" transform="matrix(1.00, 0.00, -0.00, -1.00, 468.4, 379.0)">o</text><text xml:space="preserve" font-family="FiraMono-Regular" font-size="36.0" fill="#B96800" transform="matrix(1.00, 0.00, -0.00, -1.00, 490.0, 379.0)">/</text><text xml:space="preserve" font-family="FiraMono-Regular" font-size="36.0" fill="#B96800" transform="matrix(1.00, 0.00, -0.00, -1.00, 511.6, 379.0)">j</text><text xml:space="preserve" font-family="FiraMono-Regular" font-size="36.0" fill="#B96800" transform="matrix(1.00, 0.00, -0.00, -1.00, 533.2, 379.0)">q</text><text xml:space="preserve" font-family="FiraMono-Regular" font-size="36.0" fill="#B96800" transform="matrix(1.00, 0.00, -0.00, -1.00, 554.8, 379.0)">u</text><text xml:space="preserve" font-family="FiraMono-Regular" font-size="36.0" fill="#B96800" transform="matrix(1.00, 0.00, -0.00, -1.00, 576.4, 379.0)">e</text><text xml:space="preserve" font-family="FiraMono-Regular" font-size="36.0" fill="#B96800" transform="matrix(1.00, 0.00, -0.00, -1.00, 598.0, 379.0)">r</text><text xml:space="preserve" font-family="FiraMono-Regular" font-size="36.0" fill="#B96800" transform="matrix(1.00, 0.00, -0.00, -1.00, 619.6, 379.0)">y</text><text xml:space="preserve" font-family="FiraMono-Regular" font-size="36.0" fill="#B96800" transform="matrix(1.00, 0.00, -0.00, -1.00, 641.2, 379.0)">.</text><text xml:space="preserve" font-family="FiraMono-Regular" font-size="36.0" fill="#B96800" transform="matrix(1.00, 0.00, -0.00, -1.00, 662.8, 379.0)">j</text><text xml:space="preserve" font-family="FiraMono-Regular" font-size="36.0" fill="#B96800" transform="matrix(1.00, 0.00, -0.00, -1.00, 684.4, 379.0)">s</text><text xml:space="preserve" font-family="FiraMono-Regular" font-size="36.0" fill="#B96800" transform="matrix(1.00, 0.00, -0.00, -1.00, 706.0, 379.0)">"</text><text xml:space="preserve" font-family="FiraMono-Regular" font-size="36.0" fill="#000000" transform="matrix(1.00, 0.00, -0.00, -1.00, 727.6, 379.0)">&gt;</text><text xml:space="preserve" font-family="FiraMono-Regular" font-size="36.0" fill="#000000" transform="matrix(1.00, 0.00, -0.00, -1.00, 749.2, 379.0)">&lt;</text><text xml:space="preserve" font-family="FiraMono-Regular" font-size="36.0" fill="#000000" transform="matrix(1.00, 0.00, -0.00, -1.00, 770.8, 379.0)">/</text><text xml:space="preserve" font-family="FiraMono-Regular" font-size="36.0" fill="#000000" transform="matrix(1.00, 0.00, -0.00, -1.00, 792.4, 379.0)">s</text><text xml:space="preserve" font-family="FiraMono-Regular" font-size="36.0" fill="#000000" transform="matrix(1.00, 0.00, -0.00, -1.00, 814.0, 379.0)">c</text><text xml:space="preserve" font-family="FiraMono-Regular" font-size="36.0" fill="#000000" transform="matrix(1.00, 0.00, -0.00, -1.00, 835.6, 379.0)">r</text><text xml:space="preserve" font-family="FiraMono-Regular" font-size="36.0" fill="#000000" transform="matrix(1.00, 0.00, -0.00, -1.00, 857.2, 379.0)">i</text><text xml:space="preserve" font-family="FiraMono-Regular" font-size="36.0" fill="#000000" transform="matrix(1.00, 0.00, -0.00, -1.00, 878.8, 379.0)">p</text><text xml:space="preserve" font-family="FiraMono-Regular" font-size="36.0" fill="#000000" transform="matrix(1.00, 0.00, -0.00, -1.00, 900.4, 379.0)">t</text><text xml:space="preserve" font-family="FiraMono-Regular" font-size="36.0" fill="#000000" transform="matrix(1.00, 0.00, -0.00, -1.00, 922.0, 379.0)">&gt;</text><text xml:space="preserve" font-family="FiraMono-Regular" font-size="36.0" fill="#000000" transform="matrix(1.00, 0.00, -0.00, -1.00, 943.6, 379.0)"> </text><text xml:space="preserve" font-family="FiraMono-Regular" font-size="36.0" fill="#000000" transform="matrix(1.00, 0.00, -0.00, -1.00, 58.0, 277.0)">&lt;</text><text xml:space="preserve" font-family="FiraMono-Regular" font-size="36.0" fill="#000000" transform="matrix(1.00, 0.00, -0.00, -1.00, 79.6, 277.0)">s</text><text xml:space="preserve" font-family="FiraMono-Regular" font-size="36.0" fill="#000000" transform="matrix(1.00, 0.00, -0.00, -1.00, 101.2, 277.0)">c</text><text xml:space="preserve" font-family="FiraMono-Regular" font-size="36.0" fill="#000000" transform="matrix(1.00, 0.00, -0.00, -1.00, 122.8, 277.0)">r</text><text xml:space="preserve" font-family="FiraMono-Regular" font-size="36.0" fill="#000000" transform="matrix(1.00, 0.00, -0.00, -1.00, 144.4, 277.0)">i</text><text xml:space="preserve" font-family="FiraMono-Regular" font-size="36.0" fill="#000000" transform="matrix(1.00, 0.00, -0.00, -1.00, 166.0, 277.0)">p</text><text xml:space="preserve" font-family="FiraMono-Regular" font-size="36.0" fill="#000000" transform="matrix(1.00, 0.00, -0.00, -1.00, 187.6, 277.0)">t</text><text xml:space="preserve" font-family="FiraMono-Regular" font-size="36.0" fill="#000000" transform="matrix(1.00, 0.00, -0.00, -1.00, 209.2, 277.0)"> </text><text xml:space="preserve" font-family="FiraMono-Regular" font-size="36.0" fill="#000000" transform="matrix(1.00, 0.00, -0.00, -1.00, 230.8, 277.0)">s</text><text xml:space="preserve" font-family="FiraMono-Regular" font-size="36.0" fill="#000000" transform="matrix(1.00, 0.00, -0.00, -1.00, 252.4, 277.0)">r</text><text xml:space="preserve" font-family="FiraMono-Regular" font-size="36.0" fill="#000000" transform="matrix(1.00, 0.00, -0.00, -1.00, 274.0, 277.0)">c</text><text xml:space="preserve" font-family="FiraMono-Regular" font-size="36.0" fill="#000000" transform="matrix(1.00, 0.00, -0.00, -1.00, 295.6, 277.0)">=</text><text xml:space="preserve" font-family="FiraMono-Regular" font-size="36.0" fill="#B96800" transform="matrix(1.00, 0.00, -0.00, -1.00, 317.2, 277.0)">“</text><text xml:space="preserve" font-family="FiraMono-Regular" font-size="36.0" fill="#B96800" transform="matrix(1.00, 0.00, -0.00, -1.00, 338.8, 277.0)">y</text><text xml:space="preserve" font-family="FiraMono-Regular" font-size="36.0" fill="#B96800" transform="matrix(1.00, 0.00, -0.00, -1.00, 360.4, 277.0)">o</text><text xml:space="preserve" font-family="FiraMono-Regular" font-size="36.0" fill="#B96800" transform="matrix(1.00, 0.00, -0.00, -1.00, 382.0, 277.0)">u</text><text xml:space="preserve" font-family="FiraMono-Regular" font-size="36.0" fill="#B96800" transform="matrix(1.00, 0.00, -0.00, -1.00, 403.6, 277.0)">r</text><text xml:space="preserve" font-family="FiraMono-Regular" font-size="36.0" fill="#B96800" transform="matrix(1.00, 0.00, -0.00, -1.00, 425.2, 277.0)">-</text><text xml:space="preserve" font-family="FiraMono-Regular" font-size="36.0" fill="#B96800" transform="matrix(1.00, 0.00, -0.00, -1.00, 446.8, 277.0)">s</text><text xml:space="preserve" font-family="FiraMono-Regular" font-size="36.0" fill="#B96800" transform="matrix(1.00, 0.00, -0.00, -1.00, 468.4, 277.0)">c</text><text xml:space="preserve" font-family="FiraMono-Regular" font-size="36.0" fill="#B96800" transform="matrix(1.00, 0.00, -0.00, -1.00, 490.0, 277.0)">r</text><text xml:space="preserve" font-family="FiraMono-Regular" font-size="36.0" fill="#B96800" transform="matrix(1.00, 0.00, -0.00, -1.00, 511.6, 277.0)">i</text><text xml:space="preserve" font-family="FiraMono-Regular" font-size="36.0" fill="#B96800" transform="matrix(1.00, 0.00, -0.00, -1.00, 533.2, 277.0)">p</text><text xml:space="preserve" font-family="FiraMono-Regular" font-size="36.0" fill="#B96800" transform="matrix(1.00, 0.00, -0.00, -1.00, 554.8, 277.0)">t</text><text xml:space="preserve" font-family="FiraMono-Regular" font-size="36.0" fill="#B96800" transform="matrix(1.00, 0.00, -0.00, -1.00, 576.4, 277.0)">.</text><text xml:space="preserve" font-family="FiraMono-Regular" font-size="36.0" fill="#B96800" transform="matrix(1.00, 0.00, -0.00, -1.00, 598.0, 277.0)">j</text><text xml:space="preserve" font-family="FiraMono-Regular" font-size="36.0" fill="#B96800" transform="matrix(1.00, 0.00, -0.00, -1.00, 619.6, 277.0)">s</text><text xml:space="preserve" font-family="FiraMono-Regular" font-size="36.0" fill="#B96800" transform="matrix(1.00, 0.00, -0.00, -1.00, 641.2, 277.0)">"</text><text xml:space="preserve" font-family="FiraMono-Regular" font-size="36.0" fill="#000000" transform="matrix(1.00, 0.00, -0.00, -1.00, 662.8, 277.0)">&gt;</text><text xml:space="preserve" font-family="FiraMono-Regular" font-size="36.0" fill="#000000" transform="matrix(1.00, 0.00, -0.00, -1.00, 684.4, 277.0)">&lt;</text><text xml:space="preserve" font-family="FiraMono-Regular" font-size="36.0" fill="#000000" transform="matrix(1.00, 0.00, -0.00, -1.00, 706.0, 277.0)">/</text><text xml:space="preserve" font-family="FiraMono-Regular" font-size="36.0" fill="#000000" transform="matrix(1.00, 0.00, -0.00, -1.00, 727.6, 277.0)">s</text><text xml:space="preserve" font-family="FiraMono-Regular" font-size="36.0" fill="#000000" transform="matrix(1.00, 0.00, -0.00, -1.00, 749.2, 277.0)">c</text><text xml:space="preserve" font-family="FiraMono-Regular" font-size="36.0" fill="#000000" transform="matrix(1.00, 0.00, -0.00, -1.00, 770.8, 277.0)">r</text><text xml:space="preserve" font-family="FiraMono-Regular" font-size="36.0" fill="#000000" transform="matrix(1.00, 0.00, -0.00, -1.00, 792.4, 277.0)">i</text><text xml:space="preserve" font-family="FiraMono-Regular" font-size="36.0" fill="#000000" transform="matrix(1.00, 0.00, -0.00, -1.00, 814.0, 277.0)">p</text><text xml:space="preserve" font-family="FiraMono-Regular" font-size="36.0" fill="#000000" transform="matrix(1.00, 0.00, -0.00, -1.00, 835.6, 277.0)">t</text><text xml:space="preserve" font-family="FiraMono-Regular" font-size="36.0" fill="#000000" transform="matrix(1.00, 0.00, -0.00, -1.00, 857.2, 277.0)">&gt;</text><text xml:space="preserve" font-family="FiraMono-Regular" font-size="36.0" fill="#000000" transform="matrix(1.00, 0.00, -0.00, -1.00, 878.8, 277.0)"> </text></g></svg>