<?xml version="1.0" encoding="UTF-8" standalone="no"?><svg xmlns="http://www.w3.org/2000/svg" xmlns:xlink="http://www.w3.org/1999/xlink" clip-rule="evenodd" stroke-miterlimit="4.00" viewBox="0 0 1024 768"><desc>SVG generated by Keynote</desc><defs></defs><g transform="matrix(1.00, 0.00, -0.00, -1.00, 0.0, 768.0)"><path d="M 0.0 768.0 L 1024.0 768.0 L 1024.0 0.0 L 0.0 0.0 Z M 0.0 768.0 " fill="#FEFFFF"></path><text xml:space="preserve" font-family="AvenirNext-DemiBold" font-weight="bold" font-size="80.0" fill="#000000" transform="matrix(1.00, 0.00, -0.00, -1.00, 335.0, 622.0)">F</text><text xml:space="preserve" font-family="AvenirNext-DemiBold" font-weight="bold" font-size="80.0" fill="#000000" transform="matrix(1.00, 0.00, -0.00, -1.00, 377.5, 622.0)">u</text><text xml:space="preserve" font-family="AvenirNext-DemiBold" font-weight="bold" font-size="80.0" fill="#000000" transform="matrix(1.00, 0.00, -0.00, -1.00, 424.0, 622.0)">n</text><text xml:space="preserve" font-family="AvenirNext-DemiBold" font-weight="bold" font-size="80.0" fill="#000000" transform="matrix(1.00, 0.00, -0.00, -1.00, 470.6, 622.0)">c</text><text xml:space="preserve" font-family="AvenirNext-DemiBold" font-weight="bold" font-size="80.0" fill="#000000" transform="matrix(1.00, 0.00, -0.00, -1.00, 509.6, 622.0)">t</text><text xml:space="preserve" font-family="AvenirNext-DemiBold" font-weight="bold" font-size="80.0" fill="#000000" transform="matrix(1.00, 0.00, -0.00, -1.00, 536.8, 622.0)">i</text><text xml:space="preserve" font-family="AvenirNext-DemiBold" font-weight="bold" font-size="80.0" fill="#000000" transform="matrix(1.00, 0.00, -0.00, -1.00, 558.3, 622.0)">o</text><text xml:space="preserve" font-family="AvenirNext-DemiBold" font-weight="bold" font-size="80.0" fill="#000000" transform="matrix(1.00, 0.00, -0.00, -1.00, 607.1, 622.0)">n</text><text xml:space="preserve" font-family="AvenirNext-DemiBold" font-weight="bold" font-size="80.0" fill="#000000" transform="matrix(1.00, 0.00, -0.00, -1.00, 653.6, 622.0)">s</text><text xml:space="preserve" font-family="HelveticaNeueLTPro-Lt" font-size="27.0" fill="#000000" transform="matrix(1.00, 0.00, -0.00, -1.00, 79.0, 352.5)">•</text><text xml:space="preserve" font-family="HelveticaNeueLTPro-Lt" font-size="36.0" fill="#000000" transform="matrix(1.00, 0.00, -0.00, -1.00, 114.0, 350.0)">F</text><text xml:space="preserve" font-family="HelveticaNeueLTPro-Lt" font-size="36.0" fill="#000000" transform="matrix(1.00, 0.00, -0.00, -1.00, 133.3, 350.0)">u</text><text xml:space="preserve" font-family="HelveticaNeueLTPro-Lt" font-size="36.0" fill="#000000" transform="matrix(1.00, 0.00, -0.00, -1.00, 152.7, 350.0)">n</text><text xml:space="preserve" font-family="HelveticaNeueLTPro-Lt" font-size="36.0" fill="#000000" transform="matrix(1.00, 0.00, -0.00, -1.00, 172.0, 350.0)">c</text><text xml:space="preserve" font-family="HelveticaNeueLTPro-Lt" font-size="36.0" fill="#000000" transform="matrix(1.00, 0.00, -0.00, -1.00, 190.7, 350.0)">t</text><text xml:space="preserve" font-family="HelveticaNeueLTPro-Lt" font-size="36.0" fill="#000000" transform="matrix(1.00, 0.00, -0.00, -1.00, 201.3, 350.0)">i</text><text xml:space="preserve" font-family="HelveticaNeueLTPro-Lt" font-size="36.0" fill="#000000" transform="matrix(1.00, 0.00, -0.00, -1.00, 208.0, 350.0)">o</text><text xml:space="preserve" font-family="HelveticaNeueLTPro-Lt" font-size="36.0" fill="#000000" transform="matrix(1.00, 0.00, -0.00, -1.00, 228.0, 350.0)">n</text><text xml:space="preserve" font-family="HelveticaNeueLTPro-Lt" font-size="36.0" fill="#000000" transform="matrix(1.00, 0.00, -0.00, -1.00, 247.3, 350.0)">s</text><text xml:space="preserve" font-family="HelveticaNeueLTPro-Lt" font-size="36.0" fill="#000000" transform="matrix(1.00, 0.00, -0.00, -1.00, 264.7, 350.0)"> </text><text xml:space="preserve" font-family="HelveticaNeueLTPro-Lt" font-size="36.0" fill="#000000" transform="matrix(1.00, 0.00, -0.00, -1.00, 274.7, 350.0)">a</text><text xml:space="preserve" font-family="HelveticaNeueLTPro-Lt" font-size="36.0" fill="#000000" transform="matrix(1.00, 0.00, -0.00, -1.00, 293.4, 350.0)">l</text><text xml:space="preserve" font-family="HelveticaNeueLTPro-Lt" font-size="36.0" fill="#000000" transform="matrix(1.00, 0.00, -0.00, -1.00, 300.0, 350.0)">l</text><text xml:space="preserve" font-family="HelveticaNeueLTPro-Lt" font-size="36.0" fill="#000000" transform="matrix(1.00, 0.00, -0.00, -1.00, 306.7, 350.0)">o</text><text xml:space="preserve" font-family="HelveticaNeueLTPro-Lt" font-size="36.0" fill="#000000" transform="matrix(1.00, 0.00, -0.00, -1.00, 326.7, 350.0)">w</text><text xml:space="preserve" font-family="HelveticaNeueLTPro-Lt" font-size="36.0" fill="#000000" transform="matrix(1.00, 0.00, -0.00, -1.00, 353.4, 350.0)"> </text><text xml:space="preserve" font-family="HelveticaNeueLTPro-Lt" font-size="36.0" fill="#000000" transform="matrix(1.00, 0.00, -0.00, -1.00, 363.4, 350.0)">y</text><text xml:space="preserve" font-family="HelveticaNeueLTPro-Lt" font-size="36.0" fill="#000000" transform="matrix(1.00, 0.00, -0.00, -1.00, 380.0, 350.0)">o</text><text xml:space="preserve" font-family="HelveticaNeueLTPro-Lt" font-size="36.0" fill="#000000" transform="matrix(1.00, 0.00, -0.00, -1.00, 400.1, 350.0)">u</text><text xml:space="preserve" font-family="HelveticaNeueLTPro-Lt" font-size="36.0" fill="#000000" transform="matrix(1.00, 0.00, -0.00, -1.00, 419.4, 350.0)"> </text><text xml:space="preserve" font-family="HelveticaNeueLTPro-Lt" font-size="36.0" fill="#000000" transform="matrix(1.00, 0.00, -0.00, -1.00, 429.4, 350.0)">t</text><text xml:space="preserve" font-family="HelveticaNeueLTPro-Lt" font-size="36.0" fill="#000000" transform="matrix(1.00, 0.00, -0.00, -1.00, 440.1, 350.0)">o</text><text xml:space="preserve" font-family="HelveticaNeueLTPro-Lt" font-size="36.0" fill="#000000" transform="matrix(1.00, 0.00, -0.00, -1.00, 460.1, 350.0)"> </text><text xml:space="preserve" font-family="HelveticaNeueLTPro-Lt" font-size="36.0" fill="#000000" transform="matrix(1.00, 0.00, -0.00, -1.00, 470.1, 350.0)">e</text><text xml:space="preserve" font-family="HelveticaNeueLTPro-Lt" font-size="36.0" fill="#000000" transform="matrix(1.00, 0.00, -0.00, -1.00, 488.8, 350.0)">a</text><text xml:space="preserve" font-family="HelveticaNeueLTPro-Lt" font-size="36.0" fill="#000000" transform="matrix(1.00, 0.00, -0.00, -1.00, 507.4, 350.0)">s</text><text xml:space="preserve" font-family="HelveticaNeueLTPro-Lt" font-size="36.0" fill="#000000" transform="matrix(1.00, 0.00, -0.00, -1.00, 524.8, 350.0)">i</text><text xml:space="preserve" font-family="HelveticaNeueLTPro-Lt" font-size="36.0" fill="#000000" transform="matrix(1.00, 0.00, -0.00, -1.00, 531.4, 350.0)">l</text><text xml:space="preserve" font-family="HelveticaNeueLTPro-Lt" font-size="36.0" fill="#000000" transform="matrix(1.00, 0.00, -0.00, -1.00, 538.1, 350.0)">y</text><text xml:space="preserve" font-family="HelveticaNeueLTPro-Lt" font-size="36.0" fill="#000000" transform="matrix(1.00, 0.00, -0.00, -1.00, 554.7, 350.0)"> </text><text xml:space="preserve" font-family="HelveticaNeueLTPro-Lt" font-size="36.0" fill="#000000" transform="matrix(1.00, 0.00, -0.00, -1.00, 564.8, 350.0)">r</text><text xml:space="preserve" font-family="HelveticaNeueLTPro-Lt" font-size="36.0" fill="#000000" transform="matrix(1.00, 0.00, -0.00, -1.00, 575.4, 350.0)">e</text><text xml:space="preserve" font-family="HelveticaNeueLTPro-Lt" font-size="36.0" fill="#000000" transform="matrix(1.00, 0.00, -0.00, -1.00, 594.1, 350.0)">u</text><text xml:space="preserve" font-family="HelveticaNeueLTPro-Lt" font-size="36.0" fill="#000000" transform="matrix(1.00, 0.00, -0.00, -1.00, 613.5, 350.0)">s</text><text xml:space="preserve" font-family="HelveticaNeueLTPro-Lt" font-size="36.0" fill="#000000" transform="matrix(1.00, 0.00, -0.00, -1.00, 630.8, 350.0)">e</text><text xml:space="preserve" font-family="HelveticaNeueLTPro-Lt" font-size="36.0" fill="#000000" transform="matrix(1.00, 0.00, -0.00, -1.00, 649.5, 350.0)"> </text><text xml:space="preserve" font-family="HelveticaNeueLTPro-Lt" font-size="36.0" fill="#000000" transform="matrix(1.00, 0.00, -0.00, -1.00, 659.5, 350.0)">c</text><text xml:space="preserve" font-family="HelveticaNeueLTPro-Lt" font-size="36.0" fill="#000000" transform="matrix(1.00, 0.00, -0.00, -1.00, 678.2, 350.0)">o</text><text xml:space="preserve" font-family="HelveticaNeueLTPro-Lt" font-size="36.0" fill="#000000" transform="matrix(1.00, 0.00, -0.00, -1.00, 698.2, 350.0)">d</text><text xml:space="preserve" font-family="HelveticaNeueLTPro-Lt" font-size="36.0" fill="#000000" transform="matrix(1.00, 0.00, -0.00, -1.00, 718.8, 350.0)">e</text><text xml:space="preserve" font-family="HelveticaNeueLTPro-Lt" font-size="36.0" fill="#000000" transform="matrix(1.00, 0.00, -0.00, -1.00, 737.5, 350.0)"> </text><text xml:space="preserve" font-family="HelveticaNeueLTPro-Lt" font-size="27.0" fill="#000000" transform="matrix(1.00, 0.00, -0.00, -1.00, 79.0, 267.5)">•</text><text xml:space="preserve" font-family="HelveticaNeueLTPro-Lt" font-size="36.0" fill="#000000" transform="matrix(1.00, 0.00, -0.00, -1.00, 114.0, 265.0)">F</text><text xml:space="preserve" font-family="HelveticaNeueLTPro-Lt" font-size="36.0" fill="#000000" transform="matrix(1.00, 0.00, -0.00, -1.00, 133.3, 265.0)">u</text><text xml:space="preserve" font-family="HelveticaNeueLTPro-Lt" font-size="36.0" fill="#000000" transform="matrix(1.00, 0.00, -0.00, -1.00, 152.7, 265.0)">n</text><text xml:space="preserve" font-family="HelveticaNeueLTPro-Lt" font-size="36.0" fill="#000000" transform="matrix(1.00, 0.00, -0.00, -1.00, 172.0, 265.0)">c</text><text xml:space="preserve" font-family="HelveticaNeueLTPro-Lt" font-size="36.0" fill="#000000" transform="matrix(1.00, 0.00, -0.00, -1.00, 190.7, 265.0)">t</text><text xml:space="preserve" font-family="HelveticaNeueLTPro-Lt" font-size="36.0" fill="#000000" transform="matrix(1.00, 0.00, -0.00, -1.00, 201.3, 265.0)">i</text><text xml:space="preserve" font-family="HelveticaNeueLTPro-Lt" font-size="36.0" fill="#000000" transform="matrix(1.00, 0.00, -0.00, -1.00, 208.0, 265.0)">o</text><text xml:space="preserve" font-family="HelveticaNeueLTPro-Lt" font-size="36.0" fill="#000000" transform="matrix(1.00, 0.00, -0.00, -1.00, 228.0, 265.0)">n</text><text xml:space="preserve" font-family="HelveticaNeueLTPro-Lt" font-size="36.0" fill="#000000" transform="matrix(1.00, 0.00, -0.00, -1.00, 247.3, 265.0)">s</text><text xml:space="preserve" font-family="HelveticaNeueLTPro-Lt" font-size="36.0" fill="#000000" transform="matrix(1.00, 0.00, -0.00, -1.00, 264.7, 265.0)"> </text><text xml:space="preserve" font-family="HelveticaNeueLTPro-Lt" font-size="36.0" fill="#000000" transform="matrix(1.00, 0.00, -0.00, -1.00, 274.7, 265.0)">a</text><text xml:space="preserve" font-family="HelveticaNeueLTPro-Lt" font-size="36.0" fill="#000000" transform="matrix(1.00, 0.00, -0.00, -1.00, 293.4, 265.0)">r</text><text xml:space="preserve" font-family="HelveticaNeueLTPro-Lt" font-size="36.0" fill="#000000" transform="matrix(1.00, 0.00, -0.00, -1.00, 304.0, 265.0)">e</text><text xml:space="preserve" font-family="HelveticaNeueLTPro-Lt" font-size="36.0" fill="#000000" transform="matrix(1.00, 0.00, -0.00, -1.00, 322.7, 265.0)"> </text><text xml:space="preserve" font-family="HelveticaNeueLTPro-Lt" font-size="36.0" fill="#000000" transform="matrix(1.00, 0.00, -0.00, -1.00, 332.7, 265.0)">v</text><text xml:space="preserve" font-family="HelveticaNeueLTPro-Lt" font-size="36.0" fill="#000000" transform="matrix(1.00, 0.00, -0.00, -1.00, 349.4, 265.0)">a</text><text xml:space="preserve" font-family="HelveticaNeueLTPro-Lt" font-size="36.0" fill="#000000" transform="matrix(1.00, 0.00, -0.00, -1.00, 368.1, 265.0)">l</text><text xml:space="preserve" font-family="HelveticaNeueLTPro-Lt" font-size="36.0" fill="#000000" transform="matrix(1.00, 0.00, -0.00, -1.00, 374.7, 265.0)">u</text><text xml:space="preserve" font-family="HelveticaNeueLTPro-Lt" font-size="36.0" fill="#000000" transform="matrix(1.00, 0.00, -0.00, -1.00, 394.1, 265.0)">e</text><text xml:space="preserve" font-family="HelveticaNeueLTPro-Lt" font-size="36.0" fill="#000000" transform="matrix(1.00, 0.00, -0.00, -1.00, 412.8, 265.0)">s</text><text xml:space="preserve" font-family="HelveticaNeueLTPro-Lt" font-size="36.0" fill="#000000" transform="matrix(1.00, 0.00, -0.00, -1.00, 430.1, 265.0)"> </text><text xml:space="preserve" font-family="HelveticaNeueLTPro-Lt" font-size="36.0" fill="#000000" transform="matrix(1.00, 0.00, -0.00, -1.00, 440.1, 265.0)">t</text><text xml:space="preserve" font-family="HelveticaNeueLTPro-Lt" font-size="36.0" fill="#000000" transform="matrix(1.00, 0.00, -0.00, -1.00, 450.7, 265.0)">o</text><text xml:space="preserve" font-family="HelveticaNeueLTPro-Lt" font-size="36.0" fill="#000000" transform="matrix(1.00, 0.00, -0.00, -1.00, 470.8, 265.0)">o</text></g></svg>