<?xml version="1.0" encoding="UTF-8" standalone="no"?><svg xmlns="http://www.w3.org/2000/svg" xmlns:xlink="http://www.w3.org/1999/xlink" clip-rule="evenodd" stroke-miterlimit="4.00" viewBox="0 0 1024 768"><desc>SVG generated by Keynote</desc><defs></defs><g transform="matrix(1.00, 0.00, -0.00, -1.00, 0.0, 768.0)"><path d="M 0.0 768.0 L 1024.0 768.0 L 1024.0 0.0 L 0.0 0.0 Z M 0.0 768.0 " fill="#FEFFFF"></path><text xml:space="preserve" font-family="AvenirNext-DemiBold" font-weight="bold" font-size="80.0" fill="#000000" transform="matrix(1.00, 0.00, -0.00, -1.00, 232.0, 622.0)">E</text><text xml:space="preserve" font-family="AvenirNext-DemiBold" font-weight="bold" font-size="80.0" fill="#000000" transform="matrix(1.00, 0.00, -0.00, -1.00, 279.8, 622.0)">v</text><text xml:space="preserve" font-family="AvenirNext-DemiBold" font-weight="bold" font-size="80.0" fill="#000000" transform="matrix(1.00, 0.00, -0.00, -1.00, 320.9, 622.0)">e</text><text xml:space="preserve" font-family="AvenirNext-DemiBold" font-weight="bold" font-size="80.0" fill="#000000" transform="matrix(1.00, 0.00, -0.00, -1.00, 366.8, 622.0)">n</text><text xml:space="preserve" font-family="AvenirNext-DemiBold" font-weight="bold" font-size="80.0" fill="#000000" transform="matrix(1.00, 0.00, -0.00, -1.00, 413.4, 622.0)">t</text><text xml:space="preserve" font-family="AvenirNext-DemiBold" font-weight="bold" font-size="80.0" fill="#000000" transform="matrix(1.00, 0.00, -0.00, -1.00, 440.6, 622.0)"> </text><text xml:space="preserve" font-family="AvenirNext-DemiBold" font-weight="bold" font-size="80.0" fill="#000000" transform="matrix(1.00, 0.00, -0.00, -1.00, 460.6, 622.0)">H</text><text xml:space="preserve" font-family="AvenirNext-DemiBold" font-weight="bold" font-size="80.0" fill="#000000" transform="matrix(1.00, 0.00, -0.00, -1.00, 519.7, 622.0)">a</text><text xml:space="preserve" font-family="AvenirNext-DemiBold" font-weight="bold" font-size="80.0" fill="#000000" transform="matrix(1.00, 0.00, -0.00, -1.00, 563.7, 622.0)">n</text><text xml:space="preserve" font-family="AvenirNext-DemiBold" font-weight="bold" font-size="80.0" fill="#000000" transform="matrix(1.00, 0.00, -0.00, -1.00, 610.2, 622.0)">d</text><text xml:space="preserve" font-family="AvenirNext-DemiBold" font-weight="bold" font-size="80.0" fill="#000000" transform="matrix(1.00, 0.00, -0.00, -1.00, 661.0, 622.0)">l</text><text xml:space="preserve" font-family="AvenirNext-DemiBold" font-weight="bold" font-size="80.0" fill="#000000" transform="matrix(1.00, 0.00, -0.00, -1.00, 682.4, 622.0)">e</text><text xml:space="preserve" font-family="AvenirNext-DemiBold" font-weight="bold" font-size="80.0" fill="#000000" transform="matrix(1.00, 0.00, -0.00, -1.00, 728.3, 622.0)">r</text><text xml:space="preserve" font-family="AvenirNext-DemiBold" font-weight="bold" font-size="80.0" fill="#000000" transform="matrix(1.00, 0.00, -0.00, -1.00, 757.4, 622.0)">s</text><text xml:space="preserve" font-family="FiraMono-Regular" font-size="30.0" fill="#000000" transform="matrix(1.00, 0.00, -0.00, -1.00, 79.0, 498.0)">E</text><text xml:space="preserve" font-family="FiraMono-Regular" font-size="30.0" fill="#000000" transform="matrix(1.00, 0.00, -0.00, -1.00, 97.0, 498.0)">v</text><text xml:space="preserve" font-family="FiraMono-Regular" font-size="30.0" fill="#000000" transform="matrix(1.00, 0.00, -0.00, -1.00, 115.0, 498.0)">e</text><text xml:space="preserve" font-family="FiraMono-Regular" font-size="30.0" fill="#000000" transform="matrix(1.00, 0.00, -0.00, -1.00, 133.0, 498.0)">n</text><text xml:space="preserve" font-family="FiraMono-Regular" font-size="30.0" fill="#000000" transform="matrix(1.00, 0.00, -0.00, -1.00, 151.0, 498.0)">t</text><text xml:space="preserve" font-family="FiraMono-Regular" font-size="30.0" fill="#000000" transform="matrix(1.00, 0.00, -0.00, -1.00, 169.0, 498.0)"> </text><text xml:space="preserve" font-family="FiraMono-Regular" font-size="30.0" fill="#000000" transform="matrix(1.00, 0.00, -0.00, -1.00, 187.0, 498.0)">L</text><text xml:space="preserve" font-family="FiraMono-Regular" font-size="30.0" fill="#000000" transform="matrix(1.00, 0.00, -0.00, -1.00, 205.0, 498.0)">i</text><text xml:space="preserve" font-family="FiraMono-Regular" font-size="30.0" fill="#000000" transform="matrix(1.00, 0.00, -0.00, -1.00, 223.0, 498.0)">s</text><text xml:space="preserve" font-family="FiraMono-Regular" font-size="30.0" fill="#000000" transform="matrix(1.00, 0.00, -0.00, -1.00, 241.0, 498.0)">t</text><text xml:space="preserve" font-family="FiraMono-Regular" font-size="30.0" fill="#000000" transform="matrix(1.00, 0.00, -0.00, -1.00, 259.0, 498.0)">e</text><text xml:space="preserve" font-family="FiraMono-Regular" font-size="30.0" fill="#000000" transform="matrix(1.00, 0.00, -0.00, -1.00, 277.0, 498.0)">n</text><text xml:space="preserve" font-family="FiraMono-Regular" font-size="30.0" fill="#000000" transform="matrix(1.00, 0.00, -0.00, -1.00, 295.0, 498.0)">e</text><text xml:space="preserve" font-family="FiraMono-Regular" font-size="30.0" fill="#000000" transform="matrix(1.00, 0.00, -0.00, -1.00, 313.0, 498.0)">r</text><text xml:space="preserve" font-family="FiraMono-Regular" font-size="30.0" fill="#000000" transform="matrix(1.00, 0.00, -0.00, -1.00, 331.0, 498.0)">s</text><text xml:space="preserve" font-family="FiraMono-Regular" font-size="30.0" fill="#000000" transform="matrix(1.00, 0.00, -0.00, -1.00, 349.0, 498.0)"> </text><text xml:space="preserve" font-family="FiraMono-Regular" font-size="30.0" fill="#000000" transform="matrix(1.00, 0.00, -0.00, -1.00, 79.0, 412.0)">h</text><text xml:space="preserve" font-family="FiraMono-Regular" font-size="30.0" fill="#000000" transform="matrix(1.00, 0.00, -0.00, -1.00, 97.0, 412.0)">t</text><text xml:space="preserve" font-family="FiraMono-Regular" font-size="30.0" fill="#000000" transform="matrix(1.00, 0.00, -0.00, -1.00, 115.0, 412.0)">t</text><text xml:space="preserve" font-family="FiraMono-Regular" font-size="30.0" fill="#000000" transform="matrix(1.00, 0.00, -0.00, -1.00, 133.0, 412.0)">p</text><text xml:space="preserve" font-family="FiraMono-Regular" font-size="30.0" fill="#000000" transform="matrix(1.00, 0.00, -0.00, -1.00, 151.0, 412.0)">s</text><text xml:space="preserve" font-family="FiraMono-Regular" font-size="30.0" fill="#000000" transform="matrix(1.00, 0.00, -0.00, -1.00, 169.0, 412.0)">:</text><text xml:space="preserve" font-family="FiraMono-Regular" font-size="30.0" fill="#000000" transform="matrix(1.00, 0.00, -0.00, -1.00, 187.0, 412.0)">/</text><text xml:space="preserve" font-family="FiraMono-Regular" font-size="30.0" fill="#000000" transform="matrix(1.00, 0.00, -0.00, -1.00, 205.0, 412.0)">/</text><text xml:space="preserve" font-family="FiraMono-Regular" font-size="30.0" fill="#000000" transform="matrix(1.00, 0.00, -0.00, -1.00, 223.0, 412.0)">d</text><text xml:space="preserve" font-family="FiraMono-Regular" font-size="30.0" fill="#000000" transform="matrix(1.00, 0.00, -0.00, -1.00, 241.0, 412.0)">e</text><text xml:space="preserve" font-family="FiraMono-Regular" font-size="30.0" fill="#000000" transform="matrix(1.00, 0.00, -0.00, -1.00, 259.0, 412.0)">v</text><text xml:space="preserve" font-family="FiraMono-Regular" font-size="30.0" fill="#000000" transform="matrix(1.00, 0.00, -0.00, -1.00, 277.0, 412.0)">e</text><text xml:space="preserve" font-family="FiraMono-Regular" font-size="30.0" fill="#000000" transform="matrix(1.00, 0.00, -0.00, -1.00, 295.0, 412.0)">l</text><text xml:space="preserve" font-family="FiraMono-Regular" font-size="30.0" fill="#000000" transform="matrix(1.00, 0.00, -0.00, -1.00, 313.0, 412.0)">o</text><text xml:space="preserve" font-family="FiraMono-Regular" font-size="30.0" fill="#000000" transform="matrix(1.00, 0.00, -0.00, -1.00, 331.0, 412.0)">p</text><text xml:space="preserve" font-family="FiraMono-Regular" font-size="30.0" fill="#000000" transform="matrix(1.00, 0.00, -0.00, -1.00, 349.0, 412.0)">e</text><text xml:space="preserve" font-family="FiraMono-Regular" font-size="30.0" fill="#000000" transform="matrix(1.00, 0.00, -0.00, -1.00, 367.0, 412.0)">r</text><text xml:space="preserve" font-family="FiraMono-Regular" font-size="30.0" fill="#000000" transform="matrix(1.00, 0.00, -0.00, -1.00, 385.0, 412.0)">.</text><text xml:space="preserve" font-family="FiraMono-Regular" font-size="30.0" fill="#000000" transform="matrix(1.00, 0.00, -0.00, -1.00, 403.0, 412.0)">m</text><text xml:space="preserve" font-family="FiraMono-Regular" font-size="30.0" fill="#000000" transform="matrix(1.00, 0.00, -0.00, -1.00, 421.0, 412.0)">o</text><text xml:space="preserve" font-family="FiraMono-Regular" font-size="30.0" fill="#000000" transform="matrix(1.00, 0.00, -0.00, -1.00, 439.0, 412.0)">z</text><text xml:space="preserve" font-family="FiraMono-Regular" font-size="30.0" fill="#000000" transform="matrix(1.00, 0.00, -0.00, -1.00, 457.0, 412.0)">i</text><text xml:space="preserve" font-family="FiraMono-Regular" font-size="30.0" fill="#000000" transform="matrix(1.00, 0.00, -0.00, -1.00, 475.0, 412.0)">l</text><text xml:space="preserve" font-family="FiraMono-Regular" font-size="30.0" fill="#000000" transform="matrix(1.00, 0.00, -0.00, -1.00, 493.0, 412.0)">l</text><text xml:space="preserve" font-family="FiraMono-Regular" font-size="30.0" fill="#000000" transform="matrix(1.00, 0.00, -0.00, -1.00, 511.0, 412.0)">a</text><text xml:space="preserve" font-family="FiraMono-Regular" font-size="30.0" fill="#000000" transform="matrix(1.00, 0.00, -0.00, -1.00, 529.0, 412.0)">.</text><text xml:space="preserve" font-family="FiraMono-Regular" font-size="30.0" fill="#000000" transform="matrix(1.00, 0.00, -0.00, -1.00, 547.0, 412.0)">o</text><text xml:space="preserve" font-family="FiraMono-Regular" font-size="30.0" fill="#000000" transform="matrix(1.00, 0.00, -0.00, -1.00, 565.0, 412.0)">r</text><text xml:space="preserve" font-family="FiraMono-Regular" font-size="30.0" fill="#000000" transform="matrix(1.00, 0.00, -0.00, -1.00, 583.0, 412.0)">g</text><text xml:space="preserve" font-family="FiraMono-Regular" font-size="30.0" fill="#000000" transform="matrix(1.00, 0.00, -0.00, -1.00, 601.0, 412.0)">/</text><text xml:space="preserve" font-family="FiraMono-Regular" font-size="30.0" fill="#000000" transform="matrix(1.00, 0.00, -0.00, -1.00, 619.0, 412.0)">e</text><text xml:space="preserve" font-family="FiraMono-Regular" font-size="30.0" fill="#000000" transform="matrix(1.00, 0.00, -0.00, -1.00, 637.0, 412.0)">n</text><text xml:space="preserve" font-family="FiraMono-Regular" font-size="30.0" fill="#000000" transform="matrix(1.00, 0.00, -0.00, -1.00, 655.0, 412.0)">-</text><text xml:space="preserve" font-family="FiraMono-Regular" font-size="30.0" fill="#000000" transform="matrix(1.00, 0.00, -0.00, -1.00, 673.0, 412.0)">U</text><text xml:space="preserve" font-family="FiraMono-Regular" font-size="30.0" fill="#000000" transform="matrix(1.00, 0.00, -0.00, -1.00, 691.0, 412.0)">S</text><text xml:space="preserve" font-family="FiraMono-Regular" font-size="30.0" fill="#000000" transform="matrix(1.00, 0.00, -0.00, -1.00, 709.0, 412.0)">/</text><text xml:space="preserve" font-family="FiraMono-Regular" font-size="30.0" fill="#000000" transform="matrix(1.00, 0.00, -0.00, -1.00, 727.0, 412.0)">d</text><text xml:space="preserve" font-family="FiraMono-Regular" font-size="30.0" fill="#000000" transform="matrix(1.00, 0.00, -0.00, -1.00, 745.0, 412.0)">o</text><text xml:space="preserve" font-family="FiraMono-Regular" font-size="30.0" fill="#000000" transform="matrix(1.00, 0.00, -0.00, -1.00, 763.0, 412.0)">c</text><text xml:space="preserve" font-family="FiraMono-Regular" font-size="30.0" fill="#000000" transform="matrix(1.00, 0.00, -0.00, -1.00, 781.0, 412.0)">s</text><text xml:space="preserve" font-family="FiraMono-Regular" font-size="30.0" fill="#000000" transform="matrix(1.00, 0.00, -0.00, -1.00, 799.0, 412.0)">/</text><text xml:space="preserve" font-family="FiraMono-Regular" font-size="30.0" fill="#000000" transform="matrix(1.00, 0.00, -0.00, -1.00, 817.0, 412.0)">W</text><text xml:space="preserve" font-family="FiraMono-Regular" font-size="30.0" fill="#000000" transform="matrix(1.00, 0.00, -0.00, -1.00, 835.0, 412.0)">e</text><text xml:space="preserve" font-family="FiraMono-Regular" font-size="30.0" fill="#000000" transform="matrix(1.00, 0.00, -0.00, -1.00, 853.0, 412.0)">b</text><text xml:space="preserve" font-family="FiraMono-Regular" font-size="30.0" fill="#000000" transform="matrix(1.00, 0.00, -0.00, -1.00, 871.0, 412.0)">/</text><g><clipPath id="clip-14"><path d="M 78.0 407.5 L 889.0 407.5 L 889.0 411.0 L 78.0 411.0 Z M 78.0 407.5 "></path></clipPath><g clip-path="url(#clip-14)"><path d="M 4.0 153.8 L 814.0 153.8 " fill="none" stroke="#000000" stroke-width="1.50" stroke-miterlimit="0.00" transform="matrix(1.00, 0.00, 0.00, -1.00, 75.0, 563.0)"></path></g></g><text xml:space="preserve" font-family="FiraMono-Regular" font-size="30.0" fill="#000000" transform="matrix(1.00, 0.00, -0.00, -1.00, 79.0, 369.0)">A</text><text xml:space="preserve" font-family="FiraMono-Regular" font-size="30.0" fill="#000000" transform="matrix(1.00, 0.00, -0.00, -1.00, 97.0, 369.0)">P</text><text xml:space="preserve" font-family="FiraMono-Regular" font-size="30.0" fill="#000000" transform="matrix(1.00, 0.00, -0.00, -1.00, 115.0, 369.0)">I</text><text xml:space="preserve" font-family="FiraMono-Regular" font-size="30.0" fill="#000000" transform="matrix(1.00, 0.00, -0.00, -1.00, 133.0, 369.0)">/</text><text xml:space="preserve" font-family="FiraMono-Regular" font-size="30.0" fill="#000000" transform="matrix(1.00, 0.00, -0.00, -1.00, 151.0, 369.0)">E</text><text xml:space="preserve" font-family="FiraMono-Regular" font-size="30.0" fill="#000000" transform="matrix(1.00, 0.00, -0.00, -1.00, 169.0, 369.0)">v</text><text xml:space="preserve" font-family="FiraMono-Regular" font-size="30.0" fill="#000000" transform="matrix(1.00, 0.00, -0.00, -1.00, 187.0, 369.0)">e</text><text xml:space="preserve" font-family="FiraMono-Regular" font-size="30.0" fill="#000000" transform="matrix(1.00, 0.00, -0.00, -1.00, 205.0, 369.0)">n</text><text xml:space="preserve" font-family="FiraMono-Regular" font-size="30.0" fill="#000000" transform="matrix(1.00, 0.00, -0.00, -1.00, 223.0, 369.0)">t</text><text xml:space="preserve" font-family="FiraMono-Regular" font-size="30.0" fill="#000000" transform="matrix(1.00, 0.00, -0.00, -1.00, 241.0, 369.0)">T</text><text xml:space="preserve" font-family="FiraMono-Regular" font-size="30.0" fill="#000000" transform="matrix(1.00, 0.00, -0.00, -1.00, 259.0, 369.0)">a</text><text xml:space="preserve" font-family="FiraMono-Regular" font-size="30.0" fill="#000000" transform="matrix(1.00, 0.00, -0.00, -1.00, 277.0, 369.0)">r</text><text xml:space="preserve" font-family="FiraMono-Regular" font-size="30.0" fill="#000000" transform="matrix(1.00, 0.00, -0.00, -1.00, 295.0, 369.0)">g</text><text xml:space="preserve" font-family="FiraMono-Regular" font-size="30.0" fill="#000000" transform="matrix(1.00, 0.00, -0.00, -1.00, 313.0, 369.0)">e</text><text xml:space="preserve" font-family="FiraMono-Regular" font-size="30.0" fill="#000000" transform="matrix(1.00, 0.00, -0.00, -1.00, 331.0, 369.0)">t</text><text xml:space="preserve" font-family="FiraMono-Regular" font-size="30.0" fill="#000000" transform="matrix(1.00, 0.00, -0.00, -1.00, 349.0, 369.0)">/</text><text xml:space="preserve" font-family="FiraMono-Regular" font-size="30.0" fill="#000000" transform="matrix(1.00, 0.00, -0.00, -1.00, 367.0, 369.0)">a</text><text xml:space="preserve" font-family="FiraMono-Regular" font-size="30.0" fill="#000000" transform="matrix(1.00, 0.00, -0.00, -1.00, 385.0, 369.0)">d</text><text xml:space="preserve" font-family="FiraMono-Regular" font-size="30.0" fill="#000000" transform="matrix(1.00, 0.00, -0.00, -1.00, 403.0, 369.0)">d</text><text xml:space="preserve" font-family="FiraMono-Regular" font-size="30.0" fill="#000000" transform="matrix(1.00, 0.00, -0.00, -1.00, 421.0, 369.0)">E</text><text xml:space="preserve" font-family="FiraMono-Regular" font-size="30.0" fill="#000000" transform="matrix(1.00, 0.00, -0.00, -1.00, 439.0, 369.0)">v</text><text xml:space="preserve" font-family="FiraMono-Regular" font-size="30.0" fill="#000000" transform="matrix(1.00, 0.00, -0.00, -1.00, 457.0, 369.0)">e</text><text xml:space="preserve" font-family="FiraMono-Regular" font-size="30.0" fill="#000000" transform="matrix(1.00, 0.00, -0.00, -1.00, 475.0, 369.0)">n</text><text xml:space="preserve" font-family="FiraMono-Regular" font-size="30.0" fill="#000000" transform="matrix(1.00, 0.00, -0.00, -1.00, 493.0, 369.0)">t</text><text xml:space="preserve" font-family="FiraMono-Regular" font-size="30.0" fill="#000000" transform="matrix(1.00, 0.00, -0.00, -1.00, 511.0, 369.0)">L</text><text xml:space="preserve" font-family="FiraMono-Regular" font-size="30.0" fill="#000000" transform="matrix(1.00, 0.00, -0.00, -1.00, 529.0, 369.0)">i</text><text xml:space="preserve" font-family="FiraMono-Regular" font-size="30.0" fill="#000000" transform="matrix(1.00, 0.00, -0.00, -1.00, 547.0, 369.0)">s</text><text xml:space="preserve" font-family="FiraMono-Regular" font-size="30.0" fill="#000000" transform="matrix(1.00, 0.00, -0.00, -1.00, 565.0, 369.0)">t</text><text xml:space="preserve" font-family="FiraMono-Regular" font-size="30.0" fill="#000000" transform="matrix(1.00, 0.00, -0.00, -1.00, 583.0, 369.0)">e</text><text xml:space="preserve" font-family="FiraMono-Regular" font-size="30.0" fill="#000000" transform="matrix(1.00, 0.00, -0.00, -1.00, 601.0, 369.0)">n</text><text xml:space="preserve" font-family="FiraMono-Regular" font-size="30.0" fill="#000000" transform="matrix(1.00, 0.00, -0.00, -1.00, 619.0, 369.0)">e</text><text xml:space="preserve" font-family="FiraMono-Regular" font-size="30.0" fill="#000000" transform="matrix(1.00, 0.00, -0.00, -1.00, 637.0, 369.0)">r</text><text xml:space="preserve" font-family="FiraMono-Regular" font-size="30.0" fill="#000000" transform="matrix(1.00, 0.00, -0.00, -1.00, 655.0, 369.0)"> </text><g><clipPath id="clip-15"><path d="M 78.0 364.5 L 655.0 364.5 L 655.0 368.0 L 78.0 368.0 Z M 78.0 364.5 "></path></clipPath><g clip-path="url(#clip-15)"><path d="M 4.0 196.8 L 580.0 196.8 " fill="none" stroke="#000000" stroke-width="1.50" stroke-miterlimit="0.00" transform="matrix(1.00, 0.00, 0.00, -1.00, 75.0, 563.0)"></path></g></g><text xml:space="preserve" font-family="FiraMono-Regular" font-size="30.0" fill="#000000" transform="matrix(1.00, 0.00, -0.00, -1.00, 79.0, 283.0)">L</text><text xml:space="preserve" font-family="FiraMono-Regular" font-size="30.0" fill="#000000" transform="matrix(1.00, 0.00, -0.00, -1.00, 97.0, 283.0)">i</text><text xml:space="preserve" font-family="FiraMono-Regular" font-size="30.0" fill="#000000" transform="matrix(1.00, 0.00, -0.00, -1.00, 115.0, 283.0)">s</text><text xml:space="preserve" font-family="FiraMono-Regular" font-size="30.0" fill="#000000" transform="matrix(1.00, 0.00, -0.00, -1.00, 133.0, 283.0)">t</text><text xml:space="preserve" font-family="FiraMono-Regular" font-size="30.0" fill="#000000" transform="matrix(1.00, 0.00, -0.00, -1.00, 151.0, 283.0)"> </text><text xml:space="preserve" font-family="FiraMono-Regular" font-size="30.0" fill="#000000" transform="matrix(1.00, 0.00, -0.00, -1.00, 169.0, 283.0)">o</text><text xml:space="preserve" font-family="FiraMono-Regular" font-size="30.0" fill="#000000" transform="matrix(1.00, 0.00, -0.00, -1.00, 187.0, 283.0)">f</text><text xml:space="preserve" font-family="FiraMono-Regular" font-size="30.0" fill="#000000" transform="matrix(1.00, 0.00, -0.00, -1.00, 205.0, 283.0)"> </text><text xml:space="preserve" font-family="FiraMono-Regular" font-size="30.0" fill="#000000" transform="matrix(1.00, 0.00, -0.00, -1.00, 223.0, 283.0)">e</text><text xml:space="preserve" font-family="FiraMono-Regular" font-size="30.0" fill="#000000" transform="matrix(1.00, 0.00, -0.00, -1.00, 241.0, 283.0)">v</text><text xml:space="preserve" font-family="FiraMono-Regular" font-size="30.0" fill="#000000" transform="matrix(1.00, 0.00, -0.00, -1.00, 259.0, 283.0)">e</text><text xml:space="preserve" font-family="FiraMono-Regular" font-size="30.0" fill="#000000" transform="matrix(1.00, 0.00, -0.00, -1.00, 277.0, 283.0)">n</text><text xml:space="preserve" font-family="FiraMono-Regular" font-size="30.0" fill="#000000" transform="matrix(1.00, 0.00, -0.00, -1.00, 295.0, 283.0)">t</text><text xml:space="preserve" font-family="FiraMono-Regular" font-size="30.0" fill="#000000" transform="matrix(1.00, 0.00, -0.00, -1.00, 313.0, 283.0)">s</text><text xml:space="preserve" font-family="FiraMono-Regular" font-size="30.0" fill="#000000" transform="matrix(1.00, 0.00, -0.00, -1.00, 331.0, 283.0)"> </text><text xml:space="preserve" font-family="FiraMono-Regular" font-size="30.0" fill="#000000" transform="matrix(1.00, 0.00, -0.00, -1.00, 79.0, 197.0)">h</text><text xml:space="preserve" font-family="FiraMono-Regular" font-size="30.0" fill="#000000" transform="matrix(1.00, 0.00, -0.00, -1.00, 97.0, 197.0)">t</text><text xml:space="preserve" font-family="FiraMono-Regular" font-size="30.0" fill="#000000" transform="matrix(1.00, 0.00, -0.00, -1.00, 115.0, 197.0)">t</text><text xml:space="preserve" font-family="FiraMono-Regular" font-size="30.0" fill="#000000" transform="matrix(1.00, 0.00, -0.00, -1.00, 133.0, 197.0)">p</text><text xml:space="preserve" font-family="FiraMono-Regular" font-size="30.0" fill="#000000" transform="matrix(1.00, 0.00, -0.00, -1.00, 151.0, 197.0)">s</text><text xml:space="preserve" font-family="FiraMono-Regular" font-size="30.0" fill="#000000" transform="matrix(1.00, 0.00, -0.00, -1.00, 169.0, 197.0)">:</text><text xml:space="preserve" font-family="FiraMono-Regular" font-size="30.0" fill="#000000" transform="matrix(1.00, 0.00, -0.00, -1.00, 187.0, 197.0)">/</text><text xml:space="preserve" font-family="FiraMono-Regular" font-size="30.0" fill="#000000" transform="matrix(1.00, 0.00, -0.00, -1.00, 205.0, 197.0)">/</text><text xml:space="preserve" font-family="FiraMono-Regular" font-size="30.0" fill="#000000" transform="matrix(1.00, 0.00, -0.00, -1.00, 223.0, 197.0)">d</text><text xml:space="preserve" font-family="FiraMono-Regular" font-size="30.0" fill="#000000" transform="matrix(1.00, 0.00, -0.00, -1.00, 241.0, 197.0)">e</text><text xml:space="preserve" font-family="FiraMono-Regular" font-size="30.0" fill="#000000" transform="matrix(1.00, 0.00, -0.00, -1.00, 259.0, 197.0)">v</text><text xml:space="preserve" font-family="FiraMono-Regular" font-size="30.0" fill="#000000" transform="matrix(1.00, 0.00, -0.00, -1.00, 277.0, 197.0)">e</text><text xml:space="preserve" font-family="FiraMono-Regular" font-size="30.0" fill="#000000" transform="matrix(1.00, 0.00, -0.00, -1.00, 295.0, 197.0)">l</text><text xml:space="preserve" font-family="FiraMono-Regular" font-size="30.0" fill="#000000" transform="matrix(1.00, 0.00, -0.00, -1.00, 313.0, 197.0)">o</text><text xml:space="preserve" font-family="FiraMono-Regular" font-size="30.0" fill="#000000" transform="matrix(1.00, 0.00, -0.00, -1.00, 331.0, 197.0)">p</text><text xml:space="preserve" font-family="FiraMono-Regular" font-size="30.0" fill="#000000" transform="matrix(1.00, 0.00, -0.00, -1.00, 349.0, 197.0)">e</text><text xml:space="preserve" font-family="FiraMono-Regular" font-size="30.0" fill="#000000" transform="matrix(1.00, 0.00, -0.00, -1.00, 367.0, 197.0)">r</text><text xml:space="preserve" font-family="FiraMono-Regular" font-size="30.0" fill="#000000" transform="matrix(1.00, 0.00, -0.00, -1.00, 385.0, 197.0)">.</text><text xml:space="preserve" font-family="FiraMono-Regular" font-size="30.0" fill="#000000" transform="matrix(1.00, 0.00, -0.00, -1.00, 403.0, 197.0)">m</text><text xml:space="preserve" font-family="FiraMono-Regular" font-size="30.0" fill="#000000" transform="matrix(1.00, 0.00, -0.00, -1.00, 421.0, 197.0)">o</text><text xml:space="preserve" font-family="FiraMono-Regular" font-size="30.0" fill="#000000" transform="matrix(1.00, 0.00, -0.00, -1.00, 439.0, 197.0)">z</text><text xml:space="preserve" font-family="FiraMono-Regular" font-size="30.0" fill="#000000" transform="matrix(1.00, 0.00, -0.00, -1.00, 457.0, 197.0)">i</text><text xml:space="preserve" font-family="FiraMono-Regular" font-size="30.0" fill="#000000" transform="matrix(1.00, 0.00, -0.00, -1.00, 475.0, 197.0)">l</text><text xml:space="preserve" font-family="FiraMono-Regular" font-size="30.0" fill="#000000" transform="matrix(1.00, 0.00, -0.00, -1.00, 493.0, 197.0)">l</text><text xml:space="preserve" font-family="FiraMono-Regular" font-size="30.0" fill="#000000" transform="matrix(1.00, 0.00, -0.00, -1.00, 511.0, 197.0)">a</text><text xml:space="preserve" font-family="FiraMono-Regular" font-size="30.0" fill="#000000" transform="matrix(1.00, 0.00, -0.00, -1.00, 529.0, 197.0)">.</text><text xml:space="preserve" font-family="FiraMono-Regular" font-size="30.0" fill="#000000" transform="matrix(1.00, 0.00, -0.00, -1.00, 547.0, 197.0)">o</text><text xml:space="preserve" font-family="FiraMono-Regular" font-size="30.0" fill="#000000" transform="matrix(1.00, 0.00, -0.00, -1.00, 565.0, 197.0)">r</text><text xml:space="preserve" font-family="FiraMono-Regular" font-size="30.0" fill="#000000" transform="matrix(1.00, 0.00, -0.00, -1.00, 583.0, 197.0)">g</text><text xml:space="preserve" font-family="FiraMono-Regular" font-size="30.0" fill="#000000" transform="matrix(1.00, 0.00, -0.00, -1.00, 601.0, 197.0)">/</text><text xml:space="preserve" font-family="FiraMono-Regular" font-size="30.0" fill="#000000" transform="matrix(1.00, 0.00, -0.00, -1.00, 619.0, 197.0)">e</text><text xml:space="preserve" font-family="FiraMono-Regular" font-size="30.0" fill="#000000" transform="matrix(1.00, 0.00, -0.00, -1.00, 637.0, 197.0)">n</text><text xml:space="preserve" font-family="FiraMono-Regular" font-size="30.0" fill="#000000" transform="matrix(1.00, 0.00, -0.00, -1.00, 655.0, 197.0)">-</text><text xml:space="preserve" font-family="FiraMono-Regular" font-size="30.0" fill="#000000" transform="matrix(1.00, 0.00, -0.00, -1.00, 673.0, 197.0)">U</text><text xml:space="preserve" font-family="FiraMono-Regular" font-size="30.0" fill="#000000" transform="matrix(1.00, 0.00, -0.00, -1.00, 691.0, 197.0)">S</text><text xml:space="preserve" font-family="FiraMono-Regular" font-size="30.0" fill="#000000" transform="matrix(1.00, 0.00, -0.00, -1.00, 709.0, 197.0)">/</text><text xml:space="preserve" font-family="FiraMono-Regular" font-size="30.0" fill="#000000" transform="matrix(1.00, 0.00, -0.00, -1.00, 727.0, 197.0)">d</text><text xml:space="preserve" font-family="FiraMono-Regular" font-size="30.0" fill="#000000" transform="matrix(1.00, 0.00, -0.00, -1.00, 745.0, 197.0)">o</text><text xml:space="preserve" font-family="FiraMono-Regular" font-size="30.0" fill="#000000" transform="matrix(1.00, 0.00, -0.00, -1.00, 763.0, 197.0)">c</text><text xml:space="preserve" font-family="FiraMono-Regular" font-size="30.0" fill="#000000" transform="matrix(1.00, 0.00, -0.00, -1.00, 781.0, 197.0)">s</text><text xml:space="preserve" font-family="FiraMono-Regular" font-size="30.0" fill="#000000" transform="matrix(1.00, 0.00, -0.00, -1.00, 799.0, 197.0)">/</text><text xml:space="preserve" font-family="FiraMono-Regular" font-size="30.0" fill="#000000" transform="matrix(1.00, 0.00, -0.00, -1.00, 817.0, 197.0)">W</text><text xml:space="preserve" font-family="FiraMono-Regular" font-size="30.0" fill="#000000" transform="matrix(1.00, 0.00, -0.00, -1.00, 835.0, 197.0)">e</text><text xml:space="preserve" font-family="FiraMono-Regular" font-size="30.0" fill="#000000" transform="matrix(1.00, 0.00, -0.00, -1.00, 853.0, 197.0)">b</text><text xml:space="preserve" font-family="FiraMono-Regular" font-size="30.0" fill="#000000" transform="matrix(1.00, 0.00, -0.00, -1.00, 871.0, 197.0)">/</text><g><clipPath id="clip-16"><path d="M 78.0 192.5 L 889.0 192.5 L 889.0 196.0 L 78.0 196.0 Z M 78.0 192.5 "></path></clipPath><g clip-path="url(#clip-16)"><path d="M 4.0 368.8 L 814.0 368.8 " fill="none" stroke="#000000" stroke-width="1.50" stroke-miterlimit="0.00" transform="matrix(1.00, 0.00, 0.00, -1.00, 75.0, 563.0)"></path></g></g><text xml:space="preserve" font-family="FiraMono-Regular" font-size="30.0" fill="#000000" transform="matrix(1.00, 0.00, -0.00, -1.00, 79.0, 154.0)">E</text><text xml:space="preserve" font-family="FiraMono-Regular" font-size="30.0" fill="#000000" transform="matrix(1.00, 0.00, -0.00, -1.00, 97.0, 154.0)">v</text><text xml:space="preserve" font-family="FiraMono-Regular" font-size="30.0" fill="#000000" transform="matrix(1.00, 0.00, -0.00, -1.00, 115.0, 154.0)">e</text><text xml:space="preserve" font-family="FiraMono-Regular" font-size="30.0" fill="#000000" transform="matrix(1.00, 0.00, -0.00, -1.00, 133.0, 154.0)">n</text><text xml:space="preserve" font-family="FiraMono-Regular" font-size="30.0" fill="#000000" transform="matrix(1.00, 0.00, -0.00, -1.00, 151.0, 154.0)">t</text><text xml:space="preserve" font-family="FiraMono-Regular" font-size="30.0" fill="#000000" transform="matrix(1.00, 0.00, -0.00, -1.00, 169.0, 154.0)">s</text><text xml:space="preserve" font-family="FiraMono-Regular" font-size="30.0" fill="#000000" transform="matrix(1.00, 0.00, -0.00, -1.00, 187.0, 154.0)"> </text><g><clipPath id="clip-17"><path d="M 78.0 149.5 L 187.0 149.5 L 187.0 153.0 L 78.0 153.0 Z M 78.0 149.5 "></path></clipPath><g clip-path="url(#clip-17)"><path d="M 4.0 411.8 L 112.0 411.8 " fill="none" stroke="#000000" stroke-width="1.50" stroke-miterlimit="0.00" transform="matrix(1.00, 0.00, 0.00, -1.00, 75.0, 563.0)"></path></g></g></g></svg>