<?xml version="1.0" encoding="UTF-8" standalone="no"?><svg xmlns="http://www.w3.org/2000/svg" xmlns:xlink="http://www.w3.org/1999/xlink" clip-rule="evenodd" stroke-miterlimit="4.00" viewBox="0 0 1024 768"><desc>SVG generated by Keynote</desc><defs></defs><g transform="matrix(1.00, 0.00, -0.00, -1.00, 0.0, 768.0)"><path d="M 0.0 768.0 L 1024.0 768.0 L 1024.0 0.0 L 0.0 0.0 Z M 0.0 768.0 " fill="#FEFFFF"></path><text xml:space="preserve" font-family="AvenirNext-DemiBold" font-weight="bold" font-size="80.0" fill="#000000" transform="matrix(1.00, 0.00, -0.00, -1.00, 165.0, 622.0)">P</text><text xml:space="preserve" font-family="AvenirNext-DemiBold" font-weight="bold" font-size="80.0" fill="#000000" transform="matrix(1.00, 0.00, -0.00, -1.00, 209.3, 622.0)">a</text><text xml:space="preserve" font-family="AvenirNext-DemiBold" font-weight="bold" font-size="80.0" fill="#000000" transform="matrix(1.00, 0.00, -0.00, -1.00, 253.3, 622.0)">s</text><text xml:space="preserve" font-family="AvenirNext-DemiBold" font-weight="bold" font-size="80.0" fill="#000000" transform="matrix(1.00, 0.00, -0.00, -1.00, 288.8, 622.0)">s</text><text xml:space="preserve" font-family="AvenirNext-DemiBold" font-weight="bold" font-size="80.0" fill="#000000" transform="matrix(1.00, 0.00, -0.00, -1.00, 324.4, 622.0)">i</text><text xml:space="preserve" font-family="AvenirNext-DemiBold" font-weight="bold" font-size="80.0" fill="#000000" transform="matrix(1.00, 0.00, -0.00, -1.00, 345.8, 622.0)">n</text><text xml:space="preserve" font-family="AvenirNext-DemiBold" font-weight="bold" font-size="80.0" fill="#000000" transform="matrix(1.00, 0.00, -0.00, -1.00, 392.4, 622.0)">g</text><text xml:space="preserve" font-family="AvenirNext-DemiBold" font-weight="bold" font-size="80.0" fill="#000000" transform="matrix(1.00, 0.00, -0.00, -1.00, 442.9, 622.0)"> </text><text xml:space="preserve" font-family="AvenirNext-DemiBold" font-weight="bold" font-size="80.0" fill="#000000" transform="matrix(1.00, 0.00, -0.00, -1.00, 462.9, 622.0)">a</text><text xml:space="preserve" font-family="AvenirNext-DemiBold" font-weight="bold" font-size="80.0" fill="#000000" transform="matrix(1.00, 0.00, -0.00, -1.00, 506.9, 622.0)">r</text><text xml:space="preserve" font-family="AvenirNext-DemiBold" font-weight="bold" font-size="80.0" fill="#000000" transform="matrix(1.00, 0.00, -0.00, -1.00, 534.6, 622.0)">g</text><text xml:space="preserve" font-family="AvenirNext-DemiBold" font-weight="bold" font-size="80.0" fill="#000000" transform="matrix(1.00, 0.00, -0.00, -1.00, 585.2, 622.0)">u</text><text xml:space="preserve" font-family="AvenirNext-DemiBold" font-weight="bold" font-size="80.0" fill="#000000" transform="matrix(1.00, 0.00, -0.00, -1.00, 631.7, 622.0)">m</text><text xml:space="preserve" font-family="AvenirNext-DemiBold" font-weight="bold" font-size="80.0" fill="#000000" transform="matrix(1.00, 0.00, -0.00, -1.00, 702.9, 622.0)">e</text><text xml:space="preserve" font-family="AvenirNext-DemiBold" font-weight="bold" font-size="80.0" fill="#000000" transform="matrix(1.00, 0.00, -0.00, -1.00, 748.8, 622.0)">n</text><text xml:space="preserve" font-family="AvenirNext-DemiBold" font-weight="bold" font-size="80.0" fill="#000000" transform="matrix(1.00, 0.00, -0.00, -1.00, 795.4, 622.0)">t</text><text xml:space="preserve" font-family="AvenirNext-DemiBold" font-weight="bold" font-size="80.0" fill="#000000" transform="matrix(1.00, 0.00, -0.00, -1.00, 822.6, 622.0)">s</text><text xml:space="preserve" font-family="FiraMono-Regular" font-size="36.0" fill="#0221B8" transform="matrix(1.00, 0.00, -0.00, -1.00, 79.0, 354.0)">f</text><text xml:space="preserve" font-family="FiraMono-Regular" font-size="36.0" fill="#0221B8" transform="matrix(1.00, 0.00, -0.00, -1.00, 100.6, 354.0)">u</text><text xml:space="preserve" font-family="FiraMono-Regular" font-size="36.0" fill="#0221B8" transform="matrix(1.00, 0.00, -0.00, -1.00, 122.2, 354.0)">n</text><text xml:space="preserve" font-family="FiraMono-Regular" font-size="36.0" fill="#0221B8" transform="matrix(1.00, 0.00, -0.00, -1.00, 143.8, 354.0)">c</text><text xml:space="preserve" font-family="FiraMono-Regular" font-size="36.0" fill="#0221B8" transform="matrix(1.00, 0.00, -0.00, -1.00, 165.4, 354.0)">t</text><text xml:space="preserve" font-family="FiraMono-Regular" font-size="36.0" fill="#0221B8" transform="matrix(1.00, 0.00, -0.00, -1.00, 187.0, 354.0)">i</text><text xml:space="preserve" font-family="FiraMono-Regular" font-size="36.0" fill="#0221B8" transform="matrix(1.00, 0.00, -0.00, -1.00, 208.6, 354.0)">o</text><text xml:space="preserve" font-family="FiraMono-Regular" font-size="36.0" fill="#0221B8" transform="matrix(1.00, 0.00, -0.00, -1.00, 230.2, 354.0)">n</text><text xml:space="preserve" font-family="FiraMono-Regular" font-size="36.0" fill="#000000" transform="matrix(1.00, 0.00, -0.00, -1.00, 251.8, 354.0)"> </text><text xml:space="preserve" font-family="FiraMono-Regular" font-size="36.0" fill="#000000" transform="matrix(1.00, 0.00, -0.00, -1.00, 273.4, 354.0)">s</text><text xml:space="preserve" font-family="FiraMono-Regular" font-size="36.0" fill="#000000" transform="matrix(1.00, 0.00, -0.00, -1.00, 295.0, 354.0)">a</text><text xml:space="preserve" font-family="FiraMono-Regular" font-size="36.0" fill="#000000" transform="matrix(1.00, 0.00, -0.00, -1.00, 316.6, 354.0)">y</text><text xml:space="preserve" font-family="FiraMono-Regular" font-size="36.0" fill="#000000" transform="matrix(1.00, 0.00, -0.00, -1.00, 338.2, 354.0)">H</text><text xml:space="preserve" font-family="FiraMono-Regular" font-size="36.0" fill="#000000" transform="matrix(1.00, 0.00, -0.00, -1.00, 359.8, 354.0)">e</text><text xml:space="preserve" font-family="FiraMono-Regular" font-size="36.0" fill="#000000" transform="matrix(1.00, 0.00, -0.00, -1.00, 381.4, 354.0)">l</text><text xml:space="preserve" font-family="FiraMono-Regular" font-size="36.0" fill="#000000" transform="matrix(1.00, 0.00, -0.00, -1.00, 403.0, 354.0)">l</text><text xml:space="preserve" font-family="FiraMono-Regular" font-size="36.0" fill="#000000" transform="matrix(1.00, 0.00, -0.00, -1.00, 424.6, 354.0)">o</text><text xml:space="preserve" font-family="FiraMono-Regular" font-size="36.0" fill="#000000" transform="matrix(1.00, 0.00, -0.00, -1.00, 446.2, 354.0)">(</text><text xml:space="preserve" font-family="FiraMono-Regular" font-size="36.0" fill="#000000" transform="matrix(1.00, 0.00, -0.00, -1.00, 467.8, 354.0)">n</text><text xml:space="preserve" font-family="FiraMono-Regular" font-size="36.0" fill="#000000" transform="matrix(1.00, 0.00, -0.00, -1.00, 489.4, 354.0)">a</text><text xml:space="preserve" font-family="FiraMono-Regular" font-size="36.0" fill="#000000" transform="matrix(1.00, 0.00, -0.00, -1.00, 511.0, 354.0)">m</text><text xml:space="preserve" font-family="FiraMono-Regular" font-size="36.0" fill="#000000" transform="matrix(1.00, 0.00, -0.00, -1.00, 532.6, 354.0)">e</text><text xml:space="preserve" font-family="FiraMono-Regular" font-size="36.0" fill="#000000" transform="matrix(1.00, 0.00, -0.00, -1.00, 554.2, 354.0)">)</text><text xml:space="preserve" font-family="FiraMono-Regular" font-size="36.0" fill="#000000" transform="matrix(1.00, 0.00, -0.00, -1.00, 575.8, 354.0)"> </text><text xml:space="preserve" font-family="FiraMono-Regular" font-size="36.0" fill="#000000" transform="matrix(1.00, 0.00, -0.00, -1.00, 597.4, 354.0)">{</text><text xml:space="preserve" font-family="FiraMono-Regular" font-size="36.0" fill="#000000" transform="matrix(1.00, 0.00, -0.00, -1.00, 619.0, 354.0)"> </text><text xml:space="preserve" font-family="FiraMono-Regular" font-size="36.0" fill="#000000" transform="matrix(1.00, 0.00, -0.00, -1.00, 79.0, 303.0)"> </text><text xml:space="preserve" font-family="FiraMono-Regular" font-size="36.0" fill="#000000" transform="matrix(1.00, 0.00, -0.00, -1.00, 100.6, 303.0)"> </text><text xml:space="preserve" font-family="FiraMono-Regular" font-size="36.0" fill="#000000" transform="matrix(1.00, 0.00, -0.00, -1.00, 122.2, 303.0)">c</text><text xml:space="preserve" font-family="FiraMono-Regular" font-size="36.0" fill="#000000" transform="matrix(1.00, 0.00, -0.00, -1.00, 143.8, 303.0)">o</text><text xml:space="preserve" font-family="FiraMono-Regular" font-size="36.0" fill="#000000" transform="matrix(1.00, 0.00, -0.00, -1.00, 165.4, 303.0)">n</text><text xml:space="preserve" font-family="FiraMono-Regular" font-size="36.0" fill="#000000" transform="matrix(1.00, 0.00, -0.00, -1.00, 187.0, 303.0)">s</text><text xml:space="preserve" font-family="FiraMono-Regular" font-size="36.0" fill="#000000" transform="matrix(1.00, 0.00, -0.00, -1.00, 208.6, 303.0)">o</text><text xml:space="preserve" font-family="FiraMono-Regular" font-size="36.0" fill="#000000" transform="matrix(1.00, 0.00, -0.00, -1.00, 230.2, 303.0)">l</text><text xml:space="preserve" font-family="FiraMono-Regular" font-size="36.0" fill="#000000" transform="matrix(1.00, 0.00, -0.00, -1.00, 251.8, 303.0)">e</text><text xml:space="preserve" font-family="FiraMono-Regular" font-size="36.0" fill="#000000" transform="matrix(1.00, 0.00, -0.00, -1.00, 273.4, 303.0)">.</text><text xml:space="preserve" font-family="FiraMono-Regular" font-size="36.0" fill="#000000" transform="matrix(1.00, 0.00, -0.00, -1.00, 295.0, 303.0)">l</text><text xml:space="preserve" font-family="FiraMono-Regular" font-size="36.0" fill="#000000" transform="matrix(1.00, 0.00, -0.00, -1.00, 316.6, 303.0)">o</text><text xml:space="preserve" font-family="FiraMono-Regular" font-size="36.0" fill="#000000" transform="matrix(1.00, 0.00, -0.00, -1.00, 338.2, 303.0)">g</text><text xml:space="preserve" font-family="FiraMono-Regular" font-size="36.0" fill="#000000" transform="matrix(1.00, 0.00, -0.00, -1.00, 359.8, 303.0)">(</text><text xml:space="preserve" font-family="FiraMono-Regular" font-size="36.0" fill="#B96800" transform="matrix(1.00, 0.00, -0.00, -1.00, 381.4, 303.0)">‘</text><text xml:space="preserve" font-family="FiraMono-Regular" font-size="36.0" fill="#B96800" transform="matrix(1.00, 0.00, -0.00, -1.00, 403.0, 303.0)">H</text><text xml:space="preserve" font-family="FiraMono-Regular" font-size="36.0" fill="#B96800" transform="matrix(1.00, 0.00, -0.00, -1.00, 424.6, 303.0)">e</text><text xml:space="preserve" font-family="FiraMono-Regular" font-size="36.0" fill="#B96800" transform="matrix(1.00, 0.00, -0.00, -1.00, 446.2, 303.0)">l</text><text xml:space="preserve" font-family="FiraMono-Regular" font-size="36.0" fill="#B96800" transform="matrix(1.00, 0.00, -0.00, -1.00, 467.8, 303.0)">l</text><text xml:space="preserve" font-family="FiraMono-Regular" font-size="36.0" fill="#B96800" transform="matrix(1.00, 0.00, -0.00, -1.00, 489.4, 303.0)">o</text><text xml:space="preserve" font-family="FiraMono-Regular" font-size="36.0" fill="#B96800" transform="matrix(1.00, 0.00, -0.00, -1.00, 511.0, 303.0)"> </text><text xml:space="preserve" font-family="FiraMono-Regular" font-size="36.0" fill="#B96800" transform="matrix(1.00, 0.00, -0.00, -1.00, 532.6, 303.0)">‘</text><text xml:space="preserve" font-family="FiraMono-Regular" font-size="36.0" fill="#B96800" transform="matrix(1.00, 0.00, -0.00, -1.00, 554.2, 303.0)"> </text><text xml:space="preserve" font-family="FiraMono-Regular" font-size="36.0" fill="#B96800" transform="matrix(1.00, 0.00, -0.00, -1.00, 575.8, 303.0)">+</text><text xml:space="preserve" font-family="FiraMono-Regular" font-size="36.0" fill="#B96800" transform="matrix(1.00, 0.00, -0.00, -1.00, 597.4, 303.0)"> </text><text xml:space="preserve" font-family="FiraMono-Regular" font-size="36.0" fill="#B96800" transform="matrix(1.00, 0.00, -0.00, -1.00, 619.0, 303.0)">n</text><text xml:space="preserve" font-family="FiraMono-Regular" font-size="36.0" fill="#B96800" transform="matrix(1.00, 0.00, -0.00, -1.00, 640.6, 303.0)">a</text><text xml:space="preserve" font-family="FiraMono-Regular" font-size="36.0" fill="#B96800" transform="matrix(1.00, 0.00, -0.00, -1.00, 662.2, 303.0)">m</text><text xml:space="preserve" font-family="FiraMono-Regular" font-size="36.0" fill="#B96800" transform="matrix(1.00, 0.00, -0.00, -1.00, 683.8, 303.0)">e</text><text xml:space="preserve" font-family="FiraMono-Regular" font-size="36.0" fill="#B96800" transform="matrix(1.00, 0.00, -0.00, -1.00, 705.4, 303.0)"> </text><text xml:space="preserve" font-family="FiraMono-Regular" font-size="36.0" fill="#B96800" transform="matrix(1.00, 0.00, -0.00, -1.00, 727.0, 303.0)">+</text><text xml:space="preserve" font-family="FiraMono-Regular" font-size="36.0" fill="#B96800" transform="matrix(1.00, 0.00, -0.00, -1.00, 748.6, 303.0)"> </text><text xml:space="preserve" font-family="FiraMono-Regular" font-size="36.0" fill="#B96800" transform="matrix(1.00, 0.00, -0.00, -1.00, 770.2, 303.0)">‘</text><text xml:space="preserve" font-family="FiraMono-Regular" font-size="36.0" fill="#B96800" transform="matrix(1.00, 0.00, -0.00, -1.00, 791.8, 303.0)">!</text><text xml:space="preserve" font-family="FiraMono-Regular" font-size="36.0" fill="#B96800" transform="matrix(1.00, 0.00, -0.00, -1.00, 813.4, 303.0)">’</text><text xml:space="preserve" font-family="FiraMono-Regular" font-size="36.0" fill="#000000" transform="matrix(1.00, 0.00, -0.00, -1.00, 835.0, 303.0)">)</text><text xml:space="preserve" font-family="FiraMono-Regular" font-size="36.0" fill="#000000" transform="matrix(1.00, 0.00, -0.00, -1.00, 856.6, 303.0)"> </text><text xml:space="preserve" font-family="FiraMono-Regular" font-size="36.0" fill="#000000" transform="matrix(1.00, 0.00, -0.00, -1.00, 79.0, 252.0)">}</text></g></svg>