<?xml version="1.0" encoding="UTF-8" standalone="no"?><svg xmlns="http://www.w3.org/2000/svg" xmlns:xlink="http://www.w3.org/1999/xlink" clip-rule="evenodd" stroke-miterlimit="4.00" viewBox="0 0 1024 768"><desc>SVG generated by Keynote</desc><defs></defs><g transform="matrix(1.00, 0.00, -0.00, -1.00, 0.0, 768.0)"><path d="M 0.0 768.0 L 1024.0 768.0 L 1024.0 0.0 L 0.0 0.0 Z M 0.0 768.0 " fill="#FEFFFF"></path><text xml:space="preserve" font-family="AvenirNext-DemiBold" font-weight="bold" font-size="80.0" fill="#000000" transform="matrix(1.00, 0.00, -0.00, -1.00, 213.0, 622.0)">W</text><text xml:space="preserve" font-family="AvenirNext-DemiBold" font-weight="bold" font-size="80.0" fill="#000000" transform="matrix(1.00, 0.00, -0.00, -1.00, 293.3, 622.0)">h</text><text xml:space="preserve" font-family="AvenirNext-DemiBold" font-weight="bold" font-size="80.0" fill="#000000" transform="matrix(1.00, 0.00, -0.00, -1.00, 340.0, 622.0)">a</text><text xml:space="preserve" font-family="AvenirNext-DemiBold" font-weight="bold" font-size="80.0" fill="#000000" transform="matrix(1.00, 0.00, -0.00, -1.00, 383.2, 622.0)">t</text><text xml:space="preserve" font-family="AvenirNext-DemiBold" font-weight="bold" font-size="80.0" fill="#000000" transform="matrix(1.00, 0.00, -0.00, -1.00, 410.4, 622.0)"> </text><text xml:space="preserve" font-family="AvenirNext-DemiBold" font-weight="bold" font-size="80.0" fill="#000000" transform="matrix(1.00, 0.00, -0.00, -1.00, 430.4, 622.0)">w</text><text xml:space="preserve" font-family="AvenirNext-DemiBold" font-weight="bold" font-size="80.0" fill="#000000" transform="matrix(1.00, 0.00, -0.00, -1.00, 494.8, 622.0)">e</text><text xml:space="preserve" font-family="AvenirNext-DemiBold" font-weight="bold" font-size="80.0" fill="#000000" transform="matrix(1.00, 0.00, -0.00, -1.00, 540.7, 622.0)">’</text><text xml:space="preserve" font-family="AvenirNext-DemiBold" font-weight="bold" font-size="80.0" fill="#000000" transform="matrix(1.00, 0.00, -0.00, -1.00, 562.3, 622.0)">l</text><text xml:space="preserve" font-family="AvenirNext-DemiBold" font-weight="bold" font-size="80.0" fill="#000000" transform="matrix(1.00, 0.00, -0.00, -1.00, 583.7, 622.0)">l</text><text xml:space="preserve" font-family="AvenirNext-DemiBold" font-weight="bold" font-size="80.0" fill="#000000" transform="matrix(1.00, 0.00, -0.00, -1.00, 605.2, 622.0)"> </text><text xml:space="preserve" font-family="AvenirNext-DemiBold" font-weight="bold" font-size="80.0" fill="#000000" transform="matrix(1.00, 0.00, -0.00, -1.00, 625.2, 622.0)">l</text><text xml:space="preserve" font-family="AvenirNext-DemiBold" font-weight="bold" font-size="80.0" fill="#000000" transform="matrix(1.00, 0.00, -0.00, -1.00, 646.6, 622.0)">e</text><text xml:space="preserve" font-family="AvenirNext-DemiBold" font-weight="bold" font-size="80.0" fill="#000000" transform="matrix(1.00, 0.00, -0.00, -1.00, 692.0, 622.0)">a</text><text xml:space="preserve" font-family="AvenirNext-DemiBold" font-weight="bold" font-size="80.0" fill="#000000" transform="matrix(1.00, 0.00, -0.00, -1.00, 736.0, 622.0)">r</text><text xml:space="preserve" font-family="AvenirNext-DemiBold" font-weight="bold" font-size="80.0" fill="#000000" transform="matrix(1.00, 0.00, -0.00, -1.00, 765.2, 622.0)">n</text><text xml:space="preserve" font-family="HelveticaNeueLTPro-Lt" font-size="27.0" fill="#000000" transform="matrix(1.00, 0.00, -0.00, -1.00, 79.0, 437.5)">•</text><text xml:space="preserve" font-family="HelveticaNeueLTPro-Lt" font-size="36.0" fill="#000000" transform="matrix(1.00, 0.00, -0.00, -1.00, 114.0, 435.0)">C</text><text xml:space="preserve" font-family="HelveticaNeueLTPro-Lt" font-size="36.0" fill="#000000" transform="matrix(1.00, 0.00, -0.00, -1.00, 139.3, 435.0)">S</text><text xml:space="preserve" font-family="HelveticaNeueLTPro-Lt" font-size="36.0" fill="#000000" transform="matrix(1.00, 0.00, -0.00, -1.00, 162.0, 435.0)">S</text><text xml:space="preserve" font-family="HelveticaNeueLTPro-Lt" font-size="36.0" fill="#000000" transform="matrix(1.00, 0.00, -0.00, -1.00, 184.7, 435.0)"> </text><text xml:space="preserve" font-family="HelveticaNeueLTPro-Lt" font-size="36.0" fill="#000000" transform="matrix(1.00, 0.00, -0.00, -1.00, 194.7, 435.0)">S</text><text xml:space="preserve" font-family="HelveticaNeueLTPro-Lt" font-size="36.0" fill="#000000" transform="matrix(1.00, 0.00, -0.00, -1.00, 217.4, 435.0)">e</text><text xml:space="preserve" font-family="HelveticaNeueLTPro-Lt" font-size="36.0" fill="#000000" transform="matrix(1.00, 0.00, -0.00, -1.00, 236.1, 435.0)">l</text><text xml:space="preserve" font-family="HelveticaNeueLTPro-Lt" font-size="36.0" fill="#000000" transform="matrix(1.00, 0.00, -0.00, -1.00, 242.7, 435.0)">e</text><text xml:space="preserve" font-family="HelveticaNeueLTPro-Lt" font-size="36.0" fill="#000000" transform="matrix(1.00, 0.00, -0.00, -1.00, 261.4, 435.0)">c</text><text xml:space="preserve" font-family="HelveticaNeueLTPro-Lt" font-size="36.0" fill="#000000" transform="matrix(1.00, 0.00, -0.00, -1.00, 280.1, 435.0)">t</text><text xml:space="preserve" font-family="HelveticaNeueLTPro-Lt" font-size="36.0" fill="#000000" transform="matrix(1.00, 0.00, -0.00, -1.00, 290.8, 435.0)">o</text><text xml:space="preserve" font-family="HelveticaNeueLTPro-Lt" font-size="36.0" fill="#000000" transform="matrix(1.00, 0.00, -0.00, -1.00, 310.8, 435.0)">r</text><text xml:space="preserve" font-family="HelveticaNeueLTPro-Lt" font-size="36.0" fill="#000000" transform="matrix(1.00, 0.00, -0.00, -1.00, 322.1, 435.0)">s</text><text xml:space="preserve" font-family="HelveticaNeueLTPro-Lt" font-size="36.0" fill="#000000" transform="matrix(1.00, 0.00, -0.00, -1.00, 339.4, 435.0)"> </text><text xml:space="preserve" font-family="HelveticaNeueLTPro-Lt" font-size="27.0" fill="#000000" transform="matrix(1.00, 0.00, -0.00, -1.00, 79.0, 352.5)">•</text><text xml:space="preserve" font-family="HelveticaNeueLTPro-Lt" font-size="36.0" fill="#000000" transform="matrix(1.00, 0.00, -0.00, -1.00, 114.0, 350.0)">B</text><text xml:space="preserve" font-family="HelveticaNeueLTPro-Lt" font-size="36.0" fill="#000000" transform="matrix(1.00, 0.00, -0.00, -1.00, 138.0, 350.0)">o</text><text xml:space="preserve" font-family="HelveticaNeueLTPro-Lt" font-size="36.0" fill="#000000" transform="matrix(1.00, 0.00, -0.00, -1.00, 158.0, 350.0)">x</text><text xml:space="preserve" font-family="HelveticaNeueLTPro-Lt" font-size="36.0" fill="#000000" transform="matrix(1.00, 0.00, -0.00, -1.00, 175.3, 350.0)"> </text><text xml:space="preserve" font-family="HelveticaNeueLTPro-Lt" font-size="36.0" fill="#000000" transform="matrix(1.00, 0.00, -0.00, -1.00, 185.4, 350.0)">m</text><text xml:space="preserve" font-family="HelveticaNeueLTPro-Lt" font-size="36.0" fill="#000000" transform="matrix(1.00, 0.00, -0.00, -1.00, 215.3, 350.0)">o</text><text xml:space="preserve" font-family="HelveticaNeueLTPro-Lt" font-size="36.0" fill="#000000" transform="matrix(1.00, 0.00, -0.00, -1.00, 235.4, 350.0)">d</text><text xml:space="preserve" font-family="HelveticaNeueLTPro-Lt" font-size="36.0" fill="#000000" transform="matrix(1.00, 0.00, -0.00, -1.00, 256.0, 350.0)">e</text><text xml:space="preserve" font-family="HelveticaNeueLTPro-Lt" font-size="36.0" fill="#000000" transform="matrix(1.00, 0.00, -0.00, -1.00, 274.7, 350.0)">l</text><text xml:space="preserve" font-family="HelveticaNeueLTPro-Lt" font-size="36.0" fill="#000000" transform="matrix(1.00, 0.00, -0.00, -1.00, 281.4, 350.0)"> </text><text xml:space="preserve" font-family="HelveticaNeueLTPro-Lt" font-size="27.0" fill="#000000" transform="matrix(1.00, 0.00, -0.00, -1.00, 79.0, 267.5)">•</text><text xml:space="preserve" font-family="HelveticaNeueLTPro-Lt" font-size="36.0" fill="#000000" transform="matrix(1.00, 0.00, -0.00, -1.00, 114.0, 265.0)">C</text><text xml:space="preserve" font-family="HelveticaNeueLTPro-Lt" font-size="36.0" fill="#000000" transform="matrix(1.00, 0.00, -0.00, -1.00, 139.3, 265.0)">h</text><text xml:space="preserve" font-family="HelveticaNeueLTPro-Lt" font-size="36.0" fill="#000000" transform="matrix(1.00, 0.00, -0.00, -1.00, 158.7, 265.0)">r</text><text xml:space="preserve" font-family="HelveticaNeueLTPro-Lt" font-size="36.0" fill="#000000" transform="matrix(1.00, 0.00, -0.00, -1.00, 169.4, 265.0)">o</text><text xml:space="preserve" font-family="HelveticaNeueLTPro-Lt" font-size="36.0" fill="#000000" transform="matrix(1.00, 0.00, -0.00, -1.00, 189.4, 265.0)">m</text><text xml:space="preserve" font-family="HelveticaNeueLTPro-Lt" font-size="36.0" fill="#000000" transform="matrix(1.00, 0.00, -0.00, -1.00, 219.4, 265.0)">e</text><text xml:space="preserve" font-family="HelveticaNeueLTPro-Lt" font-size="36.0" fill="#000000" transform="matrix(1.00, 0.00, -0.00, -1.00, 238.1, 265.0)"> </text><text xml:space="preserve" font-family="HelveticaNeueLTPro-Lt" font-size="36.0" fill="#000000" transform="matrix(1.00, 0.00, -0.00, -1.00, 248.1, 265.0)">d</text><text xml:space="preserve" font-family="HelveticaNeueLTPro-Lt" font-size="36.0" fill="#000000" transform="matrix(1.00, 0.00, -0.00, -1.00, 268.7, 265.0)">e</text><text xml:space="preserve" font-family="HelveticaNeueLTPro-Lt" font-size="36.0" fill="#000000" transform="matrix(1.00, 0.00, -0.00, -1.00, 287.4, 265.0)">v</text><text xml:space="preserve" font-family="HelveticaNeueLTPro-Lt" font-size="36.0" fill="#000000" transform="matrix(1.00, 0.00, -0.00, -1.00, 304.1, 265.0)">e</text><text xml:space="preserve" font-family="HelveticaNeueLTPro-Lt" font-size="36.0" fill="#000000" transform="matrix(1.00, 0.00, -0.00, -1.00, 322.8, 265.0)">l</text><text xml:space="preserve" font-family="HelveticaNeueLTPro-Lt" font-size="36.0" fill="#000000" transform="matrix(1.00, 0.00, -0.00, -1.00, 329.4, 265.0)">o</text><text xml:space="preserve" font-family="HelveticaNeueLTPro-Lt" font-size="36.0" fill="#000000" transform="matrix(1.00, 0.00, -0.00, -1.00, 349.4, 265.0)">p</text><text xml:space="preserve" font-family="HelveticaNeueLTPro-Lt" font-size="36.0" fill="#000000" transform="matrix(1.00, 0.00, -0.00, -1.00, 370.1, 265.0)">e</text><text xml:space="preserve" font-family="HelveticaNeueLTPro-Lt" font-size="36.0" fill="#000000" transform="matrix(1.00, 0.00, -0.00, -1.00, 388.8, 265.0)">r</text><text xml:space="preserve" font-family="HelveticaNeueLTPro-Lt" font-size="36.0" fill="#000000" transform="matrix(1.00, 0.00, -0.00, -1.00, 400.1, 265.0)"> </text><text xml:space="preserve" font-family="HelveticaNeueLTPro-Lt" font-size="36.0" fill="#000000" transform="matrix(1.00, 0.00, -0.00, -1.00, 410.1, 265.0)">t</text><text xml:space="preserve" font-family="HelveticaNeueLTPro-Lt" font-size="36.0" fill="#000000" transform="matrix(1.00, 0.00, -0.00, -1.00, 420.8, 265.0)">o</text><text xml:space="preserve" font-family="HelveticaNeueLTPro-Lt" font-size="36.0" fill="#000000" transform="matrix(1.00, 0.00, -0.00, -1.00, 440.8, 265.0)">o</text><text xml:space="preserve" font-family="HelveticaNeueLTPro-Lt" font-size="36.0" fill="#000000" transform="matrix(1.00, 0.00, -0.00, -1.00, 460.8, 265.0)">l</text><text xml:space="preserve" font-family="HelveticaNeueLTPro-Lt" font-size="36.0" fill="#000000" transform="matrix(1.00, 0.00, -0.00, -1.00, 467.5, 265.0)">s</text><text xml:space="preserve" font-family="HelveticaNeueLTPro-Lt" font-size="36.0" fill="#000000" transform="matrix(1.00, 0.00, -0.00, -1.00, 484.8, 265.0)"> </text><text xml:space="preserve" font-family="HelveticaNeueLTPro-Lt" font-size="27.0" fill="#000000" transform="matrix(1.00, 0.00, -0.00, -1.00, 79.0, 182.5)">•</text><text xml:space="preserve" font-family="HelveticaNeueLTPro-Lt" font-size="36.0" fill="#000000" transform="matrix(1.00, 0.00, -0.00, -1.00, 114.0, 180.0)">C</text><text xml:space="preserve" font-family="HelveticaNeueLTPro-Lt" font-size="36.0" fill="#000000" transform="matrix(1.00, 0.00, -0.00, -1.00, 139.3, 180.0)">S</text><text xml:space="preserve" font-family="HelveticaNeueLTPro-Lt" font-size="36.0" fill="#000000" transform="matrix(1.00, 0.00, -0.00, -1.00, 162.0, 180.0)">S</text><text xml:space="preserve" font-family="HelveticaNeueLTPro-Lt" font-size="36.0" fill="#000000" transform="matrix(1.00, 0.00, -0.00, -1.00, 184.7, 180.0)"> </text><text xml:space="preserve" font-family="HelveticaNeueLTPro-Lt" font-size="36.0" fill="#000000" transform="matrix(1.00, 0.00, -0.00, -1.00, 194.7, 180.0)">r</text><text xml:space="preserve" font-family="HelveticaNeueLTPro-Lt" font-size="36.0" fill="#000000" transform="matrix(1.00, 0.00, -0.00, -1.00, 205.4, 180.0)">e</text><text xml:space="preserve" font-family="HelveticaNeueLTPro-Lt" font-size="36.0" fill="#000000" transform="matrix(1.00, 0.00, -0.00, -1.00, 224.1, 180.0)">s</text><text xml:space="preserve" font-family="HelveticaNeueLTPro-Lt" font-size="36.0" fill="#000000" transform="matrix(1.00, 0.00, -0.00, -1.00, 241.4, 180.0)">e</text><text xml:space="preserve" font-family="HelveticaNeueLTPro-Lt" font-size="36.0" fill="#000000" transform="matrix(1.00, 0.00, -0.00, -1.00, 260.1, 180.0)">t</text><text xml:space="preserve" font-family="HelveticaNeueLTPro-Lt" font-size="36.0" fill="#000000" transform="matrix(1.00, 0.00, -0.00, -1.00, 270.7, 180.0)">s</text></g></svg>