<?xml version="1.0" encoding="UTF-8" standalone="no"?><svg xmlns="http://www.w3.org/2000/svg" xmlns:xlink="http://www.w3.org/1999/xlink" clip-rule="evenodd" stroke-miterlimit="4.00" viewBox="0 0 1024 768"><desc>SVG generated by Keynote</desc><defs></defs><g transform="matrix(1.00, 0.00, -0.00, -1.00, 0.0, 768.0)"><path d="M 0.0 768.0 L 1024.0 768.0 L 1024.0 0.0 L 0.0 0.0 Z M 0.0 768.0 " fill="#FEFFFF"></path><text xml:space="preserve" font-family="AvenirNext-DemiBold" font-weight="bold" font-size="80.0" fill="#000000" transform="matrix(1.00, 0.00, -0.00, -1.00, 414.0, 622.0)">P</text><text xml:space="preserve" font-family="AvenirNext-DemiBold" font-weight="bold" font-size="80.0" fill="#000000" transform="matrix(1.00, 0.00, -0.00, -1.00, 458.3, 622.0)">a</text><text xml:space="preserve" font-family="AvenirNext-DemiBold" font-weight="bold" font-size="80.0" fill="#000000" transform="matrix(1.00, 0.00, -0.00, -1.00, 501.5, 622.0)">t</text><text xml:space="preserve" font-family="AvenirNext-DemiBold" font-weight="bold" font-size="80.0" fill="#000000" transform="matrix(1.00, 0.00, -0.00, -1.00, 528.7, 622.0)">h</text><text xml:space="preserve" font-family="AvenirNext-DemiBold" font-weight="bold" font-size="80.0" fill="#000000" transform="matrix(1.00, 0.00, -0.00, -1.00, 575.4, 622.0)">s</text><text xml:space="preserve" font-family="HelveticaNeueLTPro-Lt" font-size="25.7" fill="#000000" transform="matrix(1.00, 0.00, -0.00, -1.00, 79.0, 533.8)">•</text><text xml:space="preserve" font-family="HelveticaNeueLTPro-Lt" font-size="34.2" fill="#000000" transform="matrix(1.00, 0.00, -0.00, -1.00, 112.0, 532.0)">A</text><text xml:space="preserve" font-family="HelveticaNeueLTPro-Lt" font-size="34.2" fill="#000000" transform="matrix(1.00, 0.00, -0.00, -1.00, 133.5, 532.0)">b</text><text xml:space="preserve" font-family="HelveticaNeueLTPro-Lt" font-size="34.2" fill="#000000" transform="matrix(1.00, 0.00, -0.00, -1.00, 153.2, 532.0)">s</text><text xml:space="preserve" font-family="HelveticaNeueLTPro-Lt" font-size="34.2" fill="#000000" transform="matrix(1.00, 0.00, -0.00, -1.00, 169.6, 532.0)">o</text><text xml:space="preserve" font-family="HelveticaNeueLTPro-Lt" font-size="34.2" fill="#000000" transform="matrix(1.00, 0.00, -0.00, -1.00, 188.6, 532.0)">l</text><text xml:space="preserve" font-family="HelveticaNeueLTPro-Lt" font-size="34.2" fill="#000000" transform="matrix(1.00, 0.00, -0.00, -1.00, 195.0, 532.0)">u</text><text xml:space="preserve" font-family="HelveticaNeueLTPro-Lt" font-size="34.2" fill="#000000" transform="matrix(1.00, 0.00, -0.00, -1.00, 213.3, 532.0)">t</text><text xml:space="preserve" font-family="HelveticaNeueLTPro-Lt" font-size="34.2" fill="#000000" transform="matrix(1.00, 0.00, -0.00, -1.00, 223.5, 532.0)">e</text><text xml:space="preserve" font-family="HelveticaNeueLTPro-Lt" font-size="34.2" fill="#000000" transform="matrix(1.00, 0.00, -0.00, -1.00, 241.2, 532.0)"> </text><text xml:space="preserve" font-family="HelveticaNeueLTPro-Lt" font-size="25.7" fill="#000000" transform="matrix(1.00, 0.00, -0.00, -1.00, 114.0, 452.9)">•</text><text xml:space="preserve" font-family="HelveticaNeueLTPro-Lt" font-size="34.2" fill="#000000" transform="matrix(1.00, 0.00, -0.00, -1.00, 147.0, 451.0)">F</text><text xml:space="preserve" font-family="HelveticaNeueLTPro-Lt" font-size="34.2" fill="#000000" transform="matrix(1.00, 0.00, -0.00, -1.00, 165.4, 451.0)">u</text><text xml:space="preserve" font-family="HelveticaNeueLTPro-Lt" font-size="34.2" fill="#000000" transform="matrix(1.00, 0.00, -0.00, -1.00, 183.7, 451.0)">l</text><text xml:space="preserve" font-family="HelveticaNeueLTPro-Lt" font-size="34.2" fill="#000000" transform="matrix(1.00, 0.00, -0.00, -1.00, 190.1, 451.0)">l</text><text xml:space="preserve" font-family="HelveticaNeueLTPro-Lt" font-size="34.2" fill="#000000" transform="matrix(1.00, 0.00, -0.00, -1.00, 196.4, 451.0)"> </text><text xml:space="preserve" font-family="HelveticaNeueLTPro-Lt" font-size="34.2" fill="#000000" transform="matrix(1.00, 0.00, -0.00, -1.00, 205.9, 451.0)">U</text><text xml:space="preserve" font-family="HelveticaNeueLTPro-Lt" font-size="34.2" fill="#000000" transform="matrix(1.00, 0.00, -0.00, -1.00, 229.3, 451.0)">R</text><text xml:space="preserve" font-family="HelveticaNeueLTPro-Lt" font-size="34.2" fill="#000000" transform="matrix(1.00, 0.00, -0.00, -1.00, 252.1, 451.0)">L</text><text xml:space="preserve" font-family="LucidaGrande" font-size="34.2" fill="#000000" transform="matrix(1.00, 0.00, -0.00, -1.00, 270.5, 451.0)"> </text><text xml:space="preserve" font-family="HelveticaNeueLTPro-Lt" font-size="34.2" fill="#851001" transform="matrix(1.00, 0.00, -0.00, -1.00, 147.0, 410.0)">h</text><text xml:space="preserve" font-family="HelveticaNeueLTPro-Lt" font-size="34.2" fill="#851001" transform="matrix(1.00, 0.00, -0.00, -1.00, 165.4, 410.0)">t</text><text xml:space="preserve" font-family="HelveticaNeueLTPro-Lt" font-size="34.2" fill="#851001" transform="matrix(1.00, 0.00, -0.00, -1.00, 175.5, 410.0)">t</text><text xml:space="preserve" font-family="HelveticaNeueLTPro-Lt" font-size="34.2" fill="#851001" transform="matrix(1.00, 0.00, -0.00, -1.00, 185.6, 410.0)">p</text><text xml:space="preserve" font-family="HelveticaNeueLTPro-Lt" font-size="34.2" fill="#851001" transform="matrix(1.00, 0.00, -0.00, -1.00, 205.2, 410.0)">s</text><text xml:space="preserve" font-family="HelveticaNeueLTPro-Lt" font-size="34.2" fill="#00872A" transform="matrix(1.00, 0.00, -0.00, -1.00, 221.7, 410.0)">:</text><text xml:space="preserve" font-family="HelveticaNeueLTPro-Lt" font-size="34.2" fill="#000000" transform="matrix(1.00, 0.00, -0.00, -1.00, 231.2, 410.0)">/</text><text xml:space="preserve" font-family="HelveticaNeueLTPro-Lt" font-size="34.2" fill="#000000" transform="matrix(1.00, 0.00, -0.00, -1.00, 242.6, 410.0)">/</text><text xml:space="preserve" font-family="HelveticaNeueLTPro-Lt" font-size="34.2" fill="#51A7F9" transform="matrix(1.00, 0.00, -0.00, -1.00, 254.0, 410.0)">g</text><text xml:space="preserve" font-family="HelveticaNeueLTPro-Lt" font-size="34.2" fill="#51A7F9" transform="matrix(1.00, 0.00, -0.00, -1.00, 273.0, 410.0)">e</text><text xml:space="preserve" font-family="HelveticaNeueLTPro-Lt" font-size="34.2" fill="#51A7F9" transform="matrix(1.00, 0.00, -0.00, -1.00, 290.7, 410.0)">n</text><text xml:space="preserve" font-family="HelveticaNeueLTPro-Lt" font-size="34.2" fill="#51A7F9" transform="matrix(1.00, 0.00, -0.00, -1.00, 309.1, 410.0)">e</text><text xml:space="preserve" font-family="HelveticaNeueLTPro-Lt" font-size="34.2" fill="#51A7F9" transform="matrix(1.00, 0.00, -0.00, -1.00, 326.9, 410.0)">r</text><text xml:space="preserve" font-family="HelveticaNeueLTPro-Lt" font-size="34.2" fill="#51A7F9" transform="matrix(1.00, 0.00, -0.00, -1.00, 337.6, 410.0)">a</text><text xml:space="preserve" font-family="HelveticaNeueLTPro-Lt" font-size="34.2" fill="#51A7F9" transform="matrix(1.00, 0.00, -0.00, -1.00, 355.4, 410.0)">l</text><text xml:space="preserve" font-family="HelveticaNeueLTPro-Lt" font-size="34.2" fill="#51A7F9" transform="matrix(1.00, 0.00, -0.00, -1.00, 361.7, 410.0)">a</text><text xml:space="preserve" font-family="HelveticaNeueLTPro-Lt" font-size="34.2" fill="#51A7F9" transform="matrix(1.00, 0.00, -0.00, -1.00, 379.5, 410.0)">s</text><text xml:space="preserve" font-family="HelveticaNeueLTPro-Lt" font-size="34.2" fill="#51A7F9" transform="matrix(1.00, 0.00, -0.00, -1.00, 395.9, 410.0)">s</text><text xml:space="preserve" font-family="HelveticaNeueLTPro-Lt" font-size="34.2" fill="#51A7F9" transform="matrix(1.00, 0.00, -0.00, -1.00, 412.4, 410.0)">e</text><text xml:space="preserve" font-family="HelveticaNeueLTPro-Lt" font-size="34.2" fill="#51A7F9" transform="matrix(1.00, 0.00, -0.00, -1.00, 430.1, 410.0)">m</text><text xml:space="preserve" font-family="HelveticaNeueLTPro-Lt" font-size="34.2" fill="#51A7F9" transform="matrix(1.00, 0.00, -0.00, -1.00, 458.6, 410.0)">b</text><text xml:space="preserve" font-family="HelveticaNeueLTPro-Lt" font-size="34.2" fill="#51A7F9" transform="matrix(1.00, 0.00, -0.00, -1.00, 478.2, 410.0)">.</text><text xml:space="preserve" font-family="HelveticaNeueLTPro-Lt" font-size="34.2" fill="#51A7F9" transform="matrix(1.00, 0.00, -0.00, -1.00, 487.7, 410.0)">l</text><text xml:space="preserve" font-family="HelveticaNeueLTPro-Lt" font-size="34.2" fill="#51A7F9" transform="matrix(1.00, 0.00, -0.00, -1.00, 494.1, 410.0)">y</text><text xml:space="preserve" font-family="HelveticaNeueLTPro-Lt" font-size="34.2" fill="#000000" transform="matrix(1.00, 0.00, -0.00, -1.00, 509.9, 410.0)">/</text><text xml:space="preserve" font-family="HelveticaNeueLTPro-Lt" font-size="34.2" fill="#B26AE1" transform="matrix(1.00, 0.00, -0.00, -1.00, 521.3, 410.0)">e</text><text xml:space="preserve" font-family="HelveticaNeueLTPro-Lt" font-size="34.2" fill="#B26AE1" transform="matrix(1.00, 0.00, -0.00, -1.00, 539.0, 410.0)">d</text><text xml:space="preserve" font-family="HelveticaNeueLTPro-Lt" font-size="34.2" fill="#B26AE1" transform="matrix(1.00, 0.00, -0.00, -1.00, 558.7, 410.0)">u</text><text xml:space="preserve" font-family="HelveticaNeueLTPro-Lt" font-size="34.2" fill="#B26AE1" transform="matrix(1.00, 0.00, -0.00, -1.00, 577.0, 410.0)">c</text><text xml:space="preserve" font-family="HelveticaNeueLTPro-Lt" font-size="34.2" fill="#B26AE1" transform="matrix(1.00, 0.00, -0.00, -1.00, 594.8, 410.0)">a</text><text xml:space="preserve" font-family="HelveticaNeueLTPro-Lt" font-size="34.2" fill="#B26AE1" transform="matrix(1.00, 0.00, -0.00, -1.00, 612.5, 410.0)">t</text><text xml:space="preserve" font-family="HelveticaNeueLTPro-Lt" font-size="34.2" fill="#B26AE1" transform="matrix(1.00, 0.00, -0.00, -1.00, 622.7, 410.0)">i</text><text xml:space="preserve" font-family="HelveticaNeueLTPro-Lt" font-size="34.2" fill="#B26AE1" transform="matrix(1.00, 0.00, -0.00, -1.00, 629.0, 410.0)">o</text><text xml:space="preserve" font-family="HelveticaNeueLTPro-Lt" font-size="34.2" fill="#B26AE1" transform="matrix(1.00, 0.00, -0.00, -1.00, 648.0, 410.0)">n</text><text xml:space="preserve" font-family="HelveticaNeueLTPro-Lt" font-size="34.2" fill="#000000" transform="matrix(1.00, 0.00, -0.00, -1.00, 666.4, 410.0)">/</text><text xml:space="preserve" font-family="HelveticaNeueLTPro-Lt" font-size="34.2" fill="#F38F18" transform="matrix(1.00, 0.00, -0.00, -1.00, 677.7, 410.0)">f</text><text xml:space="preserve" font-family="HelveticaNeueLTPro-Lt" font-size="34.2" fill="#F38F18" transform="matrix(1.00, 0.00, -0.00, -1.00, 686.6, 410.0)">r</text><text xml:space="preserve" font-family="HelveticaNeueLTPro-Lt" font-size="34.2" fill="#F38F18" transform="matrix(1.00, 0.00, -0.00, -1.00, 696.8, 410.0)">o</text><text xml:space="preserve" font-family="HelveticaNeueLTPro-Lt" font-size="34.2" fill="#F38F18" transform="matrix(1.00, 0.00, -0.00, -1.00, 715.8, 410.0)">n</text><text xml:space="preserve" font-family="HelveticaNeueLTPro-Lt" font-size="34.2" fill="#F38F18" transform="matrix(1.00, 0.00, -0.00, -1.00, 734.1, 410.0)">t</text><text xml:space="preserve" font-family="HelveticaNeueLTPro-Lt" font-size="34.2" fill="#F38F18" transform="matrix(1.00, 0.00, -0.00, -1.00, 744.3, 410.0)">-</text><text xml:space="preserve" font-family="HelveticaNeueLTPro-Lt" font-size="34.2" fill="#F38F18" transform="matrix(1.00, 0.00, -0.00, -1.00, 756.9, 410.0)">e</text><text xml:space="preserve" font-family="HelveticaNeueLTPro-Lt" font-size="34.2" fill="#F38F18" transform="matrix(1.00, 0.00, -0.00, -1.00, 774.7, 410.0)">n</text><text xml:space="preserve" font-family="HelveticaNeueLTPro-Lt" font-size="34.2" fill="#F38F18" transform="matrix(1.00, 0.00, -0.00, -1.00, 793.0, 410.0)">d</text><text xml:space="preserve" font-family="HelveticaNeueLTPro-Lt" font-size="34.2" fill="#F38F18" transform="matrix(1.00, 0.00, -0.00, -1.00, 812.7, 410.0)">-</text><text xml:space="preserve" font-family="HelveticaNeueLTPro-Lt" font-size="34.2" fill="#F38F18" transform="matrix(1.00, 0.00, -0.00, -1.00, 825.3, 410.0)">w</text><text xml:space="preserve" font-family="HelveticaNeueLTPro-Lt" font-size="34.2" fill="#F38F18" transform="matrix(1.00, 0.00, -0.00, -1.00, 850.7, 410.0)">e</text><text xml:space="preserve" font-family="HelveticaNeueLTPro-Lt" font-size="34.2" fill="#F38F18" transform="matrix(1.00, 0.00, -0.00, -1.00, 868.4, 410.0)">b</text><text xml:space="preserve" font-family="HelveticaNeueLTPro-Lt" font-size="34.2" fill="#F38F18" transform="matrix(1.00, 0.00, -0.00, -1.00, 888.0, 410.0)">-</text><text xml:space="preserve" font-family="HelveticaNeueLTPro-Lt" font-size="34.2" fill="#F38F18" transform="matrix(1.00, 0.00, -0.00, -1.00, 147.0, 369.0)">d</text><text xml:space="preserve" font-family="HelveticaNeueLTPro-Lt" font-size="34.2" fill="#F38F18" transform="matrix(1.00, 0.00, -0.00, -1.00, 166.6, 369.0)">e</text><text xml:space="preserve" font-family="HelveticaNeueLTPro-Lt" font-size="34.2" fill="#F38F18" transform="matrix(1.00, 0.00, -0.00, -1.00, 184.4, 369.0)">v</text><text xml:space="preserve" font-family="HelveticaNeueLTPro-Lt" font-size="34.2" fill="#F38F18" transform="matrix(1.00, 0.00, -0.00, -1.00, 200.2, 369.0)">e</text><text xml:space="preserve" font-family="HelveticaNeueLTPro-Lt" font-size="34.2" fill="#F38F18" transform="matrix(1.00, 0.00, -0.00, -1.00, 218.0, 369.0)">l</text><text xml:space="preserve" font-family="HelveticaNeueLTPro-Lt" font-size="34.2" fill="#F38F18" transform="matrix(1.00, 0.00, -0.00, -1.00, 224.3, 369.0)">o</text><text xml:space="preserve" font-family="HelveticaNeueLTPro-Lt" font-size="34.2" fill="#F38F18" transform="matrix(1.00, 0.00, -0.00, -1.00, 243.3, 369.0)">p</text><text xml:space="preserve" font-family="HelveticaNeueLTPro-Lt" font-size="34.2" fill="#F38F18" transform="matrix(1.00, 0.00, -0.00, -1.00, 262.9, 369.0)">m</text><text xml:space="preserve" font-family="HelveticaNeueLTPro-Lt" font-size="34.2" fill="#F38F18" transform="matrix(1.00, 0.00, -0.00, -1.00, 291.4, 369.0)">e</text><text xml:space="preserve" font-family="HelveticaNeueLTPro-Lt" font-size="34.2" fill="#F38F18" transform="matrix(1.00, 0.00, -0.00, -1.00, 309.2, 369.0)">n</text><text xml:space="preserve" font-family="HelveticaNeueLTPro-Lt" font-size="34.2" fill="#F38F18" transform="matrix(1.00, 0.00, -0.00, -1.00, 327.5, 369.0)">t</text><text xml:space="preserve" font-family="HelveticaNeueLTPro-Lt" font-size="34.2" fill="#000000" transform="matrix(1.00, 0.00, -0.00, -1.00, 337.7, 369.0)">/</text><text xml:space="preserve" font-family="HelveticaNeueLTPro-Lt" font-size="34.2" fill="#6FBF40" transform="matrix(1.00, 0.00, -0.00, -1.00, 349.1, 369.0)">i</text><text xml:space="preserve" font-family="HelveticaNeueLTPro-Lt" font-size="34.2" fill="#6FBF40" transform="matrix(1.00, 0.00, -0.00, -1.00, 355.4, 369.0)">n</text><text xml:space="preserve" font-family="HelveticaNeueLTPro-Lt" font-size="34.2" fill="#6FBF40" transform="matrix(1.00, 0.00, -0.00, -1.00, 373.7, 369.0)">d</text><text xml:space="preserve" font-family="HelveticaNeueLTPro-Lt" font-size="34.2" fill="#6FBF40" transform="matrix(1.00, 0.00, -0.00, -1.00, 393.4, 369.0)">e</text><text xml:space="preserve" font-family="HelveticaNeueLTPro-Lt" font-size="34.2" fill="#6FBF40" transform="matrix(1.00, 0.00, -0.00, -1.00, 411.1, 369.0)">x</text><text xml:space="preserve" font-family="HelveticaNeueLTPro-Lt" font-size="34.2" fill="#6FBF40" transform="matrix(1.00, 0.00, -0.00, -1.00, 427.6, 369.0)">.</text><text xml:space="preserve" font-family="HelveticaNeueLTPro-Lt" font-size="34.2" fill="#6FBF40" transform="matrix(1.00, 0.00, -0.00, -1.00, 437.1, 369.0)">h</text><text xml:space="preserve" font-family="HelveticaNeueLTPro-Lt" font-size="34.2" fill="#6FBF40" transform="matrix(1.00, 0.00, -0.00, -1.00, 455.4, 369.0)">t</text><text xml:space="preserve" font-family="HelveticaNeueLTPro-Lt" font-size="34.2" fill="#6FBF40" transform="matrix(1.00, 0.00, -0.00, -1.00, 465.6, 369.0)">m</text><text xml:space="preserve" font-family="HelveticaNeueLTPro-Lt" font-size="34.2" fill="#6FBF40" transform="matrix(1.00, 0.00, -0.00, -1.00, 494.1, 369.0)">l</text><text xml:space="preserve" font-family="HelveticaNeueLTPro-Lt" font-size="34.2" fill="#6FBF40" transform="matrix(1.00, 0.00, -0.00, -1.00, 500.4, 369.0)"> </text><text xml:space="preserve" font-family="HelveticaNeueLTPro-Lt" font-size="25.7" fill="#000000" transform="matrix(1.00, 0.00, -0.00, -1.00, 114.0, 290.0)">•</text><text xml:space="preserve" font-family="HelveticaNeueLTPro-Lt" font-size="34.2" fill="#000000" transform="matrix(1.00, 0.00, -0.00, -1.00, 147.0, 288.0)">W</text><text xml:space="preserve" font-family="HelveticaNeueLTPro-Lt" font-size="34.2" fill="#000000" transform="matrix(1.00, 0.00, -0.00, -1.00, 177.4, 288.0)">e</text><text xml:space="preserve" font-family="HelveticaNeueLTPro-Lt" font-size="34.2" fill="#000000" transform="matrix(1.00, 0.00, -0.00, -1.00, 195.2, 288.0)">b</text><text xml:space="preserve" font-family="HelveticaNeueLTPro-Lt" font-size="34.2" fill="#000000" transform="matrix(1.00, 0.00, -0.00, -1.00, 214.8, 288.0)">s</text><text xml:space="preserve" font-family="HelveticaNeueLTPro-Lt" font-size="34.2" fill="#000000" transform="matrix(1.00, 0.00, -0.00, -1.00, 231.2, 288.0)">i</text><text xml:space="preserve" font-family="HelveticaNeueLTPro-Lt" font-size="34.2" fill="#000000" transform="matrix(1.00, 0.00, -0.00, -1.00, 237.6, 288.0)">t</text><text xml:space="preserve" font-family="HelveticaNeueLTPro-Lt" font-size="34.2" fill="#000000" transform="matrix(1.00, 0.00, -0.00, -1.00, 247.7, 288.0)">e</text><text xml:space="preserve" font-family="HelveticaNeueLTPro-Lt" font-size="34.2" fill="#000000" transform="matrix(1.00, 0.00, -0.00, -1.00, 265.4, 288.0)"> </text><text xml:space="preserve" font-family="HelveticaNeueLTPro-Lt" font-size="34.2" fill="#000000" transform="matrix(1.00, 0.00, -0.00, -1.00, 274.9, 288.0)">r</text><text xml:space="preserve" font-family="HelveticaNeueLTPro-Lt" font-size="34.2" fill="#000000" transform="matrix(1.00, 0.00, -0.00, -1.00, 285.1, 288.0)">o</text><text xml:space="preserve" font-family="HelveticaNeueLTPro-Lt" font-size="34.2" fill="#000000" transform="matrix(1.00, 0.00, -0.00, -1.00, 304.1, 288.0)">o</text><text xml:space="preserve" font-family="HelveticaNeueLTPro-Lt" font-size="34.2" fill="#000000" transform="matrix(1.00, 0.00, -0.00, -1.00, 323.1, 288.0)">t</text><text xml:space="preserve" font-family="LucidaGrande" font-size="34.2" fill="#6FBF40" transform="matrix(1.00, 0.00, -0.00, -1.00, 333.3, 288.0)"> </text><text xml:space="preserve" font-family="HelveticaNeueLTPro-Lt" font-size="34.2" fill="#000000" transform="matrix(1.00, 0.00, -0.00, -1.00, 147.0, 247.0)">/</text><text xml:space="preserve" font-family="HelveticaNeueLTPro-Lt" font-size="34.2" fill="#F38F18" transform="matrix(1.00, 0.00, -0.00, -1.00, 158.4, 247.0)">w</text><text xml:space="preserve" font-family="HelveticaNeueLTPro-Lt" font-size="34.2" fill="#F38F18" transform="matrix(1.00, 0.00, -0.00, -1.00, 183.7, 247.0)">o</text><text xml:space="preserve" font-family="HelveticaNeueLTPro-Lt" font-size="34.2" fill="#F38F18" transform="matrix(1.00, 0.00, -0.00, -1.00, 202.7, 247.0)">r</text><text xml:space="preserve" font-family="HelveticaNeueLTPro-Lt" font-size="34.2" fill="#F38F18" transform="matrix(1.00, 0.00, -0.00, -1.00, 213.5, 247.0)">k</text><text xml:space="preserve" font-family="HelveticaNeueLTPro-Lt" font-size="34.2" fill="#F38F18" transform="matrix(1.00, 0.00, -0.00, -1.00, 230.6, 247.0)">s</text><text xml:space="preserve" font-family="HelveticaNeueLTPro-Lt" font-size="34.2" fill="#F38F18" transform="matrix(1.00, 0.00, -0.00, -1.00, 247.1, 247.0)">h</text><text xml:space="preserve" font-family="HelveticaNeueLTPro-Lt" font-size="34.2" fill="#F38F18" transform="matrix(1.00, 0.00, -0.00, -1.00, 265.4, 247.0)">o</text><text xml:space="preserve" font-family="HelveticaNeueLTPro-Lt" font-size="34.2" fill="#F38F18" transform="matrix(1.00, 0.00, -0.00, -1.00, 284.4, 247.0)">p</text><text xml:space="preserve" font-family="HelveticaNeueLTPro-Lt" font-size="34.2" fill="#F38F18" transform="matrix(1.00, 0.00, -0.00, -1.00, 304.1, 247.0)">s</text><text xml:space="preserve" font-family="HelveticaNeueLTPro-Lt" font-size="34.2" fill="#000000" transform="matrix(1.00, 0.00, -0.00, -1.00, 320.5, 247.0)">/</text><text xml:space="preserve" font-family="HelveticaNeueLTPro-Lt" font-size="34.2" fill="#6FBF40" transform="matrix(1.00, 0.00, -0.00, -1.00, 331.9, 247.0)">i</text><text xml:space="preserve" font-family="HelveticaNeueLTPro-Lt" font-size="34.2" fill="#6FBF40" transform="matrix(1.00, 0.00, -0.00, -1.00, 338.2, 247.0)">n</text><text xml:space="preserve" font-family="HelveticaNeueLTPro-Lt" font-size="34.2" fill="#6FBF40" transform="matrix(1.00, 0.00, -0.00, -1.00, 356.6, 247.0)">d</text><text xml:space="preserve" font-family="HelveticaNeueLTPro-Lt" font-size="34.2" fill="#6FBF40" transform="matrix(1.00, 0.00, -0.00, -1.00, 376.2, 247.0)">e</text><text xml:space="preserve" font-family="HelveticaNeueLTPro-Lt" font-size="34.2" fill="#6FBF40" transform="matrix(1.00, 0.00, -0.00, -1.00, 394.0, 247.0)">x</text><text xml:space="preserve" font-family="HelveticaNeueLTPro-Lt" font-size="34.2" fill="#6FBF40" transform="matrix(1.00, 0.00, -0.00, -1.00, 410.4, 247.0)">.</text><text xml:space="preserve" font-family="HelveticaNeueLTPro-Lt" font-size="34.2" fill="#6FBF40" transform="matrix(1.00, 0.00, -0.00, -1.00, 420.0, 247.0)">h</text><text xml:space="preserve" font-family="HelveticaNeueLTPro-Lt" font-size="34.2" fill="#6FBF40" transform="matrix(1.00, 0.00, -0.00, -1.00, 438.3, 247.0)">t</text><text xml:space="preserve" font-family="HelveticaNeueLTPro-Lt" font-size="34.2" fill="#6FBF40" transform="matrix(1.00, 0.00, -0.00, -1.00, 448.4, 247.0)">m</text><text xml:space="preserve" font-family="HelveticaNeueLTPro-Lt" font-size="34.2" fill="#6FBF40" transform="matrix(1.00, 0.00, -0.00, -1.00, 476.9, 247.0)">l</text><text xml:space="preserve" font-family="HelveticaNeueLTPro-Lt" font-size="34.2" fill="#000000" transform="matrix(1.00, 0.00, -0.00, -1.00, 483.3, 247.0)"> </text><text xml:space="preserve" font-family="HelveticaNeueLTPro-Lt" font-size="25.7" fill="#000000" transform="matrix(1.00, 0.00, -0.00, -1.00, 79.0, 168.1)">•</text><text xml:space="preserve" font-family="HelveticaNeueLTPro-Lt" font-size="34.2" fill="#000000" transform="matrix(1.00, 0.00, -0.00, -1.00, 112.0, 166.0)">R</text><text xml:space="preserve" font-family="HelveticaNeueLTPro-Lt" font-size="34.2" fill="#000000" transform="matrix(1.00, 0.00, -0.00, -1.00, 134.8, 166.0)">e</text><text xml:space="preserve" font-family="HelveticaNeueLTPro-Lt" font-size="34.2" fill="#000000" transform="matrix(1.00, 0.00, -0.00, -1.00, 152.6, 166.0)">l</text><text xml:space="preserve" font-family="HelveticaNeueLTPro-Lt" font-size="34.2" fill="#000000" transform="matrix(1.00, 0.00, -0.00, -1.00, 158.9, 166.0)">a</text><text xml:space="preserve" font-family="HelveticaNeueLTPro-Lt" font-size="34.2" fill="#000000" transform="matrix(1.00, 0.00, -0.00, -1.00, 176.6, 166.0)">t</text><text xml:space="preserve" font-family="HelveticaNeueLTPro-Lt" font-size="34.2" fill="#000000" transform="matrix(1.00, 0.00, -0.00, -1.00, 186.8, 166.0)">i</text><text xml:space="preserve" font-family="HelveticaNeueLTPro-Lt" font-size="34.2" fill="#000000" transform="matrix(1.00, 0.00, -0.00, -1.00, 193.1, 166.0)">v</text><text xml:space="preserve" font-family="HelveticaNeueLTPro-Lt" font-size="34.2" fill="#000000" transform="matrix(1.00, 0.00, -0.00, -1.00, 208.9, 166.0)">e</text><text xml:space="preserve" font-family="LucidaGrande" font-size="34.2" fill="#000000" transform="matrix(1.00, 0.00, -0.00, -1.00, 226.7, 166.0)"> </text><text xml:space="preserve" font-family="HelveticaNeueLTPro-Lt" font-size="34.2" fill="#F38F18" transform="matrix(1.00, 0.00, -0.00, -1.00, 112.0, 125.0)">p</text><text xml:space="preserve" font-family="HelveticaNeueLTPro-Lt" font-size="34.2" fill="#F38F18" transform="matrix(1.00, 0.00, -0.00, -1.00, 131.6, 125.0)">a</text><text xml:space="preserve" font-family="HelveticaNeueLTPro-Lt" font-size="34.2" fill="#F38F18" transform="matrix(1.00, 0.00, -0.00, -1.00, 149.4, 125.0)">g</text><text xml:space="preserve" font-family="HelveticaNeueLTPro-Lt" font-size="34.2" fill="#F38F18" transform="matrix(1.00, 0.00, -0.00, -1.00, 168.4, 125.0)">e</text><text xml:space="preserve" font-family="HelveticaNeueLTPro-Lt" font-size="34.2" fill="#F38F18" transform="matrix(1.00, 0.00, -0.00, -1.00, 186.1, 125.0)">s</text><text xml:space="preserve" font-family="HelveticaNeueLTPro-Lt" font-size="34.2" fill="#000000" transform="matrix(1.00, 0.00, -0.00, -1.00, 202.6, 125.0)">/</text><text xml:space="preserve" font-family="HelveticaNeueLTPro-Lt" font-size="34.2" fill="#6FBF40" transform="matrix(1.00, 0.00, -0.00, -1.00, 214.0, 125.0)">a</text><text xml:space="preserve" font-family="HelveticaNeueLTPro-Lt" font-size="34.2" fill="#6FBF40" transform="matrix(1.00, 0.00, -0.00, -1.00, 231.7, 125.0)">b</text><text xml:space="preserve" font-family="HelveticaNeueLTPro-Lt" font-size="34.2" fill="#6FBF40" transform="matrix(1.00, 0.00, -0.00, -1.00, 251.4, 125.0)">o</text><text xml:space="preserve" font-family="HelveticaNeueLTPro-Lt" font-size="34.2" fill="#6FBF40" transform="matrix(1.00, 0.00, -0.00, -1.00, 270.4, 125.0)">u</text><text xml:space="preserve" font-family="HelveticaNeueLTPro-Lt" font-size="34.2" fill="#6FBF40" transform="matrix(1.00, 0.00, -0.00, -1.00, 288.7, 125.0)">t</text><text xml:space="preserve" font-family="HelveticaNeueLTPro-Lt" font-size="34.2" fill="#6FBF40" transform="matrix(1.00, 0.00, -0.00, -1.00, 298.9, 125.0)">.</text><text xml:space="preserve" font-family="HelveticaNeueLTPro-Lt" font-size="34.2" fill="#6FBF40" transform="matrix(1.00, 0.00, -0.00, -1.00, 308.4, 125.0)">h</text><text xml:space="preserve" font-family="HelveticaNeueLTPro-Lt" font-size="34.2" fill="#6FBF40" transform="matrix(1.00, 0.00, -0.00, -1.00, 326.7, 125.0)">t</text><text xml:space="preserve" font-family="HelveticaNeueLTPro-Lt" font-size="34.2" fill="#6FBF40" transform="matrix(1.00, 0.00, -0.00, -1.00, 336.9, 125.0)">m</text><text xml:space="preserve" font-family="HelveticaNeueLTPro-Lt" font-size="34.2" fill="#6FBF40" transform="matrix(1.00, 0.00, -0.00, -1.00, 365.4, 125.0)">l</text><text xml:space="preserve" font-family="LucidaGrande" font-size="34.2" fill="#6FBF40" transform="matrix(1.00, 0.00, -0.00, -1.00, 371.7, 125.0)"> </text><text xml:space="preserve" font-family="HelveticaNeueLTPro-Lt" font-size="34.2" fill="#000000" transform="matrix(1.00, 0.00, -0.00, -1.00, 112.0, 84.0)">.</text><text xml:space="preserve" font-family="HelveticaNeueLTPro-Lt" font-size="34.2" fill="#000000" transform="matrix(1.00, 0.00, -0.00, -1.00, 121.5, 84.0)">.</text><text xml:space="preserve" font-family="HelveticaNeueLTPro-Lt" font-size="34.2" fill="#000000" transform="matrix(1.00, 0.00, -0.00, -1.00, 131.0, 84.0)">/</text><text xml:space="preserve" font-family="HelveticaNeueLTPro-Lt" font-size="34.2" fill="#F38F18" transform="matrix(1.00, 0.00, -0.00, -1.00, 142.4, 84.0)">w</text><text xml:space="preserve" font-family="HelveticaNeueLTPro-Lt" font-size="34.2" fill="#F38F18" transform="matrix(1.00, 0.00, -0.00, -1.00, 167.7, 84.0)">o</text><text xml:space="preserve" font-family="HelveticaNeueLTPro-Lt" font-size="34.2" fill="#F38F18" transform="matrix(1.00, 0.00, -0.00, -1.00, 186.8, 84.0)">r</text><text xml:space="preserve" font-family="HelveticaNeueLTPro-Lt" font-size="34.2" fill="#F38F18" transform="matrix(1.00, 0.00, -0.00, -1.00, 197.5, 84.0)">k</text><text xml:space="preserve" font-family="HelveticaNeueLTPro-Lt" font-size="34.2" fill="#F38F18" transform="matrix(1.00, 0.00, -0.00, -1.00, 214.6, 84.0)">s</text><text xml:space="preserve" font-family="HelveticaNeueLTPro-Lt" font-size="34.2" fill="#F38F18" transform="matrix(1.00, 0.00, -0.00, -1.00, 231.1, 84.0)">h</text><text xml:space="preserve" font-family="HelveticaNeueLTPro-Lt" font-size="34.2" fill="#F38F18" transform="matrix(1.00, 0.00, -0.00, -1.00, 249.4, 84.0)">o</text><text xml:space="preserve" font-family="HelveticaNeueLTPro-Lt" font-size="34.2" fill="#F38F18" transform="matrix(1.00, 0.00, -0.00, -1.00, 268.5, 84.0)">p</text><text xml:space="preserve" font-family="HelveticaNeueLTPro-Lt" font-size="34.2" fill="#F38F18" transform="matrix(1.00, 0.00, -0.00, -1.00, 288.1, 84.0)">s</text><text xml:space="preserve" font-family="HelveticaNeueLTPro-Lt" font-size="34.2" fill="#000000" transform="matrix(1.00, 0.00, -0.00, -1.00, 304.5, 84.0)">/</text><text xml:space="preserve" font-family="HelveticaNeueLTPro-Lt" font-size="34.2" fill="#6FBF40" transform="matrix(1.00, 0.00, -0.00, -1.00, 315.9, 84.0)">i</text><text xml:space="preserve" font-family="HelveticaNeueLTPro-Lt" font-size="34.2" fill="#6FBF40" transform="matrix(1.00, 0.00, -0.00, -1.00, 322.3, 84.0)">n</text><text xml:space="preserve" font-family="HelveticaNeueLTPro-Lt" font-size="34.2" fill="#6FBF40" transform="matrix(1.00, 0.00, -0.00, -1.00, 340.6, 84.0)">d</text><text xml:space="preserve" font-family="HelveticaNeueLTPro-Lt" font-size="34.2" fill="#6FBF40" transform="matrix(1.00, 0.00, -0.00, -1.00, 360.3, 84.0)">e</text><text xml:space="preserve" font-family="HelveticaNeueLTPro-Lt" font-size="34.2" fill="#6FBF40" transform="matrix(1.00, 0.00, -0.00, -1.00, 378.0, 84.0)">x</text><text xml:space="preserve" font-family="HelveticaNeueLTPro-Lt" font-size="34.2" fill="#6FBF40" transform="matrix(1.00, 0.00, -0.00, -1.00, 394.5, 84.0)">.</text><text xml:space="preserve" font-family="HelveticaNeueLTPro-Lt" font-size="34.2" fill="#6FBF40" transform="matrix(1.00, 0.00, -0.00, -1.00, 404.0, 84.0)">h</text><text xml:space="preserve" font-family="HelveticaNeueLTPro-Lt" font-size="34.2" fill="#6FBF40" transform="matrix(1.00, 0.00, -0.00, -1.00, 422.3, 84.0)">t</text><text xml:space="preserve" font-family="HelveticaNeueLTPro-Lt" font-size="34.2" fill="#6FBF40" transform="matrix(1.00, 0.00, -0.00, -1.00, 432.5, 84.0)">m</text><text xml:space="preserve" font-family="HelveticaNeueLTPro-Lt" font-size="34.2" fill="#6FBF40" transform="matrix(1.00, 0.00, -0.00, -1.00, 460.9, 84.0)">l</text></g></svg>