<?xml version="1.0" encoding="UTF-8" standalone="no"?><svg xmlns="http://www.w3.org/2000/svg" xmlns:xlink="http://www.w3.org/1999/xlink" clip-rule="evenodd" stroke-miterlimit="4.00" viewBox="0 0 1024 768"><desc>SVG generated by Keynote</desc><defs></defs><g transform="matrix(1.00, 0.00, -0.00, -1.00, 0.0, 768.0)"><path d="M 0.0 768.0 L 1024.0 768.0 L 1024.0 0.0 L 0.0 0.0 Z M 0.0 768.0 " fill="#FEFFFF"></path><text xml:space="preserve" font-family="AvenirNext-DemiBold" font-weight="bold" font-size="80.0" fill="#000000" transform="matrix(1.00, 0.00, -0.00, -1.00, 278.0, 622.0)">C</text><text xml:space="preserve" font-family="AvenirNext-DemiBold" font-weight="bold" font-size="80.0" fill="#000000" transform="matrix(1.00, 0.00, -0.00, -1.00, 332.7, 622.0)">o</text><text xml:space="preserve" font-family="AvenirNext-DemiBold" font-weight="bold" font-size="80.0" fill="#000000" transform="matrix(1.00, 0.00, -0.00, -1.00, 381.5, 622.0)">n</text><text xml:space="preserve" font-family="AvenirNext-DemiBold" font-weight="bold" font-size="80.0" fill="#000000" transform="matrix(1.00, 0.00, -0.00, -1.00, 428.1, 622.0)">d</text><text xml:space="preserve" font-family="AvenirNext-DemiBold" font-weight="bold" font-size="80.0" fill="#000000" transform="matrix(1.00, 0.00, -0.00, -1.00, 478.8, 622.0)">i</text><text xml:space="preserve" font-family="AvenirNext-DemiBold" font-weight="bold" font-size="80.0" fill="#000000" transform="matrix(1.00, 0.00, -0.00, -1.00, 500.2, 622.0)">t</text><text xml:space="preserve" font-family="AvenirNext-DemiBold" font-weight="bold" font-size="80.0" fill="#000000" transform="matrix(1.00, 0.00, -0.00, -1.00, 527.4, 622.0)">i</text><text xml:space="preserve" font-family="AvenirNext-DemiBold" font-weight="bold" font-size="80.0" fill="#000000" transform="matrix(1.00, 0.00, -0.00, -1.00, 548.9, 622.0)">o</text><text xml:space="preserve" font-family="AvenirNext-DemiBold" font-weight="bold" font-size="80.0" fill="#000000" transform="matrix(1.00, 0.00, -0.00, -1.00, 597.7, 622.0)">n</text><text xml:space="preserve" font-family="AvenirNext-DemiBold" font-weight="bold" font-size="80.0" fill="#000000" transform="matrix(1.00, 0.00, -0.00, -1.00, 644.2, 622.0)">a</text><text xml:space="preserve" font-family="AvenirNext-DemiBold" font-weight="bold" font-size="80.0" fill="#000000" transform="matrix(1.00, 0.00, -0.00, -1.00, 688.2, 622.0)">l</text><text xml:space="preserve" font-family="AvenirNext-DemiBold" font-weight="bold" font-size="80.0" fill="#000000" transform="matrix(1.00, 0.00, -0.00, -1.00, 709.7, 622.0)">s</text><text xml:space="preserve" font-family="FiraMono-Regular" font-size="44.0" fill="#0221B8" transform="matrix(1.00, 0.00, -0.00, -1.00, 129.0, 422.0)">i</text><text xml:space="preserve" font-family="FiraMono-Regular" font-size="44.0" fill="#0221B8" transform="matrix(1.00, 0.00, -0.00, -1.00, 155.4, 422.0)">f</text><text xml:space="preserve" font-family="FiraMono-Regular" font-size="44.0" fill="#000000" transform="matrix(1.00, 0.00, -0.00, -1.00, 181.8, 422.0)"> </text><text xml:space="preserve" font-family="FiraMono-Regular" font-size="44.0" fill="#000000" transform="matrix(1.00, 0.00, -0.00, -1.00, 208.2, 422.0)">&lt;</text><text xml:space="preserve" font-family="FiraMono-Regular" font-size="44.0" fill="#000000" transform="matrix(1.00, 0.00, -0.00, -1.00, 234.6, 422.0)">c</text><text xml:space="preserve" font-family="FiraMono-Regular" font-size="44.0" fill="#000000" transform="matrix(1.00, 0.00, -0.00, -1.00, 261.0, 422.0)">o</text><text xml:space="preserve" font-family="FiraMono-Regular" font-size="44.0" fill="#000000" transform="matrix(1.00, 0.00, -0.00, -1.00, 287.4, 422.0)">n</text><text xml:space="preserve" font-family="FiraMono-Regular" font-size="44.0" fill="#000000" transform="matrix(1.00, 0.00, -0.00, -1.00, 313.8, 422.0)">d</text><text xml:space="preserve" font-family="FiraMono-Regular" font-size="44.0" fill="#000000" transform="matrix(1.00, 0.00, -0.00, -1.00, 340.2, 422.0)">i</text><text xml:space="preserve" font-family="FiraMono-Regular" font-size="44.0" fill="#000000" transform="matrix(1.00, 0.00, -0.00, -1.00, 366.6, 422.0)">t</text><text xml:space="preserve" font-family="FiraMono-Regular" font-size="44.0" fill="#000000" transform="matrix(1.00, 0.00, -0.00, -1.00, 393.0, 422.0)">i</text><text xml:space="preserve" font-family="FiraMono-Regular" font-size="44.0" fill="#000000" transform="matrix(1.00, 0.00, -0.00, -1.00, 419.4, 422.0)">o</text><text xml:space="preserve" font-family="FiraMono-Regular" font-size="44.0" fill="#000000" transform="matrix(1.00, 0.00, -0.00, -1.00, 445.8, 422.0)">n</text><text xml:space="preserve" font-family="FiraMono-Regular" font-size="44.0" fill="#000000" transform="matrix(1.00, 0.00, -0.00, -1.00, 472.2, 422.0)"> </text><text xml:space="preserve" font-family="FiraMono-Regular" font-size="44.0" fill="#0221B8" transform="matrix(1.00, 0.00, -0.00, -1.00, 498.6, 422.0)">i</text><text xml:space="preserve" font-family="FiraMono-Regular" font-size="44.0" fill="#0221B8" transform="matrix(1.00, 0.00, -0.00, -1.00, 525.0, 422.0)">s</text><text xml:space="preserve" font-family="FiraMono-Regular" font-size="44.0" fill="#000000" transform="matrix(1.00, 0.00, -0.00, -1.00, 551.4, 422.0)"> </text><text xml:space="preserve" font-family="FiraMono-Regular" font-size="44.0" fill="#000000" transform="matrix(1.00, 0.00, -0.00, -1.00, 577.8, 422.0)">t</text><text xml:space="preserve" font-family="FiraMono-Regular" font-size="44.0" fill="#000000" transform="matrix(1.00, 0.00, -0.00, -1.00, 604.2, 422.0)">r</text><text xml:space="preserve" font-family="FiraMono-Regular" font-size="44.0" fill="#000000" transform="matrix(1.00, 0.00, -0.00, -1.00, 630.6, 422.0)">u</text><text xml:space="preserve" font-family="FiraMono-Regular" font-size="44.0" fill="#000000" transform="matrix(1.00, 0.00, -0.00, -1.00, 657.0, 422.0)">e</text><text xml:space="preserve" font-family="FiraMono-Regular" font-size="44.0" fill="#000000" transform="matrix(1.00, 0.00, -0.00, -1.00, 683.4, 422.0)">&gt;</text><text xml:space="preserve" font-family="FiraMono-Regular" font-size="44.0" fill="#000000" transform="matrix(1.00, 0.00, -0.00, -1.00, 709.8, 422.0)"> </text><text xml:space="preserve" font-family="FiraMono-Regular" font-size="44.0" fill="#000000" transform="matrix(1.00, 0.00, -0.00, -1.00, 736.2, 422.0)">t</text><text xml:space="preserve" font-family="FiraMono-Regular" font-size="44.0" fill="#000000" transform="matrix(1.00, 0.00, -0.00, -1.00, 762.6, 422.0)">h</text><text xml:space="preserve" font-family="FiraMono-Regular" font-size="44.0" fill="#000000" transform="matrix(1.00, 0.00, -0.00, -1.00, 789.0, 422.0)">e</text><text xml:space="preserve" font-family="FiraMono-Regular" font-size="44.0" fill="#000000" transform="matrix(1.00, 0.00, -0.00, -1.00, 815.4, 422.0)">n</text><text xml:space="preserve" font-family="FiraMono-Regular" font-size="44.0" fill="#000000" transform="matrix(1.00, 0.00, -0.00, -1.00, 841.8, 422.0)">:</text><text xml:space="preserve" font-family="FiraMono-Regular" font-size="44.0" fill="#000000" transform="matrix(1.00, 0.00, -0.00, -1.00, 868.2, 422.0)"> </text><text xml:space="preserve" font-family="FiraMono-Regular" font-size="44.0" fill="#000000" transform="matrix(1.00, 0.00, -0.00, -1.00, 129.0, 361.0)"> </text><text xml:space="preserve" font-family="FiraMono-Regular" font-size="44.0" fill="#000000" transform="matrix(1.00, 0.00, -0.00, -1.00, 155.4, 361.0)"> </text><text xml:space="preserve" font-family="FiraMono-Regular" font-size="44.0" fill="#000000" transform="matrix(1.00, 0.00, -0.00, -1.00, 181.8, 361.0)">d</text><text xml:space="preserve" font-family="FiraMono-Regular" font-size="44.0" fill="#000000" transform="matrix(1.00, 0.00, -0.00, -1.00, 208.2, 361.0)">o</text><text xml:space="preserve" font-family="FiraMono-Regular" font-size="44.0" fill="#000000" transform="matrix(1.00, 0.00, -0.00, -1.00, 234.6, 361.0)"> </text><text xml:space="preserve" font-family="FiraMono-Regular" font-size="44.0" fill="#000000" transform="matrix(1.00, 0.00, -0.00, -1.00, 261.0, 361.0)">&lt;</text><text xml:space="preserve" font-family="FiraMono-Regular" font-size="44.0" fill="#000000" transform="matrix(1.00, 0.00, -0.00, -1.00, 287.4, 361.0)">s</text><text xml:space="preserve" font-family="FiraMono-Regular" font-size="44.0" fill="#000000" transform="matrix(1.00, 0.00, -0.00, -1.00, 313.8, 361.0)">o</text><text xml:space="preserve" font-family="FiraMono-Regular" font-size="44.0" fill="#000000" transform="matrix(1.00, 0.00, -0.00, -1.00, 340.2, 361.0)">m</text><text xml:space="preserve" font-family="FiraMono-Regular" font-size="44.0" fill="#000000" transform="matrix(1.00, 0.00, -0.00, -1.00, 366.6, 361.0)">e</text><text xml:space="preserve" font-family="FiraMono-Regular" font-size="44.0" fill="#000000" transform="matrix(1.00, 0.00, -0.00, -1.00, 393.0, 361.0)">t</text><text xml:space="preserve" font-family="FiraMono-Regular" font-size="44.0" fill="#000000" transform="matrix(1.00, 0.00, -0.00, -1.00, 419.4, 361.0)">h</text><text xml:space="preserve" font-family="FiraMono-Regular" font-size="44.0" fill="#000000" transform="matrix(1.00, 0.00, -0.00, -1.00, 445.8, 361.0)">i</text><text xml:space="preserve" font-family="FiraMono-Regular" font-size="44.0" fill="#000000" transform="matrix(1.00, 0.00, -0.00, -1.00, 472.2, 361.0)">n</text><text xml:space="preserve" font-family="FiraMono-Regular" font-size="44.0" fill="#000000" transform="matrix(1.00, 0.00, -0.00, -1.00, 498.6, 361.0)">g</text><text xml:space="preserve" font-family="FiraMono-Regular" font-size="44.0" fill="#000000" transform="matrix(1.00, 0.00, -0.00, -1.00, 525.0, 361.0)">&gt;</text><text xml:space="preserve" font-family="FiraMono-Regular" font-size="44.0" fill="#000000" transform="matrix(1.00, 0.00, -0.00, -1.00, 551.4, 361.0)"> </text><text xml:space="preserve" font-family="FiraMono-Regular" font-size="44.0" fill="#0221B8" transform="matrix(1.00, 0.00, -0.00, -1.00, 129.0, 300.0)">e</text><text xml:space="preserve" font-family="FiraMono-Regular" font-size="44.0" fill="#0221B8" transform="matrix(1.00, 0.00, -0.00, -1.00, 155.4, 300.0)">l</text><text xml:space="preserve" font-family="FiraMono-Regular" font-size="44.0" fill="#0221B8" transform="matrix(1.00, 0.00, -0.00, -1.00, 181.8, 300.0)">s</text><text xml:space="preserve" font-family="FiraMono-Regular" font-size="44.0" fill="#0221B8" transform="matrix(1.00, 0.00, -0.00, -1.00, 208.2, 300.0)">e</text><text xml:space="preserve" font-family="FiraMono-Regular" font-size="44.0" fill="#000000" transform="matrix(1.00, 0.00, -0.00, -1.00, 234.6, 300.0)">:</text><text xml:space="preserve" font-family="FiraMono-Regular" font-size="44.0" fill="#000000" transform="matrix(1.00, 0.00, -0.00, -1.00, 261.0, 300.0)"> </text><text xml:space="preserve" font-family="FiraMono-Regular" font-size="44.0" fill="#000000" transform="matrix(1.00, 0.00, -0.00, -1.00, 129.0, 239.0)"> </text><text xml:space="preserve" font-family="FiraMono-Regular" font-size="44.0" fill="#000000" transform="matrix(1.00, 0.00, -0.00, -1.00, 155.4, 239.0)"> </text><text xml:space="preserve" font-family="FiraMono-Regular" font-size="44.0" fill="#000000" transform="matrix(1.00, 0.00, -0.00, -1.00, 181.8, 239.0)">d</text><text xml:space="preserve" font-family="FiraMono-Regular" font-size="44.0" fill="#000000" transform="matrix(1.00, 0.00, -0.00, -1.00, 208.2, 239.0)">o</text><text xml:space="preserve" font-family="FiraMono-Regular" font-size="44.0" fill="#000000" transform="matrix(1.00, 0.00, -0.00, -1.00, 234.6, 239.0)"> </text><text xml:space="preserve" font-family="FiraMono-Regular" font-size="44.0" fill="#000000" transform="matrix(1.00, 0.00, -0.00, -1.00, 261.0, 239.0)">&lt;</text><text xml:space="preserve" font-family="FiraMono-Regular" font-size="44.0" fill="#000000" transform="matrix(1.00, 0.00, -0.00, -1.00, 287.4, 239.0)">s</text><text xml:space="preserve" font-family="FiraMono-Regular" font-size="44.0" fill="#000000" transform="matrix(1.00, 0.00, -0.00, -1.00, 313.8, 239.0)">o</text><text xml:space="preserve" font-family="FiraMono-Regular" font-size="44.0" fill="#000000" transform="matrix(1.00, 0.00, -0.00, -1.00, 340.2, 239.0)">m</text><text xml:space="preserve" font-family="FiraMono-Regular" font-size="44.0" fill="#000000" transform="matrix(1.00, 0.00, -0.00, -1.00, 366.6, 239.0)">e</text><text xml:space="preserve" font-family="FiraMono-Regular" font-size="44.0" fill="#000000" transform="matrix(1.00, 0.00, -0.00, -1.00, 393.0, 239.0)"> </text><text xml:space="preserve" font-family="FiraMono-Regular" font-size="44.0" fill="#000000" transform="matrix(1.00, 0.00, -0.00, -1.00, 419.4, 239.0)">o</text><text xml:space="preserve" font-family="FiraMono-Regular" font-size="44.0" fill="#000000" transform="matrix(1.00, 0.00, -0.00, -1.00, 445.8, 239.0)">t</text><text xml:space="preserve" font-family="FiraMono-Regular" font-size="44.0" fill="#000000" transform="matrix(1.00, 0.00, -0.00, -1.00, 472.2, 239.0)">h</text><text xml:space="preserve" font-family="FiraMono-Regular" font-size="44.0" fill="#000000" transform="matrix(1.00, 0.00, -0.00, -1.00, 498.6, 239.0)">e</text><text xml:space="preserve" font-family="FiraMono-Regular" font-size="44.0" fill="#000000" transform="matrix(1.00, 0.00, -0.00, -1.00, 525.0, 239.0)">r</text><text xml:space="preserve" font-family="FiraMono-Regular" font-size="44.0" fill="#000000" transform="matrix(1.00, 0.00, -0.00, -1.00, 551.4, 239.0)"> </text><text xml:space="preserve" font-family="FiraMono-Regular" font-size="44.0" fill="#000000" transform="matrix(1.00, 0.00, -0.00, -1.00, 577.8, 239.0)">t</text><text xml:space="preserve" font-family="FiraMono-Regular" font-size="44.0" fill="#000000" transform="matrix(1.00, 0.00, -0.00, -1.00, 604.2, 239.0)">h</text><text xml:space="preserve" font-family="FiraMono-Regular" font-size="44.0" fill="#000000" transform="matrix(1.00, 0.00, -0.00, -1.00, 630.6, 239.0)">i</text><text xml:space="preserve" font-family="FiraMono-Regular" font-size="44.0" fill="#000000" transform="matrix(1.00, 0.00, -0.00, -1.00, 657.0, 239.0)">n</text><text xml:space="preserve" font-family="FiraMono-Regular" font-size="44.0" fill="#000000" transform="matrix(1.00, 0.00, -0.00, -1.00, 683.4, 239.0)">g</text><text xml:space="preserve" font-family="FiraMono-Regular" font-size="44.0" fill="#000000" transform="matrix(1.00, 0.00, -0.00, -1.00, 709.8, 239.0)">&gt;</text><text xml:space="preserve" font-family="FiraMono-Regular" font-size="44.0" fill="#000000" transform="matrix(1.00, 0.00, -0.00, -1.00, 736.2, 239.0)"> </text></g></svg>