<?xml version="1.0" encoding="UTF-8" standalone="no"?><svg xmlns="http://www.w3.org/2000/svg" xmlns:xlink="http://www.w3.org/1999/xlink" clip-rule="evenodd" stroke-miterlimit="4.00" viewBox="0 0 1024 768"><desc>SVG generated by Keynote</desc><defs></defs><g transform="matrix(1.00, 0.00, -0.00, -1.00, 0.0, 768.0)"><path d="M 0.0 768.0 L 1024.0 768.0 L 1024.0 0.0 L 0.0 0.0 Z M 0.0 768.0 " fill="#FEFFFE"></path><text xml:space="preserve" font-family="AvenirNext-DemiBold" font-weight="bold" font-size="80.0" fill="#000000" transform="matrix(1.00, 0.00, -0.00, -1.00, 185.0, 622.0)">W</text><text xml:space="preserve" font-family="AvenirNext-DemiBold" font-weight="bold" font-size="80.0" fill="#000000" transform="matrix(1.00, 0.00, -0.00, -1.00, 265.3, 622.0)">h</text><text xml:space="preserve" font-family="AvenirNext-DemiBold" font-weight="bold" font-size="80.0" fill="#000000" transform="matrix(1.00, 0.00, -0.00, -1.00, 312.0, 622.0)">e</text><text xml:space="preserve" font-family="AvenirNext-DemiBold" font-weight="bold" font-size="80.0" fill="#000000" transform="matrix(1.00, 0.00, -0.00, -1.00, 358.0, 622.0)">r</text><text xml:space="preserve" font-family="AvenirNext-DemiBold" font-weight="bold" font-size="80.0" fill="#000000" transform="matrix(1.00, 0.00, -0.00, -1.00, 385.6, 622.0)">e</text><text xml:space="preserve" font-family="AvenirNext-DemiBold" font-weight="bold" font-size="80.0" fill="#000000" transform="matrix(1.00, 0.00, -0.00, -1.00, 431.6, 622.0)"> </text><text xml:space="preserve" font-family="AvenirNext-DemiBold" font-weight="bold" font-size="80.0" fill="#000000" transform="matrix(1.00, 0.00, -0.00, -1.00, 451.6, 622.0)">t</text><text xml:space="preserve" font-family="AvenirNext-DemiBold" font-weight="bold" font-size="80.0" fill="#000000" transform="matrix(1.00, 0.00, -0.00, -1.00, 478.8, 622.0)">o</text><text xml:space="preserve" font-family="AvenirNext-DemiBold" font-weight="bold" font-size="80.0" fill="#000000" transform="matrix(1.00, 0.00, -0.00, -1.00, 527.6, 622.0)"> </text><text xml:space="preserve" font-family="AvenirNext-DemiBold" font-weight="bold" font-size="80.0" fill="#000000" transform="matrix(1.00, 0.00, -0.00, -1.00, 547.6, 622.0)">p</text><text xml:space="preserve" font-family="AvenirNext-DemiBold" font-weight="bold" font-size="80.0" fill="#000000" transform="matrix(1.00, 0.00, -0.00, -1.00, 598.2, 622.0)">u</text><text xml:space="preserve" font-family="AvenirNext-DemiBold" font-weight="bold" font-size="80.0" fill="#000000" transform="matrix(1.00, 0.00, -0.00, -1.00, 644.8, 622.0)">t</text><text xml:space="preserve" font-family="AvenirNext-DemiBold" font-weight="bold" font-size="80.0" fill="#000000" transform="matrix(1.00, 0.00, -0.00, -1.00, 672.0, 622.0)"> </text><text xml:space="preserve" font-family="AvenirNext-DemiBold" font-weight="bold" font-size="80.0" fill="#000000" transform="matrix(1.00, 0.00, -0.00, -1.00, 692.0, 622.0)">C</text><text xml:space="preserve" font-family="AvenirNext-DemiBold" font-weight="bold" font-size="80.0" fill="#000000" transform="matrix(1.00, 0.00, -0.00, -1.00, 747.6, 622.0)">S</text><text xml:space="preserve" font-family="AvenirNext-DemiBold" font-weight="bold" font-size="80.0" fill="#000000" transform="matrix(1.00, 0.00, -0.00, -1.00, 793.6, 622.0)">S</text><text xml:space="preserve" font-family="Helvetica-Light" font-size="21.0" fill="#000000" transform="matrix(1.00, 0.00, -0.00, -1.00, 79.0, 534.3)">•</text><text xml:space="preserve" font-family="Helvetica-Light" font-size="28.0" fill="#000000" transform="matrix(1.00, 0.00, -0.00, -1.00, 106.0, 531.0)">I</text><text xml:space="preserve" font-family="Helvetica-Light" font-size="28.0" fill="#000000" transform="matrix(1.00, 0.00, -0.00, -1.00, 113.8, 531.0)">n</text><text xml:space="preserve" font-family="Helvetica-Light" font-size="28.0" fill="#000000" transform="matrix(1.00, 0.00, -0.00, -1.00, 129.4, 531.0)"> </text><text xml:space="preserve" font-family="Helvetica-Light" font-size="28.0" fill="#000000" transform="matrix(1.00, 0.00, -0.00, -1.00, 137.1, 531.0)">a</text><text xml:space="preserve" font-family="Helvetica-Light" font-size="28.0" fill="#000000" transform="matrix(1.00, 0.00, -0.00, -1.00, 152.7, 531.0)"> </text><text xml:space="preserve" font-family="Helvetica-Light" font-size="28.0" fill="#000000" transform="matrix(1.00, 0.00, -0.00, -1.00, 160.5, 531.0)">s</text><text xml:space="preserve" font-family="Helvetica-Light" font-size="28.0" fill="#000000" transform="matrix(1.00, 0.00, -0.00, -1.00, 174.5, 531.0)">e</text><text xml:space="preserve" font-family="Helvetica-Light" font-size="28.0" fill="#000000" transform="matrix(1.00, 0.00, -0.00, -1.00, 190.1, 531.0)">p</text><text xml:space="preserve" font-family="Helvetica-Light" font-size="28.0" fill="#000000" transform="matrix(1.00, 0.00, -0.00, -1.00, 207.2, 531.0)">a</text><text xml:space="preserve" font-family="Helvetica-Light" font-size="28.0" fill="#000000" transform="matrix(1.00, 0.00, -0.00, -1.00, 222.7, 531.0)">r</text><text xml:space="preserve" font-family="Helvetica-Light" font-size="28.0" fill="#000000" transform="matrix(1.00, 0.00, -0.00, -1.00, 232.1, 531.0)">a</text><text xml:space="preserve" font-family="Helvetica-Light" font-size="28.0" fill="#000000" transform="matrix(1.00, 0.00, -0.00, -1.00, 247.6, 531.0)">t</text><text xml:space="preserve" font-family="Helvetica-Light" font-size="28.0" fill="#000000" transform="matrix(1.00, 0.00, -0.00, -1.00, 255.4, 531.0)">e</text><text xml:space="preserve" font-family="Helvetica-Light" font-size="28.0" fill="#000000" transform="matrix(1.00, 0.00, -0.00, -1.00, 271.0, 531.0)"> </text><text xml:space="preserve" font-family="Helvetica-Light" font-size="28.0" fill="#000000" transform="matrix(1.00, 0.00, -0.00, -1.00, 278.8, 531.0)">ﬁ</text><text xml:space="preserve" font-family="Helvetica-Light" font-size="28.0" fill="#000000" transform="matrix(1.00, 0.00, -0.00, -1.00, 292.8, 531.0)">l</text><text xml:space="preserve" font-family="Helvetica-Light" font-size="28.0" fill="#000000" transform="matrix(1.00, 0.00, -0.00, -1.00, 299.0, 531.0)">e</text><text xml:space="preserve" font-family="FiraMono-Regular" font-size="36.0" fill="#000000" transform="matrix(1.00, 0.00, -0.00, -1.00, 86.0, 380.0)">&lt;</text><text xml:space="preserve" font-family="FiraMono-Bold" font-weight="bold" font-size="36.0" fill="#1EA4FF" transform="matrix(1.00, 0.00, -0.00, -1.00, 107.6, 380.0)">l</text><text xml:space="preserve" font-family="FiraMono-Bold" font-weight="bold" font-size="36.0" fill="#1EA4FF" transform="matrix(1.00, 0.00, -0.00, -1.00, 129.2, 380.0)">i</text><text xml:space="preserve" font-family="FiraMono-Bold" font-weight="bold" font-size="36.0" fill="#1EA4FF" transform="matrix(1.00, 0.00, -0.00, -1.00, 150.8, 380.0)">n</text><text xml:space="preserve" font-family="FiraMono-Bold" font-weight="bold" font-size="36.0" fill="#1EA4FF" transform="matrix(1.00, 0.00, -0.00, -1.00, 172.4, 380.0)">k</text><text xml:space="preserve" font-family="FiraMono-Regular" font-size="36.0" fill="#000000" transform="matrix(1.00, 0.00, -0.00, -1.00, 194.0, 380.0)"> </text><text xml:space="preserve" font-family="FiraMono-Regular" font-size="36.0" fill="#1EA4FF" transform="matrix(1.00, 0.00, -0.00, -1.00, 86.0, 329.0)">r</text><text xml:space="preserve" font-family="FiraMono-Regular" font-size="36.0" fill="#1EA4FF" transform="matrix(1.00, 0.00, -0.00, -1.00, 107.6, 329.0)">e</text><text xml:space="preserve" font-family="FiraMono-Regular" font-size="36.0" fill="#1EA4FF" transform="matrix(1.00, 0.00, -0.00, -1.00, 129.2, 329.0)">l</text><text xml:space="preserve" font-family="FiraMono-Regular" font-size="36.0" fill="#000000" transform="matrix(1.00, 0.00, -0.00, -1.00, 150.8, 329.0)">=</text><text xml:space="preserve" font-family="FiraMono-Regular" font-size="36.0" fill="#B96800" transform="matrix(1.00, 0.00, -0.00, -1.00, 172.4, 329.0)">"</text><text xml:space="preserve" font-family="FiraMono-Regular" font-size="36.0" fill="#B96800" transform="matrix(1.00, 0.00, -0.00, -1.00, 194.0, 329.0)">s</text><text xml:space="preserve" font-family="FiraMono-Regular" font-size="36.0" fill="#B96800" transform="matrix(1.00, 0.00, -0.00, -1.00, 215.6, 329.0)">t</text><text xml:space="preserve" font-family="FiraMono-Regular" font-size="36.0" fill="#B96800" transform="matrix(1.00, 0.00, -0.00, -1.00, 237.2, 329.0)">y</text><text xml:space="preserve" font-family="FiraMono-Regular" font-size="36.0" fill="#B96800" transform="matrix(1.00, 0.00, -0.00, -1.00, 258.8, 329.0)">l</text><text xml:space="preserve" font-family="FiraMono-Regular" font-size="36.0" fill="#B96800" transform="matrix(1.00, 0.00, -0.00, -1.00, 280.4, 329.0)">e</text><text xml:space="preserve" font-family="FiraMono-Regular" font-size="36.0" fill="#B96800" transform="matrix(1.00, 0.00, -0.00, -1.00, 302.0, 329.0)">s</text><text xml:space="preserve" font-family="FiraMono-Regular" font-size="36.0" fill="#B96800" transform="matrix(1.00, 0.00, -0.00, -1.00, 323.6, 329.0)">h</text><text xml:space="preserve" font-family="FiraMono-Regular" font-size="36.0" fill="#B96800" transform="matrix(1.00, 0.00, -0.00, -1.00, 345.2, 329.0)">e</text><text xml:space="preserve" font-family="FiraMono-Regular" font-size="36.0" fill="#B96800" transform="matrix(1.00, 0.00, -0.00, -1.00, 366.8, 329.0)">e</text><text xml:space="preserve" font-family="FiraMono-Regular" font-size="36.0" fill="#B96800" transform="matrix(1.00, 0.00, -0.00, -1.00, 388.4, 329.0)">t</text><text xml:space="preserve" font-family="FiraMono-Regular" font-size="36.0" fill="#B96800" transform="matrix(1.00, 0.00, -0.00, -1.00, 410.0, 329.0)">"</text><text xml:space="preserve" font-family="FiraMono-Regular" font-size="36.0" fill="#000000" transform="matrix(1.00, 0.00, -0.00, -1.00, 431.6, 329.0)"> </text><text xml:space="preserve" font-family="FiraMono-Regular" font-size="36.0" fill="#1EA4FF" transform="matrix(1.00, 0.00, -0.00, -1.00, 86.0, 278.0)">h</text><text xml:space="preserve" font-family="FiraMono-Regular" font-size="36.0" fill="#1EA4FF" transform="matrix(1.00, 0.00, -0.00, -1.00, 107.6, 278.0)">r</text><text xml:space="preserve" font-family="FiraMono-Regular" font-size="36.0" fill="#1EA4FF" transform="matrix(1.00, 0.00, -0.00, -1.00, 129.2, 278.0)">e</text><text xml:space="preserve" font-family="FiraMono-Regular" font-size="36.0" fill="#1EA4FF" transform="matrix(1.00, 0.00, -0.00, -1.00, 150.8, 278.0)">f</text><text xml:space="preserve" font-family="FiraMono-Regular" font-size="36.0" fill="#000000" transform="matrix(1.00, 0.00, -0.00, -1.00, 172.4, 278.0)">=</text><text xml:space="preserve" font-family="FiraMono-Regular" font-size="36.0" fill="#B96800" transform="matrix(1.00, 0.00, -0.00, -1.00, 194.0, 278.0)">"</text><text xml:space="preserve" font-family="FiraMono-Regular" font-size="36.0" fill="#B96800" transform="matrix(1.00, 0.00, -0.00, -1.00, 215.6, 278.0)">s</text><text xml:space="preserve" font-family="FiraMono-Regular" font-size="36.0" fill="#B96800" transform="matrix(1.00, 0.00, -0.00, -1.00, 237.2, 278.0)">t</text><text xml:space="preserve" font-family="FiraMono-Regular" font-size="36.0" fill="#B96800" transform="matrix(1.00, 0.00, -0.00, -1.00, 258.8, 278.0)">y</text><text xml:space="preserve" font-family="FiraMono-Regular" font-size="36.0" fill="#B96800" transform="matrix(1.00, 0.00, -0.00, -1.00, 280.4, 278.0)">l</text><text xml:space="preserve" font-family="FiraMono-Regular" font-size="36.0" fill="#B96800" transform="matrix(1.00, 0.00, -0.00, -1.00, 302.0, 278.0)">e</text><text xml:space="preserve" font-family="FiraMono-Regular" font-size="36.0" fill="#B96800" transform="matrix(1.00, 0.00, -0.00, -1.00, 323.6, 278.0)">s</text><text xml:space="preserve" font-family="FiraMono-Regular" font-size="36.0" fill="#B96800" transform="matrix(1.00, 0.00, -0.00, -1.00, 345.2, 278.0)">.</text><text xml:space="preserve" font-family="FiraMono-Regular" font-size="36.0" fill="#B96800" transform="matrix(1.00, 0.00, -0.00, -1.00, 366.8, 278.0)">c</text><text xml:space="preserve" font-family="FiraMono-Regular" font-size="36.0" fill="#B96800" transform="matrix(1.00, 0.00, -0.00, -1.00, 388.4, 278.0)">s</text><text xml:space="preserve" font-family="FiraMono-Regular" font-size="36.0" fill="#B96800" transform="matrix(1.00, 0.00, -0.00, -1.00, 410.0, 278.0)">s</text><text xml:space="preserve" font-family="FiraMono-Regular" font-size="36.0" fill="#B96800" transform="matrix(1.00, 0.00, -0.00, -1.00, 431.6, 278.0)">"</text><text xml:space="preserve" font-family="FiraMono-Regular" font-size="36.0" fill="#000000" transform="matrix(1.00, 0.00, -0.00, -1.00, 453.2, 278.0)">&gt;</text><text xml:space="preserve" font-family="FiraMono-Regular" font-size="36.0" fill="#000000" transform="matrix(1.00, 0.00, -0.00, -1.00, 474.8, 278.0)"> </text><path d="M 0.0 0.0 L 483.2 0.0 L 483.2 495.0 L 0.0 495.0 Z M 0.0 0.0 " fill="none" stroke="#A6AAA8" stroke-width="1.00" transform="matrix(1.00, 0.00, 0.00, -1.00, 504.6, 563.0)"></path><g><clipPath id="clip-103"><path d="M 502.6 69.0 L 989.8 69.0 L 989.8 565.0 L 502.6 565.0 Z M 502.6 69.0 "></path></clipPath><g clip-path="url(#clip-103)"><text xml:space="preserve" font-family="Helvetica-Bold" font-weight="bold" font-size="28.0" fill="#000000" transform="matrix(1.00, 0.00, -0.00, -1.00, 510.0, 530.0)">s</text><text xml:space="preserve" font-family="Helvetica-Bold" font-weight="bold" font-size="28.0" fill="#000000" transform="matrix(1.00, 0.00, -0.00, -1.00, 525.6, 530.0)">t</text><text xml:space="preserve" font-family="Helvetica-Bold" font-weight="bold" font-size="28.0" fill="#000000" transform="matrix(1.00, 0.00, -0.00, -1.00, 534.9, 530.0)">y</text><text xml:space="preserve" font-family="Helvetica-Bold" font-weight="bold" font-size="28.0" fill="#000000" transform="matrix(1.00, 0.00, -0.00, -1.00, 550.5, 530.0)">l</text><text xml:space="preserve" font-family="Helvetica-Bold" font-weight="bold" font-size="28.0" fill="#000000" transform="matrix(1.00, 0.00, -0.00, -1.00, 558.3, 530.0)">e</text><text xml:space="preserve" font-family="Helvetica-Bold" font-weight="bold" font-size="28.0" fill="#000000" transform="matrix(1.00, 0.00, -0.00, -1.00, 573.8, 530.0)">s</text><text xml:space="preserve" font-family="Helvetica-Bold" font-weight="bold" font-size="28.0" fill="#000000" transform="matrix(1.00, 0.00, -0.00, -1.00, 589.4, 530.0)">.</text><text xml:space="preserve" font-family="Helvetica-Bold" font-weight="bold" font-size="28.0" fill="#000000" transform="matrix(1.00, 0.00, -0.00, -1.00, 597.2, 530.0)">c</text><text xml:space="preserve" font-family="Helvetica-Bold" font-weight="bold" font-size="28.0" fill="#000000" transform="matrix(1.00, 0.00, -0.00, -1.00, 612.8, 530.0)">s</text><text xml:space="preserve" font-family="Helvetica-Bold" font-weight="bold" font-size="28.0" fill="#000000" transform="matrix(1.00, 0.00, -0.00, -1.00, 628.3, 530.0)">s</text></g></g><text xml:space="preserve" font-family="FiraMono-Regular" font-size="24.0" fill="#000000" transform="matrix(1.00, 0.00, -0.00, -1.00, 501.0, 452.0)"> </text><text xml:space="preserve" font-family="FiraMono-Bold" font-weight="bold" font-size="24.0" fill="#1EA4FF" transform="matrix(1.00, 0.00, -0.00, -1.00, 537.0, 452.0)">b</text><text xml:space="preserve" font-family="FiraMono-Bold" font-weight="bold" font-size="24.0" fill="#1EA4FF" transform="matrix(1.00, 0.00, -0.00, -1.00, 551.4, 452.0)">o</text><text xml:space="preserve" font-family="FiraMono-Bold" font-weight="bold" font-size="24.0" fill="#1EA4FF" transform="matrix(1.00, 0.00, -0.00, -1.00, 565.8, 452.0)">d</text><text xml:space="preserve" font-family="FiraMono-Bold" font-weight="bold" font-size="24.0" fill="#1EA4FF" transform="matrix(1.00, 0.00, -0.00, -1.00, 580.2, 452.0)">y</text><text xml:space="preserve" font-family="FiraMono-Regular" font-size="24.0" fill="#000000" transform="matrix(1.00, 0.00, -0.00, -1.00, 594.6, 452.0)"> </text><text xml:space="preserve" font-family="FiraMono-Regular" font-size="24.0" fill="#000000" transform="matrix(1.00, 0.00, -0.00, -1.00, 609.0, 452.0)">{</text><text xml:space="preserve" font-family="FiraMono-Regular" font-size="24.0" fill="#000000" transform="matrix(1.00, 0.00, -0.00, -1.00, 623.4, 452.0)"> </text><text xml:space="preserve" font-family="FiraMono-Regular" font-size="24.0" fill="#000000" transform="matrix(1.00, 0.00, -0.00, -1.00, 501.0, 419.0)"> </text><text xml:space="preserve" font-family="FiraMono-Regular" font-size="24.0" fill="#000000" transform="matrix(1.00, 0.00, -0.00, -1.00, 537.0, 419.0)"> </text><text xml:space="preserve" font-family="FiraMono-Regular" font-size="24.0" fill="#00B6B8" transform="matrix(1.00, 0.00, -0.00, -1.00, 573.0, 419.0)">c</text><text xml:space="preserve" font-family="FiraMono-Regular" font-size="24.0" fill="#00B6B8" transform="matrix(1.00, 0.00, -0.00, -1.00, 587.4, 419.0)">o</text><text xml:space="preserve" font-family="FiraMono-Regular" font-size="24.0" fill="#00B6B8" transform="matrix(1.00, 0.00, -0.00, -1.00, 601.8, 419.0)">l</text><text xml:space="preserve" font-family="FiraMono-Regular" font-size="24.0" fill="#00B6B8" transform="matrix(1.00, 0.00, -0.00, -1.00, 616.2, 419.0)">o</text><text xml:space="preserve" font-family="FiraMono-Regular" font-size="24.0" fill="#00B6B8" transform="matrix(1.00, 0.00, -0.00, -1.00, 630.6, 419.0)">r</text><text xml:space="preserve" font-family="FiraMono-Regular" font-size="24.0" fill="#000000" transform="matrix(1.00, 0.00, -0.00, -1.00, 645.0, 419.0)">:</text><text xml:space="preserve" font-family="FiraMono-Regular" font-size="24.0" fill="#000000" transform="matrix(1.00, 0.00, -0.00, -1.00, 659.4, 419.0)"> </text><text xml:space="preserve" font-family="FiraMono-Regular" font-size="24.0" fill="#00B6B8" transform="matrix(1.00, 0.00, -0.00, -1.00, 673.8, 419.0)">g</text><text xml:space="preserve" font-family="FiraMono-Regular" font-size="24.0" fill="#00B6B8" transform="matrix(1.00, 0.00, -0.00, -1.00, 688.2, 419.0)">r</text><text xml:space="preserve" font-family="FiraMono-Regular" font-size="24.0" fill="#00B6B8" transform="matrix(1.00, 0.00, -0.00, -1.00, 702.6, 419.0)">e</text><text xml:space="preserve" font-family="FiraMono-Regular" font-size="24.0" fill="#00B6B8" transform="matrix(1.00, 0.00, -0.00, -1.00, 717.0, 419.0)">e</text><text xml:space="preserve" font-family="FiraMono-Regular" font-size="24.0" fill="#00B6B8" transform="matrix(1.00, 0.00, -0.00, -1.00, 731.4, 419.0)">n</text><text xml:space="preserve" font-family="FiraMono-Regular" font-size="24.0" fill="#000000" transform="matrix(1.00, 0.00, -0.00, -1.00, 745.8, 419.0)">;</text><text xml:space="preserve" font-family="FiraMono-Regular" font-size="24.0" fill="#000000" transform="matrix(1.00, 0.00, -0.00, -1.00, 760.2, 419.0)"> </text><text xml:space="preserve" font-family="FiraMono-Regular" font-size="24.0" fill="#000000" transform="matrix(1.00, 0.00, -0.00, -1.00, 501.0, 386.0)"> </text><text xml:space="preserve" font-family="FiraMono-Regular" font-size="24.0" fill="#000000" transform="matrix(1.00, 0.00, -0.00, -1.00, 537.0, 386.0)">}</text><text xml:space="preserve" font-family="FiraMono-Regular" font-size="24.0" fill="#000000" transform="matrix(1.00, 0.00, -0.00, -1.00, 551.4, 386.0)"> </text><text xml:space="preserve" font-family="FiraMono-Regular" font-size="24.0" fill="#000000" transform="matrix(1.00, 0.00, -0.00, -1.00, 501.0, 320.0)"> </text><text xml:space="preserve" font-family="FiraMono-Bold" font-weight="bold" font-size="24.0" fill="#1EA4FF" transform="matrix(1.00, 0.00, -0.00, -1.00, 537.0, 320.0)">h</text><text xml:space="preserve" font-family="FiraMono-Bold" font-weight="bold" font-size="24.0" fill="#1EA4FF" transform="matrix(1.00, 0.00, -0.00, -1.00, 551.4, 320.0)">1</text><text xml:space="preserve" font-family="FiraMono-Regular" font-size="24.0" fill="#000000" transform="matrix(1.00, 0.00, -0.00, -1.00, 565.8, 320.0)"> </text><text xml:space="preserve" font-family="FiraMono-Regular" font-size="24.0" fill="#000000" transform="matrix(1.00, 0.00, -0.00, -1.00, 580.2, 320.0)">{</text><text xml:space="preserve" font-family="FiraMono-Regular" font-size="24.0" fill="#000000" transform="matrix(1.00, 0.00, -0.00, -1.00, 594.6, 320.0)"> </text><text xml:space="preserve" font-family="FiraMono-Regular" font-size="24.0" fill="#000000" transform="matrix(1.00, 0.00, -0.00, -1.00, 501.0, 287.0)"> </text><text xml:space="preserve" font-family="FiraMono-Regular" font-size="24.0" fill="#000000" transform="matrix(1.00, 0.00, -0.00, -1.00, 537.0, 287.0)"> </text><text xml:space="preserve" font-family="FiraMono-Regular" font-size="24.0" fill="#00B6B8" transform="matrix(1.00, 0.00, -0.00, -1.00, 573.0, 287.0)">f</text><text xml:space="preserve" font-family="FiraMono-Regular" font-size="24.0" fill="#00B6B8" transform="matrix(1.00, 0.00, -0.00, -1.00, 587.4, 287.0)">o</text><text xml:space="preserve" font-family="FiraMono-Regular" font-size="24.0" fill="#00B6B8" transform="matrix(1.00, 0.00, -0.00, -1.00, 601.8, 287.0)">n</text><text xml:space="preserve" font-family="FiraMono-Regular" font-size="24.0" fill="#00B6B8" transform="matrix(1.00, 0.00, -0.00, -1.00, 616.2, 287.0)">t</text><text xml:space="preserve" font-family="FiraMono-Regular" font-size="24.0" fill="#00B6B8" transform="matrix(1.00, 0.00, -0.00, -1.00, 630.6, 287.0)">-</text><text xml:space="preserve" font-family="FiraMono-Regular" font-size="24.0" fill="#00B6B8" transform="matrix(1.00, 0.00, -0.00, -1.00, 645.0, 287.0)">w</text><text xml:space="preserve" font-family="FiraMono-Regular" font-size="24.0" fill="#00B6B8" transform="matrix(1.00, 0.00, -0.00, -1.00, 659.4, 287.0)">e</text><text xml:space="preserve" font-family="FiraMono-Regular" font-size="24.0" fill="#00B6B8" transform="matrix(1.00, 0.00, -0.00, -1.00, 673.8, 287.0)">i</text><text xml:space="preserve" font-family="FiraMono-Regular" font-size="24.0" fill="#00B6B8" transform="matrix(1.00, 0.00, -0.00, -1.00, 688.2, 287.0)">g</text><text xml:space="preserve" font-family="FiraMono-Regular" font-size="24.0" fill="#00B6B8" transform="matrix(1.00, 0.00, -0.00, -1.00, 702.6, 287.0)">h</text><text xml:space="preserve" font-family="FiraMono-Regular" font-size="24.0" fill="#00B6B8" transform="matrix(1.00, 0.00, -0.00, -1.00, 717.0, 287.0)">t</text><text xml:space="preserve" font-family="FiraMono-Regular" font-size="24.0" fill="#000000" transform="matrix(1.00, 0.00, -0.00, -1.00, 731.4, 287.0)">:</text><text xml:space="preserve" font-family="FiraMono-Regular" font-size="24.0" fill="#000000" transform="matrix(1.00, 0.00, -0.00, -1.00, 745.8, 287.0)"> </text><text xml:space="preserve" font-family="FiraMono-Regular" font-size="24.0" fill="#00B6B8" transform="matrix(1.00, 0.00, -0.00, -1.00, 760.2, 287.0)">n</text><text xml:space="preserve" font-family="FiraMono-Regular" font-size="24.0" fill="#00B6B8" transform="matrix(1.00, 0.00, -0.00, -1.00, 774.6, 287.0)">o</text><text xml:space="preserve" font-family="FiraMono-Regular" font-size="24.0" fill="#00B6B8" transform="matrix(1.00, 0.00, -0.00, -1.00, 789.0, 287.0)">r</text><text xml:space="preserve" font-family="FiraMono-Regular" font-size="24.0" fill="#00B6B8" transform="matrix(1.00, 0.00, -0.00, -1.00, 803.4, 287.0)">m</text><text xml:space="preserve" font-family="FiraMono-Regular" font-size="24.0" fill="#00B6B8" transform="matrix(1.00, 0.00, -0.00, -1.00, 817.8, 287.0)">a</text><text xml:space="preserve" font-family="FiraMono-Regular" font-size="24.0" fill="#00B6B8" transform="matrix(1.00, 0.00, -0.00, -1.00, 832.2, 287.0)">l</text><text xml:space="preserve" font-family="FiraMono-Regular" font-size="24.0" fill="#000000" transform="matrix(1.00, 0.00, -0.00, -1.00, 846.6, 287.0)">;</text><text xml:space="preserve" font-family="FiraMono-Regular" font-size="24.0" fill="#000000" transform="matrix(1.00, 0.00, -0.00, -1.00, 861.0, 287.0)"> </text><text xml:space="preserve" font-family="FiraMono-Regular" font-size="24.0" fill="#000000" transform="matrix(1.00, 0.00, -0.00, -1.00, 501.0, 254.0)"> </text><text xml:space="preserve" font-family="FiraMono-Regular" font-size="24.0" fill="#000000" transform="matrix(1.00, 0.00, -0.00, -1.00, 537.0, 254.0)">}</text><text xml:space="preserve" font-family="FiraMono-Regular" font-size="24.0" fill="#000000" transform="matrix(1.00, 0.00, -0.00, -1.00, 551.4, 254.0)"> </text><text xml:space="preserve" font-family="FiraMono-Regular" font-size="24.0" fill="#000000" transform="matrix(1.00, 0.00, -0.00, -1.00, 501.0, 188.0)"> </text><text xml:space="preserve" font-family="FiraMono-Bold" font-weight="bold" font-size="24.0" fill="#1EA4FF" transform="matrix(1.00, 0.00, -0.00, -1.00, 537.0, 188.0)">p</text><text xml:space="preserve" font-family="FiraMono-Regular" font-size="24.0" fill="#000000" transform="matrix(1.00, 0.00, -0.00, -1.00, 551.4, 188.0)"> </text><text xml:space="preserve" font-family="FiraMono-Regular" font-size="24.0" fill="#000000" transform="matrix(1.00, 0.00, -0.00, -1.00, 565.8, 188.0)">{</text><text xml:space="preserve" font-family="FiraMono-Regular" font-size="24.0" fill="#000000" transform="matrix(1.00, 0.00, -0.00, -1.00, 580.2, 188.0)"> </text><text xml:space="preserve" font-family="FiraMono-Regular" font-size="24.0" fill="#000000" transform="matrix(1.00, 0.00, -0.00, -1.00, 501.0, 155.0)"> </text><text xml:space="preserve" font-family="FiraMono-Regular" font-size="24.0" fill="#000000" transform="matrix(1.00, 0.00, -0.00, -1.00, 537.0, 155.0)"> </text><text xml:space="preserve" font-family="FiraMono-Regular" font-size="24.0" fill="#00B6B8" transform="matrix(1.00, 0.00, -0.00, -1.00, 573.0, 155.0)">f</text><text xml:space="preserve" font-family="FiraMono-Regular" font-size="24.0" fill="#00B6B8" transform="matrix(1.00, 0.00, -0.00, -1.00, 587.4, 155.0)">o</text><text xml:space="preserve" font-family="FiraMono-Regular" font-size="24.0" fill="#00B6B8" transform="matrix(1.00, 0.00, -0.00, -1.00, 601.8, 155.0)">n</text><text xml:space="preserve" font-family="FiraMono-Regular" font-size="24.0" fill="#00B6B8" transform="matrix(1.00, 0.00, -0.00, -1.00, 616.2, 155.0)">t</text><text xml:space="preserve" font-family="FiraMono-Regular" font-size="24.0" fill="#00B6B8" transform="matrix(1.00, 0.00, -0.00, -1.00, 630.6, 155.0)">-</text><text xml:space="preserve" font-family="FiraMono-Regular" font-size="24.0" fill="#00B6B8" transform="matrix(1.00, 0.00, -0.00, -1.00, 645.0, 155.0)">f</text><text xml:space="preserve" font-family="FiraMono-Regular" font-size="24.0" fill="#00B6B8" transform="matrix(1.00, 0.00, -0.00, -1.00, 659.4, 155.0)">a</text><text xml:space="preserve" font-family="FiraMono-Regular" font-size="24.0" fill="#00B6B8" transform="matrix(1.00, 0.00, -0.00, -1.00, 673.8, 155.0)">m</text><text xml:space="preserve" font-family="FiraMono-Regular" font-size="24.0" fill="#00B6B8" transform="matrix(1.00, 0.00, -0.00, -1.00, 688.2, 155.0)">i</text><text xml:space="preserve" font-family="FiraMono-Regular" font-size="24.0" fill="#00B6B8" transform="matrix(1.00, 0.00, -0.00, -1.00, 702.6, 155.0)">l</text><text xml:space="preserve" font-family="FiraMono-Regular" font-size="24.0" fill="#00B6B8" transform="matrix(1.00, 0.00, -0.00, -1.00, 717.0, 155.0)">y</text><text xml:space="preserve" font-family="FiraMono-Regular" font-size="24.0" fill="#000000" transform="matrix(1.00, 0.00, -0.00, -1.00, 731.4, 155.0)">:</text><text xml:space="preserve" font-family="FiraMono-Regular" font-size="24.0" fill="#000000" transform="matrix(1.00, 0.00, -0.00, -1.00, 745.8, 155.0)"> </text><text xml:space="preserve" font-family="FiraMono-Regular" font-size="24.0" fill="#B96800" transform="matrix(1.00, 0.00, -0.00, -1.00, 760.2, 155.0)">'</text><text xml:space="preserve" font-family="FiraMono-Regular" font-size="24.0" fill="#B96800" transform="matrix(1.00, 0.00, -0.00, -1.00, 774.6, 155.0)">F</text><text xml:space="preserve" font-family="FiraMono-Regular" font-size="24.0" fill="#B96800" transform="matrix(1.00, 0.00, -0.00, -1.00, 789.0, 155.0)">o</text><text xml:space="preserve" font-family="FiraMono-Regular" font-size="24.0" fill="#B96800" transform="matrix(1.00, 0.00, -0.00, -1.00, 803.4, 155.0)">n</text><text xml:space="preserve" font-family="FiraMono-Regular" font-size="24.0" fill="#B96800" transform="matrix(1.00, 0.00, -0.00, -1.00, 817.8, 155.0)">t</text><text xml:space="preserve" font-family="FiraMono-Regular" font-size="24.0" fill="#B96800" transform="matrix(1.00, 0.00, -0.00, -1.00, 832.2, 155.0)">i</text><text xml:space="preserve" font-family="FiraMono-Regular" font-size="24.0" fill="#B96800" transform="matrix(1.00, 0.00, -0.00, -1.00, 846.6, 155.0)">n</text><text xml:space="preserve" font-family="FiraMono-Regular" font-size="24.0" fill="#B96800" transform="matrix(1.00, 0.00, -0.00, -1.00, 861.0, 155.0)"> </text><text xml:space="preserve" font-family="FiraMono-Regular" font-size="24.0" fill="#B96800" transform="matrix(1.00, 0.00, -0.00, -1.00, 875.4, 155.0)">S</text><text xml:space="preserve" font-family="FiraMono-Regular" font-size="24.0" fill="#B96800" transform="matrix(1.00, 0.00, -0.00, -1.00, 889.8, 155.0)">a</text><text xml:space="preserve" font-family="FiraMono-Regular" font-size="24.0" fill="#B96800" transform="matrix(1.00, 0.00, -0.00, -1.00, 904.2, 155.0)">n</text><text xml:space="preserve" font-family="FiraMono-Regular" font-size="24.0" fill="#B96800" transform="matrix(1.00, 0.00, -0.00, -1.00, 918.6, 155.0)">s</text><text xml:space="preserve" font-family="FiraMono-Regular" font-size="24.0" fill="#B96800" transform="matrix(1.00, 0.00, -0.00, -1.00, 933.0, 155.0)">'</text><text xml:space="preserve" font-family="FiraMono-Regular" font-size="24.0" fill="#000000" transform="matrix(1.00, 0.00, -0.00, -1.00, 947.4, 155.0)">;</text><text xml:space="preserve" font-family="FiraMono-Regular" font-size="24.0" fill="#000000" transform="matrix(1.00, 0.00, -0.00, -1.00, 961.8, 155.0)"> </text><text xml:space="preserve" font-family="FiraMono-Regular" font-size="24.0" fill="#000000" transform="matrix(1.00, 0.00, -0.00, -1.00, 501.0, 122.0)"> </text><text xml:space="preserve" font-family="FiraMono-Regular" font-size="24.0" fill="#000000" transform="matrix(1.00, 0.00, -0.00, -1.00, 537.0, 122.0)">}</text><text xml:space="preserve" font-family="FiraMono-Regular" font-size="24.0" fill="#000000" transform="matrix(1.00, 0.00, -0.00, -1.00, 551.4, 122.0)"> </text></g></svg>