<?xml version="1.0" encoding="UTF-8" standalone="no"?><svg xmlns="http://www.w3.org/2000/svg" xmlns:xlink="http://www.w3.org/1999/xlink" clip-rule="evenodd" stroke-miterlimit="4.00" viewBox="0 0 1024 768"><desc>SVG generated by Keynote</desc><defs></defs><g transform="matrix(1.00, 0.00, -0.00, -1.00, 0.0, 768.0)"><path d="M 0.0 768.0 L 1024.0 768.0 L 1024.0 0.0 L 0.0 0.0 Z M 0.0 768.0 " fill="#FEFFFF"></path><text xml:space="preserve" font-family="AvenirNext-DemiBold" font-weight="bold" font-size="80.0" fill="#000000" transform="matrix(1.00, 0.00, -0.00, -1.00, 389.0, 622.0)">S</text><text xml:space="preserve" font-family="AvenirNext-DemiBold" font-weight="bold" font-size="80.0" fill="#000000" transform="matrix(1.00, 0.00, -0.00, -1.00, 434.0, 622.0)">y</text><text xml:space="preserve" font-family="AvenirNext-DemiBold" font-weight="bold" font-size="80.0" fill="#000000" transform="matrix(1.00, 0.00, -0.00, -1.00, 475.0, 622.0)">n</text><text xml:space="preserve" font-family="AvenirNext-DemiBold" font-weight="bold" font-size="80.0" fill="#000000" transform="matrix(1.00, 0.00, -0.00, -1.00, 521.6, 622.0)">t</text><text xml:space="preserve" font-family="AvenirNext-DemiBold" font-weight="bold" font-size="80.0" fill="#000000" transform="matrix(1.00, 0.00, -0.00, -1.00, 548.8, 622.0)">a</text><text xml:space="preserve" font-family="AvenirNext-DemiBold" font-weight="bold" font-size="80.0" fill="#000000" transform="matrix(1.00, 0.00, -0.00, -1.00, 592.8, 622.0)">x</text><text xml:space="preserve" font-family="FiraMono-Regular" font-size="36.0" fill="#000000" transform="matrix(1.00, 0.00, -0.00, -1.00, 80.0, 455.0)">c</text><text xml:space="preserve" font-family="FiraMono-Regular" font-size="36.0" fill="#000000" transform="matrix(1.00, 0.00, -0.00, -1.00, 101.6, 455.0)">o</text><text xml:space="preserve" font-family="FiraMono-Regular" font-size="36.0" fill="#000000" transform="matrix(1.00, 0.00, -0.00, -1.00, 123.2, 455.0)">n</text><text xml:space="preserve" font-family="FiraMono-Regular" font-size="36.0" fill="#000000" transform="matrix(1.00, 0.00, -0.00, -1.00, 144.8, 455.0)">s</text><text xml:space="preserve" font-family="FiraMono-Regular" font-size="36.0" fill="#000000" transform="matrix(1.00, 0.00, -0.00, -1.00, 166.4, 455.0)">o</text><text xml:space="preserve" font-family="FiraMono-Regular" font-size="36.0" fill="#000000" transform="matrix(1.00, 0.00, -0.00, -1.00, 188.0, 455.0)">l</text><text xml:space="preserve" font-family="FiraMono-Regular" font-size="36.0" fill="#000000" transform="matrix(1.00, 0.00, -0.00, -1.00, 209.6, 455.0)">e</text><text xml:space="preserve" font-family="FiraMono-Regular" font-size="36.0" fill="#000000" transform="matrix(1.00, 0.00, -0.00, -1.00, 231.2, 455.0)">.</text><text xml:space="preserve" font-family="FiraMono-Regular" font-size="36.0" fill="#000000" transform="matrix(1.00, 0.00, -0.00, -1.00, 252.8, 455.0)">l</text><text xml:space="preserve" font-family="FiraMono-Regular" font-size="36.0" fill="#000000" transform="matrix(1.00, 0.00, -0.00, -1.00, 274.4, 455.0)">o</text><text xml:space="preserve" font-family="FiraMono-Regular" font-size="36.0" fill="#000000" transform="matrix(1.00, 0.00, -0.00, -1.00, 296.0, 455.0)">g</text><text xml:space="preserve" font-family="FiraMono-Regular" font-size="36.0" fill="#000000" transform="matrix(1.00, 0.00, -0.00, -1.00, 317.6, 455.0)">(</text><text xml:space="preserve" font-family="FiraMono-Regular" font-size="36.0" fill="#B96800" transform="matrix(1.00, 0.00, -0.00, -1.00, 339.2, 455.0)">"</text><text xml:space="preserve" font-family="FiraMono-Regular" font-size="36.0" fill="#B96800" transform="matrix(1.00, 0.00, -0.00, -1.00, 360.8, 455.0)">H</text><text xml:space="preserve" font-family="FiraMono-Regular" font-size="36.0" fill="#B96800" transform="matrix(1.00, 0.00, -0.00, -1.00, 382.4, 455.0)">e</text><text xml:space="preserve" font-family="FiraMono-Regular" font-size="36.0" fill="#B96800" transform="matrix(1.00, 0.00, -0.00, -1.00, 404.0, 455.0)">l</text><text xml:space="preserve" font-family="FiraMono-Regular" font-size="36.0" fill="#B96800" transform="matrix(1.00, 0.00, -0.00, -1.00, 425.6, 455.0)">l</text><text xml:space="preserve" font-family="FiraMono-Regular" font-size="36.0" fill="#B96800" transform="matrix(1.00, 0.00, -0.00, -1.00, 447.2, 455.0)">o</text><text xml:space="preserve" font-family="FiraMono-Regular" font-size="36.0" fill="#B96800" transform="matrix(1.00, 0.00, -0.00, -1.00, 468.8, 455.0)">,</text><text xml:space="preserve" font-family="FiraMono-Regular" font-size="36.0" fill="#B96800" transform="matrix(1.00, 0.00, -0.00, -1.00, 490.4, 455.0)"> </text><text xml:space="preserve" font-family="FiraMono-Regular" font-size="36.0" fill="#B96800" transform="matrix(1.00, 0.00, -0.00, -1.00, 512.0, 455.0)">e</text><text xml:space="preserve" font-family="FiraMono-Regular" font-size="36.0" fill="#B96800" transform="matrix(1.00, 0.00, -0.00, -1.00, 533.6, 455.0)">v</text><text xml:space="preserve" font-family="FiraMono-Regular" font-size="36.0" fill="#B96800" transform="matrix(1.00, 0.00, -0.00, -1.00, 555.2, 455.0)">e</text><text xml:space="preserve" font-family="FiraMono-Regular" font-size="36.0" fill="#B96800" transform="matrix(1.00, 0.00, -0.00, -1.00, 576.8, 455.0)">r</text><text xml:space="preserve" font-family="FiraMono-Regular" font-size="36.0" fill="#B96800" transform="matrix(1.00, 0.00, -0.00, -1.00, 598.4, 455.0)">y</text><text xml:space="preserve" font-family="FiraMono-Regular" font-size="36.0" fill="#B96800" transform="matrix(1.00, 0.00, -0.00, -1.00, 620.0, 455.0)">o</text><text xml:space="preserve" font-family="FiraMono-Regular" font-size="36.0" fill="#B96800" transform="matrix(1.00, 0.00, -0.00, -1.00, 641.6, 455.0)">n</text><text xml:space="preserve" font-family="FiraMono-Regular" font-size="36.0" fill="#B96800" transform="matrix(1.00, 0.00, -0.00, -1.00, 663.2, 455.0)">e</text><text xml:space="preserve" font-family="FiraMono-Regular" font-size="36.0" fill="#B96800" transform="matrix(1.00, 0.00, -0.00, -1.00, 684.8, 455.0)">!</text><text xml:space="preserve" font-family="FiraMono-Regular" font-size="36.0" fill="#B96800" transform="matrix(1.00, 0.00, -0.00, -1.00, 706.4, 455.0)">"</text><text xml:space="preserve" font-family="FiraMono-Regular" font-size="36.0" fill="#000000" transform="matrix(1.00, 0.00, -0.00, -1.00, 728.0, 455.0)">)</text><text xml:space="preserve" font-family="FiraMono-Regular" font-size="36.0" fill="#000000" transform="matrix(1.00, 0.00, -0.00, -1.00, 749.6, 455.0)">;</text><text xml:space="preserve" font-family="FiraMono-Regular" font-size="36.0" fill="#000000" transform="matrix(1.00, 0.00, -0.00, -1.00, 771.2, 455.0)"> </text><text xml:space="preserve" font-family="FiraMono-Regular" font-size="36.0" fill="#000000" transform="matrix(1.00, 0.00, -0.00, -1.00, 80.0, 353.0)">c</text><text xml:space="preserve" font-family="FiraMono-Regular" font-size="36.0" fill="#000000" transform="matrix(1.00, 0.00, -0.00, -1.00, 101.6, 353.0)">o</text><text xml:space="preserve" font-family="FiraMono-Regular" font-size="36.0" fill="#000000" transform="matrix(1.00, 0.00, -0.00, -1.00, 123.2, 353.0)">n</text><text xml:space="preserve" font-family="FiraMono-Regular" font-size="36.0" fill="#000000" transform="matrix(1.00, 0.00, -0.00, -1.00, 144.8, 353.0)">s</text><text xml:space="preserve" font-family="FiraMono-Regular" font-size="36.0" fill="#000000" transform="matrix(1.00, 0.00, -0.00, -1.00, 166.4, 353.0)">o</text><text xml:space="preserve" font-family="FiraMono-Regular" font-size="36.0" fill="#000000" transform="matrix(1.00, 0.00, -0.00, -1.00, 188.0, 353.0)">l</text><text xml:space="preserve" font-family="FiraMono-Regular" font-size="36.0" fill="#000000" transform="matrix(1.00, 0.00, -0.00, -1.00, 209.6, 353.0)">e</text><text xml:space="preserve" font-family="FiraMono-Regular" font-size="36.0" fill="#000000" transform="matrix(1.00, 0.00, -0.00, -1.00, 231.2, 353.0)">.</text><text xml:space="preserve" font-family="FiraMono-Regular" font-size="36.0" fill="#000000" transform="matrix(1.00, 0.00, -0.00, -1.00, 252.8, 353.0)">l</text><text xml:space="preserve" font-family="FiraMono-Regular" font-size="36.0" fill="#000000" transform="matrix(1.00, 0.00, -0.00, -1.00, 274.4, 353.0)">o</text><text xml:space="preserve" font-family="FiraMono-Regular" font-size="36.0" fill="#000000" transform="matrix(1.00, 0.00, -0.00, -1.00, 296.0, 353.0)">g</text><text xml:space="preserve" font-family="FiraMono-Regular" font-size="36.0" fill="#000000" transform="matrix(1.00, 0.00, -0.00, -1.00, 317.6, 353.0)">(</text><text xml:space="preserve" font-family="FiraMono-Regular" font-size="36.0" fill="#B96800" transform="matrix(1.00, 0.00, -0.00, -1.00, 339.2, 353.0)">"</text><text xml:space="preserve" font-family="FiraMono-Regular" font-size="36.0" fill="#B96800" transform="matrix(1.00, 0.00, -0.00, -1.00, 360.8, 353.0)">I</text><text xml:space="preserve" font-family="FiraMono-Regular" font-size="36.0" fill="#B96800" transform="matrix(1.00, 0.00, -0.00, -1.00, 382.4, 353.0)"> </text><text xml:space="preserve" font-family="FiraMono-Regular" font-size="36.0" fill="#B96800" transform="matrix(1.00, 0.00, -0.00, -1.00, 404.0, 353.0)">a</text><text xml:space="preserve" font-family="FiraMono-Regular" font-size="36.0" fill="#B96800" transform="matrix(1.00, 0.00, -0.00, -1.00, 425.6, 353.0)">m</text><text xml:space="preserve" font-family="FiraMono-Regular" font-size="36.0" fill="#B96800" transform="matrix(1.00, 0.00, -0.00, -1.00, 447.2, 353.0)"> </text><text xml:space="preserve" font-family="FiraMono-Regular" font-size="36.0" fill="#B96800" transform="matrix(1.00, 0.00, -0.00, -1.00, 468.8, 353.0)">i</text><text xml:space="preserve" font-family="FiraMono-Regular" font-size="36.0" fill="#B96800" transform="matrix(1.00, 0.00, -0.00, -1.00, 490.4, 353.0)">n</text><text xml:space="preserve" font-family="FiraMono-Regular" font-size="36.0" fill="#B96800" transform="matrix(1.00, 0.00, -0.00, -1.00, 512.0, 353.0)"> </text><text xml:space="preserve" font-family="FiraMono-Regular" font-size="36.0" fill="#B96800" transform="matrix(1.00, 0.00, -0.00, -1.00, 533.6, 353.0)">s</text><text xml:space="preserve" font-family="FiraMono-Regular" font-size="36.0" fill="#B96800" transform="matrix(1.00, 0.00, -0.00, -1.00, 555.2, 353.0)">o</text><text xml:space="preserve" font-family="FiraMono-Regular" font-size="36.0" fill="#B96800" transform="matrix(1.00, 0.00, -0.00, -1.00, 576.8, 353.0)">m</text><text xml:space="preserve" font-family="FiraMono-Regular" font-size="36.0" fill="#B96800" transform="matrix(1.00, 0.00, -0.00, -1.00, 598.4, 353.0)">e</text><text xml:space="preserve" font-family="FiraMono-Regular" font-size="36.0" fill="#B96800" transform="matrix(1.00, 0.00, -0.00, -1.00, 620.0, 353.0)"> </text><text xml:space="preserve" font-family="FiraMono-Regular" font-size="36.0" fill="#B96800" transform="matrix(1.00, 0.00, -0.00, -1.00, 641.6, 353.0)">J</text><text xml:space="preserve" font-family="FiraMono-Regular" font-size="36.0" fill="#B96800" transform="matrix(1.00, 0.00, -0.00, -1.00, 663.2, 353.0)">a</text><text xml:space="preserve" font-family="FiraMono-Regular" font-size="36.0" fill="#B96800" transform="matrix(1.00, 0.00, -0.00, -1.00, 684.8, 353.0)">v</text><text xml:space="preserve" font-family="FiraMono-Regular" font-size="36.0" fill="#B96800" transform="matrix(1.00, 0.00, -0.00, -1.00, 706.4, 353.0)">a</text><text xml:space="preserve" font-family="FiraMono-Regular" font-size="36.0" fill="#B96800" transform="matrix(1.00, 0.00, -0.00, -1.00, 728.0, 353.0)">S</text><text xml:space="preserve" font-family="FiraMono-Regular" font-size="36.0" fill="#B96800" transform="matrix(1.00, 0.00, -0.00, -1.00, 749.6, 353.0)">c</text><text xml:space="preserve" font-family="FiraMono-Regular" font-size="36.0" fill="#B96800" transform="matrix(1.00, 0.00, -0.00, -1.00, 771.2, 353.0)">r</text><text xml:space="preserve" font-family="FiraMono-Regular" font-size="36.0" fill="#B96800" transform="matrix(1.00, 0.00, -0.00, -1.00, 792.8, 353.0)">i</text><text xml:space="preserve" font-family="FiraMono-Regular" font-size="36.0" fill="#B96800" transform="matrix(1.00, 0.00, -0.00, -1.00, 814.4, 353.0)">p</text><text xml:space="preserve" font-family="FiraMono-Regular" font-size="36.0" fill="#B96800" transform="matrix(1.00, 0.00, -0.00, -1.00, 836.0, 353.0)">t</text><text xml:space="preserve" font-family="FiraMono-Regular" font-size="36.0" fill="#B96800" transform="matrix(1.00, 0.00, -0.00, -1.00, 857.6, 353.0)">!</text><text xml:space="preserve" font-family="FiraMono-Regular" font-size="36.0" fill="#B96800" transform="matrix(1.00, 0.00, -0.00, -1.00, 879.2, 353.0)">"</text><text xml:space="preserve" font-family="FiraMono-Regular" font-size="36.0" fill="#000000" transform="matrix(1.00, 0.00, -0.00, -1.00, 900.8, 353.0)">)</text><text xml:space="preserve" font-family="FiraMono-Regular" font-size="36.0" fill="#000000" transform="matrix(1.00, 0.00, -0.00, -1.00, 922.4, 353.0)"> </text><text xml:space="preserve" font-family="FiraMono-Regular" font-size="36.0" fill="#000000" transform="matrix(1.00, 0.00, -0.00, -1.00, 80.0, 251.0)">c</text><text xml:space="preserve" font-family="FiraMono-Regular" font-size="36.0" fill="#000000" transform="matrix(1.00, 0.00, -0.00, -1.00, 101.6, 251.0)">o</text><text xml:space="preserve" font-family="FiraMono-Regular" font-size="36.0" fill="#000000" transform="matrix(1.00, 0.00, -0.00, -1.00, 123.2, 251.0)">n</text><text xml:space="preserve" font-family="FiraMono-Regular" font-size="36.0" fill="#000000" transform="matrix(1.00, 0.00, -0.00, -1.00, 144.8, 251.0)">s</text><text xml:space="preserve" font-family="FiraMono-Regular" font-size="36.0" fill="#000000" transform="matrix(1.00, 0.00, -0.00, -1.00, 166.4, 251.0)">o</text><text xml:space="preserve" font-family="FiraMono-Regular" font-size="36.0" fill="#000000" transform="matrix(1.00, 0.00, -0.00, -1.00, 188.0, 251.0)">l</text><text xml:space="preserve" font-family="FiraMono-Regular" font-size="36.0" fill="#000000" transform="matrix(1.00, 0.00, -0.00, -1.00, 209.6, 251.0)">e</text><text xml:space="preserve" font-family="FiraMono-Regular" font-size="36.0" fill="#000000" transform="matrix(1.00, 0.00, -0.00, -1.00, 231.2, 251.0)">.</text><text xml:space="preserve" font-family="FiraMono-Regular" font-size="36.0" fill="#000000" transform="matrix(1.00, 0.00, -0.00, -1.00, 252.8, 251.0)">l</text><text xml:space="preserve" font-family="FiraMono-Regular" font-size="36.0" fill="#000000" transform="matrix(1.00, 0.00, -0.00, -1.00, 274.4, 251.0)">o</text><text xml:space="preserve" font-family="FiraMono-Regular" font-size="36.0" fill="#000000" transform="matrix(1.00, 0.00, -0.00, -1.00, 296.0, 251.0)">g</text><text xml:space="preserve" font-family="FiraMono-Regular" font-size="36.0" fill="#000000" transform="matrix(1.00, 0.00, -0.00, -1.00, 317.6, 251.0)">(</text><text xml:space="preserve" font-family="FiraMono-Regular" font-size="36.0" fill="#B96800" transform="matrix(1.00, 0.00, -0.00, -1.00, 339.2, 251.0)">"</text><text xml:space="preserve" font-family="FiraMono-Regular" font-size="36.0" fill="#B96800" transform="matrix(1.00, 0.00, -0.00, -1.00, 360.8, 251.0)">T</text><text xml:space="preserve" font-family="FiraMono-Regular" font-size="36.0" fill="#B96800" transform="matrix(1.00, 0.00, -0.00, -1.00, 382.4, 251.0)">h</text><text xml:space="preserve" font-family="FiraMono-Regular" font-size="36.0" fill="#B96800" transform="matrix(1.00, 0.00, -0.00, -1.00, 404.0, 251.0)">e</text><text xml:space="preserve" font-family="FiraMono-Regular" font-size="36.0" fill="#B96800" transform="matrix(1.00, 0.00, -0.00, -1.00, 425.6, 251.0)"> </text><text xml:space="preserve" font-family="FiraMono-Regular" font-size="36.0" fill="#B96800" transform="matrix(1.00, 0.00, -0.00, -1.00, 447.2, 251.0)">E</text><text xml:space="preserve" font-family="FiraMono-Regular" font-size="36.0" fill="#B96800" transform="matrix(1.00, 0.00, -0.00, -1.00, 468.8, 251.0)">n</text><text xml:space="preserve" font-family="FiraMono-Regular" font-size="36.0" fill="#B96800" transform="matrix(1.00, 0.00, -0.00, -1.00, 490.4, 251.0)">d</text><text xml:space="preserve" font-family="FiraMono-Regular" font-size="36.0" fill="#B96800" transform="matrix(1.00, 0.00, -0.00, -1.00, 512.0, 251.0)">.</text><text xml:space="preserve" font-family="FiraMono-Regular" font-size="36.0" fill="#B96800" transform="matrix(1.00, 0.00, -0.00, -1.00, 533.6, 251.0)">"</text><text xml:space="preserve" font-family="FiraMono-Regular" font-size="36.0" fill="#000000" transform="matrix(1.00, 0.00, -0.00, -1.00, 555.2, 251.0)">)</text><text xml:space="preserve" font-family="FiraMono-Regular" font-size="36.0" fill="#000000" transform="matrix(1.00, 0.00, -0.00, -1.00, 576.8, 251.0)"> </text></g></svg>