<?xml version="1.0" encoding="UTF-8" standalone="no"?><svg xmlns="http://www.w3.org/2000/svg" xmlns:xlink="http://www.w3.org/1999/xlink" clip-rule="evenodd" stroke-miterlimit="4.00" viewBox="0 0 1024 768"><desc>SVG generated by Keynote</desc><defs></defs><g transform="matrix(1.00, 0.00, -0.00, -1.00, 0.0, 768.0)"><path d="M 0.0 768.0 L 1024.0 768.0 L 1024.0 0.0 L 0.0 0.0 Z M 0.0 768.0 " fill="#FEFFFF"></path><text xml:space="preserve" font-family="AvenirNext-DemiBold" font-weight="bold" font-size="80.0" fill="#000000" transform="matrix(1.00, 0.00, -0.00, -1.00, 398.0, 622.0)">R</text><text xml:space="preserve" font-family="AvenirNext-DemiBold" font-weight="bold" font-size="80.0" fill="#000000" transform="matrix(1.00, 0.00, -0.00, -1.00, 447.4, 622.0)">e</text><text xml:space="preserve" font-family="AvenirNext-DemiBold" font-weight="bold" font-size="80.0" fill="#000000" transform="matrix(1.00, 0.00, -0.00, -1.00, 493.3, 622.0)">c</text><text xml:space="preserve" font-family="AvenirNext-DemiBold" font-weight="bold" font-size="80.0" fill="#000000" transform="matrix(1.00, 0.00, -0.00, -1.00, 532.3, 622.0)">a</text><text xml:space="preserve" font-family="AvenirNext-DemiBold" font-weight="bold" font-size="80.0" fill="#000000" transform="matrix(1.00, 0.00, -0.00, -1.00, 576.3, 622.0)">p</text><text xml:space="preserve" font-family="HelveticaNeueLTPro-Lt" font-size="27.0" fill="#000000" transform="matrix(1.00, 0.00, -0.00, -1.00, 79.0, 394.5)">•</text><text xml:space="preserve" font-family="HelveticaNeueLTPro-Lt" font-size="36.0" fill="#000000" transform="matrix(1.00, 0.00, -0.00, -1.00, 114.0, 392.0)">W</text><text xml:space="preserve" font-family="HelveticaNeueLTPro-Lt" font-size="36.0" fill="#000000" transform="matrix(1.00, 0.00, -0.00, -1.00, 145.3, 392.0)">a</text><text xml:space="preserve" font-family="HelveticaNeueLTPro-Lt" font-size="36.0" fill="#000000" transform="matrix(1.00, 0.00, -0.00, -1.00, 164.0, 392.0)">y</text><text xml:space="preserve" font-family="HelveticaNeueLTPro-Lt" font-size="36.0" fill="#000000" transform="matrix(1.00, 0.00, -0.00, -1.00, 180.7, 392.0)">s</text><text xml:space="preserve" font-family="HelveticaNeueLTPro-Lt" font-size="36.0" fill="#000000" transform="matrix(1.00, 0.00, -0.00, -1.00, 198.0, 392.0)"> </text><text xml:space="preserve" font-family="HelveticaNeueLTPro-Lt" font-size="36.0" fill="#000000" transform="matrix(1.00, 0.00, -0.00, -1.00, 208.0, 392.0)">o</text><text xml:space="preserve" font-family="HelveticaNeueLTPro-Lt" font-size="36.0" fill="#000000" transform="matrix(1.00, 0.00, -0.00, -1.00, 228.0, 392.0)">f</text><text xml:space="preserve" font-family="HelveticaNeueLTPro-Lt" font-size="36.0" fill="#000000" transform="matrix(1.00, 0.00, -0.00, -1.00, 237.3, 392.0)"> </text><text xml:space="preserve" font-family="HelveticaNeueLTPro-Lt" font-size="36.0" fill="#000000" transform="matrix(1.00, 0.00, -0.00, -1.00, 247.3, 392.0)">c</text><text xml:space="preserve" font-family="HelveticaNeueLTPro-Lt" font-size="36.0" fill="#000000" transform="matrix(1.00, 0.00, -0.00, -1.00, 266.0, 392.0)">o</text><text xml:space="preserve" font-family="HelveticaNeueLTPro-Lt" font-size="36.0" fill="#000000" transform="matrix(1.00, 0.00, -0.00, -1.00, 286.0, 392.0)">d</text><text xml:space="preserve" font-family="HelveticaNeueLTPro-Lt" font-size="36.0" fill="#000000" transform="matrix(1.00, 0.00, -0.00, -1.00, 306.7, 392.0)">i</text><text xml:space="preserve" font-family="HelveticaNeueLTPro-Lt" font-size="36.0" fill="#000000" transform="matrix(1.00, 0.00, -0.00, -1.00, 313.4, 392.0)">n</text><text xml:space="preserve" font-family="HelveticaNeueLTPro-Lt" font-size="36.0" fill="#000000" transform="matrix(1.00, 0.00, -0.00, -1.00, 332.7, 392.0)">g</text><text xml:space="preserve" font-family="HelveticaNeueLTPro-Lt" font-size="36.0" fill="#000000" transform="matrix(1.00, 0.00, -0.00, -1.00, 352.7, 392.0)"> </text><text xml:space="preserve" font-family="HelveticaNeueLTPro-Lt" font-size="36.0" fill="#000000" transform="matrix(1.00, 0.00, -0.00, -1.00, 362.7, 392.0)">l</text><text xml:space="preserve" font-family="HelveticaNeueLTPro-Lt" font-size="36.0" fill="#000000" transform="matrix(1.00, 0.00, -0.00, -1.00, 369.4, 392.0)">a</text><text xml:space="preserve" font-family="HelveticaNeueLTPro-Lt" font-size="36.0" fill="#000000" transform="matrix(1.00, 0.00, -0.00, -1.00, 388.1, 392.0)">y</text><text xml:space="preserve" font-family="HelveticaNeueLTPro-Lt" font-size="36.0" fill="#000000" transform="matrix(1.00, 0.00, -0.00, -1.00, 404.7, 392.0)">o</text><text xml:space="preserve" font-family="HelveticaNeueLTPro-Lt" font-size="36.0" fill="#000000" transform="matrix(1.00, 0.00, -0.00, -1.00, 424.8, 392.0)">u</text><text xml:space="preserve" font-family="HelveticaNeueLTPro-Lt" font-size="36.0" fill="#000000" transform="matrix(1.00, 0.00, -0.00, -1.00, 444.1, 392.0)">t</text><text xml:space="preserve" font-family="HelveticaNeueLTPro-Lt" font-size="36.0" fill="#000000" transform="matrix(1.00, 0.00, -0.00, -1.00, 454.7, 392.0)">s</text><text xml:space="preserve" font-family="HelveticaNeueLTPro-Lt" font-size="36.0" fill="#000000" transform="matrix(1.00, 0.00, -0.00, -1.00, 472.1, 392.0)"> </text><text xml:space="preserve" font-family="HelveticaNeueLTPro-Lt" font-size="36.0" fill="#000000" transform="matrix(1.00, 0.00, -0.00, -1.00, 482.1, 392.0)">i</text><text xml:space="preserve" font-family="HelveticaNeueLTPro-Lt" font-size="36.0" fill="#000000" transform="matrix(1.00, 0.00, -0.00, -1.00, 488.7, 392.0)">n</text><text xml:space="preserve" font-family="HelveticaNeueLTPro-Lt" font-size="36.0" fill="#000000" transform="matrix(1.00, 0.00, -0.00, -1.00, 508.1, 392.0)"> </text><text xml:space="preserve" font-family="HelveticaNeueLTPro-Lt" font-size="36.0" fill="#000000" transform="matrix(1.00, 0.00, -0.00, -1.00, 518.1, 392.0)">C</text><text xml:space="preserve" font-family="HelveticaNeueLTPro-Lt" font-size="36.0" fill="#000000" transform="matrix(1.00, 0.00, -0.00, -1.00, 543.4, 392.0)">S</text><text xml:space="preserve" font-family="HelveticaNeueLTPro-Lt" font-size="36.0" fill="#000000" transform="matrix(1.00, 0.00, -0.00, -1.00, 566.1, 392.0)">S</text><text xml:space="preserve" font-family="HelveticaNeueLTPro-Lt" font-size="36.0" fill="#000000" transform="matrix(1.00, 0.00, -0.00, -1.00, 588.8, 392.0)"> </text><text xml:space="preserve" font-family="HelveticaNeueLTPro-Lt" font-size="27.0" fill="#000000" transform="matrix(1.00, 0.00, -0.00, -1.00, 114.0, 309.5)">•</text><text xml:space="preserve" font-family="HelveticaNeueLTPro-Lt" font-size="36.0" fill="#000000" transform="matrix(1.00, 0.00, -0.00, -1.00, 149.0, 307.0)">ﬂ</text><text xml:space="preserve" font-family="HelveticaNeueLTPro-Lt" font-size="36.0" fill="#000000" transform="matrix(1.00, 0.00, -0.00, -1.00, 165.0, 307.0)">o</text><text xml:space="preserve" font-family="HelveticaNeueLTPro-Lt" font-size="36.0" fill="#000000" transform="matrix(1.00, 0.00, -0.00, -1.00, 185.0, 307.0)">a</text><text xml:space="preserve" font-family="HelveticaNeueLTPro-Lt" font-size="36.0" fill="#000000" transform="matrix(1.00, 0.00, -0.00, -1.00, 203.7, 307.0)">t</text><text xml:space="preserve" font-family="HelveticaNeueLTPro-Lt" font-size="36.0" fill="#000000" transform="matrix(1.00, 0.00, -0.00, -1.00, 214.3, 307.0)"> </text><text xml:space="preserve" font-family="HelveticaNeueLTPro-Lt" font-size="27.0" fill="#000000" transform="matrix(1.00, 0.00, -0.00, -1.00, 114.0, 224.5)">•</text><text xml:space="preserve" font-family="HelveticaNeueLTPro-Lt" font-size="36.0" fill="#000000" transform="matrix(1.00, 0.00, -0.00, -1.00, 149.0, 222.0)">d</text><text xml:space="preserve" font-family="HelveticaNeueLTPro-Lt" font-size="36.0" fill="#000000" transform="matrix(1.00, 0.00, -0.00, -1.00, 169.7, 222.0)">i</text><text xml:space="preserve" font-family="HelveticaNeueLTPro-Lt" font-size="36.0" fill="#000000" transform="matrix(1.00, 0.00, -0.00, -1.00, 176.3, 222.0)">s</text><text xml:space="preserve" font-family="HelveticaNeueLTPro-Lt" font-size="36.0" fill="#000000" transform="matrix(1.00, 0.00, -0.00, -1.00, 193.6, 222.0)">p</text><text xml:space="preserve" font-family="HelveticaNeueLTPro-Lt" font-size="36.0" fill="#000000" transform="matrix(1.00, 0.00, -0.00, -1.00, 214.3, 222.0)">l</text><text xml:space="preserve" font-family="HelveticaNeueLTPro-Lt" font-size="36.0" fill="#000000" transform="matrix(1.00, 0.00, -0.00, -1.00, 221.0, 222.0)">a</text><text xml:space="preserve" font-family="HelveticaNeueLTPro-Lt" font-size="36.0" fill="#000000" transform="matrix(1.00, 0.00, -0.00, -1.00, 239.6, 222.0)">y</text><text xml:space="preserve" font-family="HelveticaNeueLTPro-Lt" font-size="36.0" fill="#000000" transform="matrix(1.00, 0.00, -0.00, -1.00, 256.3, 222.0)">:</text><text xml:space="preserve" font-family="HelveticaNeueLTPro-Lt" font-size="36.0" fill="#000000" transform="matrix(1.00, 0.00, -0.00, -1.00, 266.3, 222.0)"> </text><text xml:space="preserve" font-family="HelveticaNeueLTPro-Lt" font-size="36.0" fill="#000000" transform="matrix(1.00, 0.00, -0.00, -1.00, 276.3, 222.0)">i</text><text xml:space="preserve" font-family="HelveticaNeueLTPro-Lt" font-size="36.0" fill="#000000" transform="matrix(1.00, 0.00, -0.00, -1.00, 283.0, 222.0)">n</text><text xml:space="preserve" font-family="HelveticaNeueLTPro-Lt" font-size="36.0" fill="#000000" transform="matrix(1.00, 0.00, -0.00, -1.00, 302.3, 222.0)">l</text><text xml:space="preserve" font-family="HelveticaNeueLTPro-Lt" font-size="36.0" fill="#000000" transform="matrix(1.00, 0.00, -0.00, -1.00, 309.0, 222.0)">i</text><text xml:space="preserve" font-family="HelveticaNeueLTPro-Lt" font-size="36.0" fill="#000000" transform="matrix(1.00, 0.00, -0.00, -1.00, 315.6, 222.0)">n</text><text xml:space="preserve" font-family="HelveticaNeueLTPro-Lt" font-size="36.0" fill="#000000" transform="matrix(1.00, 0.00, -0.00, -1.00, 335.0, 222.0)">e</text><text xml:space="preserve" font-family="HelveticaNeueLTPro-Lt" font-size="36.0" fill="#000000" transform="matrix(1.00, 0.00, -0.00, -1.00, 353.7, 222.0)">-</text><text xml:space="preserve" font-family="HelveticaNeueLTPro-Lt" font-size="36.0" fill="#000000" transform="matrix(1.00, 0.00, -0.00, -1.00, 367.0, 222.0)">b</text><text xml:space="preserve" font-family="HelveticaNeueLTPro-Lt" font-size="36.0" fill="#000000" transform="matrix(1.00, 0.00, -0.00, -1.00, 387.6, 222.0)">l</text><text xml:space="preserve" font-family="HelveticaNeueLTPro-Lt" font-size="36.0" fill="#000000" transform="matrix(1.00, 0.00, -0.00, -1.00, 394.3, 222.0)">o</text><text xml:space="preserve" font-family="HelveticaNeueLTPro-Lt" font-size="36.0" fill="#000000" transform="matrix(1.00, 0.00, -0.00, -1.00, 414.3, 222.0)">c</text><text xml:space="preserve" font-family="HelveticaNeueLTPro-Lt" font-size="36.0" fill="#000000" transform="matrix(1.00, 0.00, -0.00, -1.00, 433.0, 222.0)">k</text></g></svg>